  0
SECTION
  2
HEADER
  9
$ACADVER
  1
AC1032
  9
$ACADMAINTVER
 90
        4
  9
$DWGCODEPAGE
  3
ANSI_1252
  9
$REQUIREDVERSIONS
160
                 0
  9
$INSBASE
 10
0.0
 20
0.0
 30
0.0
  9
$EXTMIN
 10
-104.3883049785171
 20
-157.2442015809443
 30
0.0
  9
$EXTMAX
 10
88.6116950214829
 20
122.7557984190557
 30
0.0
  9
$LIMMIN
 10
0.0
 20
0.0
  9
$LIMMAX
 10
12.0
 20
9.0
  9
$ORTHOMODE
 70
     0
  9
$REGENMODE
 70
     1
  9
$FILLMODE
 70
     1
  9
$QTEXTMODE
 70
     0
  9
$MIRRTEXT
 70
     1
  9
$LTSCALE
 40
1.0
  9
$ATTMODE
 70
     1
  9
$TEXTSIZE
 40
0.2
  9
$TRACEWID
 40
0.05
  9
$TEXTSTYLE
  7
Standard
  9
$CLAYER
  8
Bottom Stand
  9
$CELTYPE
  6
ByLayer
  9
$CECOLOR
 62
    18
  9
$CELTSCALE
 40
1.0
  9
$DISPSILH
 70
     0
  9
$DIMSCALE
 40
1.0
  9
$DIMASZ
 40
2.5
  9
$DIMEXO
 40
0.625
  9
$DIMDLI
 40
0.38
  9
$DIMRND
 40
0.0
  9
$DIMDLE
 40
0.0
  9
$DIMEXE
 40
1.25
  9
$DIMTP
 40
0.0
  9
$DIMTM
 40
0.0
  9
$DIMTXT
 40
2.5
  9
$DIMCEN
 40
0.09
  9
$DIMTSZ
 40
0.0
  9
$DIMTOL
 70
     0
  9
$DIMLIM
 70
     0
  9
$DIMTIH
 70
     1
  9
$DIMTOH
 70
     1
  9
$DIMSE1
 70
     0
  9
$DIMSE2
 70
     0
  9
$DIMTAD
 70
     0
  9
$DIMZIN
 70
     8
  9
$DIMBLK
  1

  9
$DIMASO
 70
     1
  9
$DIMSHO
 70
     1
  9
$DIMPOST
  1

  9
$DIMAPOST
  1

  9
$DIMALT
 70
     0
  9
$DIMALTD
 70
     2
  9
$DIMALTF
 40
25.4
  9
$DIMLFAC
 40
1.0
  9
$DIMTOFL
 70
     0
  9
$DIMTVP
 40
0.0
  9
$DIMTIX
 70
     0
  9
$DIMSOXD
 70
     0
  9
$DIMSAH
 70
     0
  9
$DIMBLK1
  1

  9
$DIMBLK2
  1

  9
$DIMSTYLE
  2
Standard
  9
$DIMCLRD
 70
    18
  9
$DIMCLRE
 70
    18
  9
$DIMCLRT
 70
    18
  9
$DIMTFAC
 40
1.0
  9
$DIMGAP
 40
0.625
  9
$DIMJUST
 70
     0
  9
$DIMSD1
 70
     0
  9
$DIMSD2
 70
     0
  9
$DIMTOLJ
 70
     1
  9
$DIMTZIN
 70
     0
  9
$DIMALTZ
 70
     0
  9
$DIMALTTZ
 70
     0
  9
$DIMUPT
 70
     0
  9
$DIMDEC
 70
     4
  9
$DIMTDEC
 70
     4
  9
$DIMALTU
 70
     2
  9
$DIMALTTD
 70
     2
  9
$DIMTXSTY
  7
Standard
  9
$DIMAUNIT
 70
     0
  9
$DIMADEC
 70
     0
  9
$DIMALTRND
 40
0.0
  9
$DIMAZIN
 70
     2
  9
$DIMDSEP
 70
    46
  9
$DIMATFIT
 70
     3
  9
$DIMFRAC
 70
     0
  9
$DIMLDRBLK
  1

  9
$DIMLUNIT
 70
     2
  9
$DIMLWD
 70
    -2
  9
$DIMLWE
 70
    -2
  9
$DIMTMOVE
 70
     0
  9
$DIMFXL
 40
1.0
  9
$DIMFXLON
 70
     0
  9
$DIMJOGANG
 40
0.7853981633974483
  9
$DIMTFILL
 70
     0
  9
$DIMTFILLCLR
 70
     0
  9
$DIMARCSYM
 70
     0
  9
$DIMLTYPE
  6

  9
$DIMLTEX1
  6

  9
$DIMLTEX2
  6

  9
$DIMTXTDIRECTION
 70
     0
  9
$LUNITS
 70
     2
  9
$LUPREC
 70
     4
  9
$SKETCHINC
 40
0.1
  9
$FILLETRAD
 40
0.5
  9
$AUNITS
 70
     0
  9
$AUPREC
 70
     0
  9
$MENU
  1
.
  9
$ELEVATION
 40
0.0
  9
$PELEVATION
 40
0.0
  9
$THICKNESS
 40
0.0
  9
$LIMCHECK
 70
     0
  9
$CHAMFERA
 40
0.0
  9
$CHAMFERB
 40
0.0
  9
$CHAMFERC
 40
0.0
  9
$CHAMFERD
 40
0.0
  9
$SKPOLY
 70
     0
  9
$TDCREATE
 40
2458771.760112338
  9
$TDUCREATE
 40
2458771.385112338
  9
$TDUPDATE
 40
2458771.760112708
  9
$TDUUPDATE
 40
2458771.385112708
  9
$TDINDWG
 40
0.0000000116
  9
$TDUSRTIMER
 40
0.0000000116
  9
$USRTIMER
 70
     1
  9
$ANGBASE
 50
0.0
  9
$ANGDIR
 70
     0
  9
$PDMODE
 70
     0
  9
$PDSIZE
 40
0.0
  9
$PLINEWID
 40
0.0
  9
$SPLFRAME
 70
     0
  9
$SPLINETYPE
 70
     6
  9
$SPLINESEGS
 70
     8
  9
$HANDSEED
  5
2F43
  9
$SURFTAB1
 70
     6
  9
$SURFTAB2
 70
     6
  9
$SURFTYPE
 70
     6
  9
$SURFU
 70
     6
  9
$SURFV
 70
     6
  9
$UCSBASE
  2

  9
$UCSNAME
  2

  9
$UCSORG
 10
0.0
 20
0.0
 30
0.0
  9
$UCSXDIR
 10
1.0
 20
0.0
 30
0.0
  9
$UCSYDIR
 10
0.0
 20
1.0
 30
0.0
  9
$UCSORTHOREF
  2

  9
$UCSORTHOVIEW
 70
     0
  9
$UCSORGTOP
 10
0.0
 20
0.0
 30
0.0
  9
$UCSORGBOTTOM
 10
0.0
 20
0.0
 30
0.0
  9
$UCSORGLEFT
 10
0.0
 20
0.0
 30
0.0
  9
$UCSORGRIGHT
 10
0.0
 20
0.0
 30
0.0
  9
$UCSORGFRONT
 10
0.0
 20
0.0
 30
0.0
  9
$UCSORGBACK
 10
0.0
 20
0.0
 30
0.0
  9
$PUCSBASE
  2

  9
$PUCSNAME
  2

  9
$PUCSORG
 10
0.0
 20
0.0
 30
0.0
  9
$PUCSXDIR
 10
1.0
 20
0.0
 30
0.0
  9
$PUCSYDIR
 10
0.0
 20
1.0
 30
0.0
  9
$PUCSORTHOREF
  2

  9
$PUCSORTHOVIEW
 70
     0
  9
$PUCSORGTOP
 10
0.0
 20
0.0
 30
0.0
  9
$PUCSORGBOTTOM
 10
0.0
 20
0.0
 30
0.0
  9
$PUCSORGLEFT
 10
0.0
 20
0.0
 30
0.0
  9
$PUCSORGRIGHT
 10
0.0
 20
0.0
 30
0.0
  9
$PUCSORGFRONT
 10
0.0
 20
0.0
 30
0.0
  9
$PUCSORGBACK
 10
0.0
 20
0.0
 30
0.0
  9
$USERI1
 70
     0
  9
$USERI2
 70
     0
  9
$USERI3
 70
     0
  9
$USERI4
 70
     0
  9
$USERI5
 70
     0
  9
$USERR1
 40
0.0
  9
$USERR2
 40
0.0
  9
$USERR3
 40
0.0
  9
$USERR4
 40
0.0
  9
$USERR5
 40
0.0
  9
$WORLDVIEW
 70
     1
  9
$SHADEDGE
 70
     3
  9
$SHADEDIF
 70
    70
  9
$TILEMODE
 70
     1
  9
$MAXACTVP
 70
    64
  9
$PINSBASE
 10
0.0
 20
0.0
 30
0.0
  9
$PLIMCHECK
 70
     0
  9
$PEXTMIN
 10
0.0
 20
0.0
 30
0.0
  9
$PEXTMAX
 10
0.0
 20
0.0
 30
0.0
  9
$PLIMMIN
 10
-0.25
 20
-0.25
  9
$PLIMMAX
 10
10.75
 20
8.25
  9
$UNITMODE
 70
     0
  9
$VISRETAIN
 70
     1
  9
$PLINEGEN
 70
     0
  9
$PSLTSCALE
 70
     1
  9
$TREEDEPTH
 70
  3020
  9
$CMLSTYLE
  2
Standard
  9
$CMLJUST
 70
     0
  9
$CMLSCALE
 40
1.0
  9
$PROXYGRAPHICS
 70
     1
  9
$MEASUREMENT
 70
     0
  9
$CELWEIGHT
370
    -1
  9
$ENDCAPS
280
     0
  9
$JOINSTYLE
280
     0
  9
$LWDISPLAY
290
     0
  9
$INSUNITS
 70
     4
  9
$HYPERLINKBASE
  1

  9
$STYLESHEET
  1

  9
$XEDIT
290
     1
  9
$CEPSNTYPE
380
     0
  9
$PSTYLEMODE
290
     1
  9
$FINGERPRINTGUID
  2
{ba0434fd-04eb-4dd1-b037-09fd3b2f4934}
  9
$VERSIONGUID
  2
{FAEB1C32-E019-11D5-929B-00C0DF256EC4}
  9
$EXTNAMES
290
     1
  9
$PSVPSCALE
 40
0.0
  9
$OLESTARTUP
290
     0
  9
$SORTENTS
280
   127
  9
$INDEXCTL
280
     0
  9
$HIDETEXT
280
     1
  9
$XCLIPFRAME
280
     2
  9
$HALOGAP
280
     0
  9
$OBSCOLOR
 70
   257
  9
$OBSLTYPE
280
     0
  9
$INTERSECTIONDISPLAY
280
     0
  9
$INTERSECTIONCOLOR
 70
   257
  9
$DIMASSOC
280
     2
  9
$PROJECTNAME
  1

  9
$CAMERADISPLAY
290
     0
  9
$LENSLENGTH
 40
50.0
  9
$CAMERAHEIGHT
 40
0.0
  9
$STEPSPERSEC
 40
2.0
  9
$STEPSIZE
 40
6.0
  9
$3DDWFPREC
 40
2.0
  9
$PSOLWIDTH
 40
0.25
  9
$PSOLHEIGHT
 40
4.0
  9
$LOFTANG1
 40
1.570796326794897
  9
$LOFTANG2
 40
1.570796326794897
  9
$LOFTMAG1
 40
0.0
  9
$LOFTMAG2
 40
0.0
  9
$LOFTPARAM
 70
     7
  9
$LOFTNORMALS
280
     1
  9
$LATITUDE
 40
37.795
  9
$LONGITUDE
 40
-122.394
  9
$NORTHDIRECTION
 40
0.0
  9
$TIMEZONE
 70
 -8000
  9
$LIGHTGLYPHDISPLAY
280
     1
  9
$TILEMODELIGHTSYNCH
280
     1
  9
$CMATERIAL
347
2E7B
  9
$SOLIDHIST
280
     0
  9
$SHOWHIST
280
     1
  9
$DWFFRAME
280
     2
  9
$DGNFRAME
280
     2
  9
$REALWORLDSCALE
290
     1
  9
$INTERFERECOLOR
 62
   256
  9
$CSHADOW
280
     0
  9
$SHADOWPLANELOCATION
 40
0.0
  0
ENDSEC
  0
SECTION
  2
CLASSES
  0
CLASS
  1
ACDBDICTIONARYWDFLT
  2
AcDbDictionaryWithDefault
  3
ObjectDBX Classes
 90
        0
 91
        3
280
     0
281
     0
  0
CLASS
  1
VISUALSTYLE
  2
AcDbVisualStyle
  3
ObjectDBX Classes
 90
     4095
 91
        3
280
     0
281
     0
  0
CLASS
  1
MATERIAL
  2
AcDbMaterial
  3
ObjectDBX Classes
 90
     1153
 91
        3
280
     0
281
     0
  0
CLASS
  1
SCALE
  2
AcDbScale
  3
ObjectDBX Classes
 90
     1153
 91
        3
280
     0
281
     0
  0
CLASS
  1
TABLESTYLE
  2
AcDbTableStyle
  3
ObjectDBX Classes
 90
     4095
 91
        3
280
     0
281
     0
  0
CLASS
  1
MLEADERSTYLE
  2
AcDbMLeaderStyle
  3
ACDB_MLEADERSTYLE_CLASS
 90
     4095
 91
        3
280
     0
281
     0
  0
CLASS
  1
SUN
  2
AcDbSun
  3
SCENEOE
 90
     1153
 91
        3
280
     0
281
     0
  0
CLASS
  1
DICTIONARYVAR
  2
AcDbDictionaryVar
  3
ObjectDBX Classes
 90
        0
 91
        3
280
     0
281
     0
  0
CLASS
  1
CELLSTYLEMAP
  2
AcDbCellStyleMap
  3
ObjectDBX Classes
 90
     1152
 91
        3
280
     0
281
     0
  0
ENDSEC
  0
SECTION
  2
TABLES
  0
TABLE
  2
VPORT
  5
2E40
330
0
100
AcDbSymbolTable
 70
     1
  0
VPORT
  5
2E60
330
2E40
100
AcDbSymbolTableRecord
100
AcDbViewportTableRecord
  2
*Active
 70
     0
 10
0.0
 20
0.0
 11
1.0
 21
1.0
 12
24.38353575410781
 22
93.94358940523179
 13
0.0
 23
0.0
 14
0.5
 24
0.5
 15
0.5
 25
0.5
 16
0.0
 26
0.0
 36
1.0
 17
0.0
 27
0.0
 37
0.0
 40
119.0810365690287
 41
1.415154749199573
 42
50.0
 43
0.0
 44
0.0
 50
0.0
 51
0.0
 71
     0
 72
   100
 73
     1
 74
     3
 75
     0
 76
     0
 77
     0
 78
     0
281
     0
 65
     1
110
0.0
120
0.0
130
0.0
111
1.0
121
0.0
131
0.0
112
0.0
122
1.0
132
0.0
 79
     0
146
0.0
348
2E66
 60
     3
 61
     5
292
     1
282
     1
141
0.0
142
0.0
 63
   250
361
2EA4
  0
ENDTAB
  0
TABLE
  2
LTYPE
  5
2E3D
330
0
100
AcDbSymbolTable
 70
    48
  0
LTYPE
  5
2E4B
330
2E3D
100
AcDbSymbolTableRecord
100
AcDbLinetypeTableRecord
  2
ByBlock
 70
     0
  3

 72
    65
 73
     0
 40
0.0
  0
LTYPE
  5
2E4C
330
2E3D
100
AcDbSymbolTableRecord
100
AcDbLinetypeTableRecord
  2
ByLayer
 70
     0
  3

 72
    65
 73
     0
 40
0.0
  0
LTYPE
  5
2E4D
330
2E3D
100
AcDbSymbolTableRecord
100
AcDbLinetypeTableRecord
  2
Continuous
 70
     0
  3
Solid line
 72
    65
 73
     0
 40
0.0
  0
LTYPE
  5
2EDB
330
2E3D
100
AcDbSymbolTableRecord
100
AcDbLinetypeTableRecord
  2
CENTER2
 70
     0
  3
Center (.5x) ___ _ ___ _ ___ _ ___ _ ___ _ ___
 72
    65
 73
     4
 40
28.575
 49
19.05
 74
     0
 49
-3.175
 74
     0
 49
3.175
 74
     0
 49
-3.175
 74
     0
  0
LTYPE
  5
2EDC
330
2E3D
100
AcDbSymbolTableRecord
100
AcDbLinetypeTableRecord
  2
CENTER
 70
     0
  3
Center ____ _ ____ _ ____ _ ____ _ ____ _ ____
 72
    65
 73
     4
 40
50.8
 49
31.75
 74
     0
 49
-6.35
 74
     0
 49
6.35
 74
     0
 49
-6.35
 74
     0
  0
LTYPE
  5
2EDD
330
2E3D
100
AcDbSymbolTableRecord
100
AcDbLinetypeTableRecord
  2
DASHDOT
 70
     0
  3
Dash dot __ . __ . __ . __ . __ . __ . __ . __
 72
    65
 73
     4
 40
25.4
 49
12.7
 74
     0
 49
-6.35
 74
     0
 49
0.0
 74
     0
 49
-6.35
 74
     0
  0
LTYPE
  5
2EDE
330
2E3D
100
AcDbSymbolTableRecord
100
AcDbLinetypeTableRecord
  2
CENTERX2
 70
     0
  3
Center (2x) ________  __  ________  __  _____
 72
    65
 73
     4
 40
101.6
 49
63.5
 74
     0
 49
-12.7
 74
     0
 49
12.7
 74
     0
 49
-12.7
 74
     0
  0
LTYPE
  5
2EDF
330
2E3D
100
AcDbSymbolTableRecord
100
AcDbLinetypeTableRecord
  2
DASHDOTX2
 70
     0
  3
Dash dot (2x) ____  .  ____  .  ____  .  ___
 72
    65
 73
     4
 40
50.8
 49
25.4
 74
     0
 49
-12.7
 74
     0
 49
0.0
 74
     0
 49
-12.7
 74
     0
  0
LTYPE
  5
2EE0
330
2E3D
100
AcDbSymbolTableRecord
100
AcDbLinetypeTableRecord
  2
DASHDOT2
 70
     0
  3
Dash dot (.5x) _._._._._._._._._._._._._._._.
 72
    65
 73
     4
 40
12.7
 49
6.35
 74
     0
 49
-3.175
 74
     0
 49
0.0
 74
     0
 49
-3.175
 74
     0
  0
LTYPE
  5
2EE1
330
2E3D
100
AcDbSymbolTableRecord
100
AcDbLinetypeTableRecord
  2
DASHED2
 70
     0
  3
Dashed (.5x) _ _ _ _ _ _ _ _ _ _ _ _ _ _ _ _ _ 
 72
    65
 73
     2
 40
9.524999999999999
 49
6.35
 74
     0
 49
-3.175
 74
     0
  0
LTYPE
  5
2EE2
330
2E3D
100
AcDbSymbolTableRecord
100
AcDbLinetypeTableRecord
  2
DASHED
 70
     0
  3
Dashed __ __ __ __ __ __ __ __ __ __ __ __ __ _
 72
    65
 73
     2
 40
19.05
 49
12.7
 74
     0
 49
-6.35
 74
     0
  0
LTYPE
  5
2EE3
330
2E3D
100
AcDbSymbolTableRecord
100
AcDbLinetypeTableRecord
  2
DIVIDE
 70
     0
  3
Divide ____ . . ____ . . ____ . . ____ . . ____
 72
    65
 73
     6
 40
31.75
 49
12.7
 74
     0
 49
-6.35
 74
     0
 49
0.0
 74
     0
 49
-6.35
 74
     0
 49
0.0
 74
     0
 49
-6.35
 74
     0
  0
LTYPE
  5
2EE4
330
2E3D
100
AcDbSymbolTableRecord
100
AcDbLinetypeTableRecord
  2
DASHEDX2
 70
     0
  3
Dashed (2x) ____  ____  ____  ____  ____  ___
 72
    65
 73
     2
 40
38.09999999999999
 49
25.4
 74
     0
 49
-12.7
 74
     0
  0
LTYPE
  5
2EE5
330
2E3D
100
AcDbSymbolTableRecord
100
AcDbLinetypeTableRecord
  2
DIVIDEX2
 70
     0
  3
Divide (2x) ________  .  .  ________  .  .  _
 72
    65
 73
     6
 40
63.5
 49
25.4
 74
     0
 49
-12.7
 74
     0
 49
0.0
 74
     0
 49
-12.7
 74
     0
 49
0.0
 74
     0
 49
-12.7
 74
     0
  0
LTYPE
  5
2EE6
330
2E3D
100
AcDbSymbolTableRecord
100
AcDbLinetypeTableRecord
  2
DIVIDE2
 70
     0
  3
Divide (.5x) __..__..__..__..__..__..__..__.._
 72
    65
 73
     6
 40
15.875
 49
6.35
 74
     0
 49
-3.175
 74
     0
 49
0.0
 74
     0
 49
-3.175
 74
     0
 49
0.0
 74
     0
 49
-3.175
 74
     0
  0
LTYPE
  5
2EE7
330
2E3D
100
AcDbSymbolTableRecord
100
AcDbLinetypeTableRecord
  2
DOT2
 70
     0
  3
Dot (.5x) ........................................
 72
    65
 73
     2
 40
3.175
 49
0.0
 74
     0
 49
-3.175
 74
     0
  0
LTYPE
  5
2EE8
330
2E3D
100
AcDbSymbolTableRecord
100
AcDbLinetypeTableRecord
  2
DOT
 70
     0
  3
Dot . . . . . . . . . . . . . . . . . . . . . . . .
 72
    65
 73
     2
 40
6.35
 49
0.0
 74
     0
 49
-6.35
 74
     0
  0
LTYPE
  5
2EEA
330
2E3D
100
AcDbSymbolTableRecord
100
AcDbLinetypeTableRecord
  2
DRAINAGE
 70
     0
  3
Drainage ---->---->---->----
 72
    65
 73
     2
 40
10.16
 49
5.08
 74
     2
 75
     0
340
2EE9
 46
2.54
 50
180.0
 44
0.0
 45
0.0
  9
RIGHT_ARROW
 49
5.08
 74
     0
  0
LTYPE
  5
2EEB
330
2E3D
100
AcDbSymbolTableRecord
100
AcDbLinetypeTableRecord
  2
DOTX2
 70
     0
  3
Dot (2x) .  .  .  .  .  .  .  .  .  .  .  .  .  .
 72
    65
 73
     2
 40
12.7
 49
0.0
 74
     0
 49
-12.7
 74
     0
  0
LTYPE
  5
2EED
330
2E3D
100
AcDbSymbolTableRecord
100
AcDbLinetypeTableRecord
  2
FENCELINE1
 70
     0
  3
Fenceline circle ----0-----0----0-----0----0-----0--
 72
    65
 73
     4
 40
36.83
 49
6.35
 74
     0
 49
-2.54
 74
     2
 75
     0
340
2EEC
 46
2.54
 50
0.0
 44
-2.54
 45
0.0
  9
CIRC1
 49
-2.54
 74
     0
 49
25.4
 74
     0
  0
LTYPE
  5
2EEF
330
2E3D
100
AcDbSymbolTableRecord
100
AcDbLinetypeTableRecord
  2
DRAINAGE2
 70
     0
  3
Drainage reversed----<----<----<----
 72
    65
 73
     2
 40
10.16
 49
5.08
 74
     2
 75
     0
340
2EEE
 46
2.54
 50
0.0
 44
0.0
 45
0.0
  9
RIGHT_ARROW
 49
5.08
 74
     0
  0
LTYPE
  5
2EF1
330
2E3D
100
AcDbSymbolTableRecord
100
AcDbLinetypeTableRecord
  2
GAS_LINE
 70
     0
  3
Gas line ----GAS----GAS----GAS----GAS----GAS----GAS--
 72
    65
 73
     3
 40
24.13
 49
12.7
 74
     0
 49
-5.08
 74
     2
 75
     0
340
2EF0
 46
2.54
 50
0.0
 44
-2.54
 45
-1.27
  9
GAS
 49
-6.35
 74
     0
  0
LTYPE
  5
2EF3
330
2E3D
100
AcDbSymbolTableRecord
100
AcDbLinetypeTableRecord
  2
FENCELINE2
 70
     0
  3
Fenceline square ----[]-----[]----[]-----[]----[]---
 72
    65
 73
     4
 40
36.83
 49
6.35
 74
     0
 49
-2.54
 74
     2
 75
     0
340
2EF2
 46
2.54
 50
0.0
 44
-2.54
 45
0.0
  9
BOX
 49
-2.54
 74
     0
 49
25.4
 74
     0
  0
LTYPE
  5
2EF4
330
2E3D
100
AcDbSymbolTableRecord
100
AcDbLinetypeTableRecord
  2
HIDDEN2
 70
     0
  3
Hidden (.5x) _ _ _ _ _ _ _ _ _ _ _ _ _ _ _ _ _ 
 72
    65
 73
     2
 40
4.762499999999999
 49
3.175
 74
     0
 49
-1.5875
 74
     0
  0
LTYPE
  5
2EF5
330
2E3D
100
AcDbSymbolTableRecord
100
AcDbLinetypeTableRecord
  2
HIDDEN
 70
     0
  3
Hidden __ __ __ __ __ __ __ __ __ __ __ __ __ __
 72
    65
 73
     2
 40
9.524999999999999
 49
6.35
 74
     0
 49
-3.175
 74
     0
  0
LTYPE
  5
2EF7
330
2E3D
100
AcDbSymbolTableRecord
100
AcDbLinetypeTableRecord
  2
HOT_WATER_SUPPLY
 70
     0
  3
Hot water supply ---- HW ---- HW ---- HW ----
 72
    65
 73
     3
 40
22.86
 49
12.7
 74
     0
 49
-5.08
 74
     2
 75
     0
340
2EF6
 46
2.54
 50
0.0
 44
-2.54
 45
-1.27
  9
HW
 49
-5.08
 74
     0
  0
LTYPE
  5
2EF8
330
2E3D
100
AcDbSymbolTableRecord
100
AcDbLinetypeTableRecord
  2
HIDDENX2
 70
     0
  3
Hidden (2x) ____ ____ ____ ____ ____ ____ ____ 
 72
    65
 73
     2
 40
19.05
 49
12.7
 74
     0
 49
-6.35
 74
     0
  0
LTYPE
  5
2EF9
330
2E3D
100
AcDbSymbolTableRecord
100
AcDbLinetypeTableRecord
  2
PHANTOM2
 70
     0
  3
Phantom (.5x) ___ _ _ ___ _ _ ___ _ _ ___ _ _
 72
    65
 73
     6
 40
31.75
 49
15.875
 74
     0
 49
-3.175
 74
     0
 49
3.175
 74
     0
 49
-3.175
 74
     0
 49
3.175
 74
     0
 49
-3.175
 74
     0
  0
LTYPE
  5
2EFA
330
2E3D
100
AcDbSymbolTableRecord
100
AcDbLinetypeTableRecord
  2
PHANTOM
 70
     0
  3
Phantom ______  __  __  ______  __  __  ______ 
 72
    65
 73
     6
 40
63.50000000000001
 49
31.75
 74
     0
 49
-6.35
 74
     0
 49
6.35
 74
     0
 49
-6.35
 74
     0
 49
6.35
 74
     0
 49
-6.35
 74
     0
  0
LTYPE
  5
2EFC
330
2E3D
100
AcDbSymbolTableRecord
100
AcDbLinetypeTableRecord
  2
TRACKS
 70
     0
  3
Tracks -|-|-|-|-|-|-|-|-|-|-|-|-|-|-|-|-|-|-|-|-|-|-|-|-
 72
    65
 73
     2
 40
7.62
 49
3.81
 74
     2
 75
     0
340
2EFB
 46
6.35
 50
0.0
 44
0.0
 45
0.0
  9
TRACK1
 49
3.81
 74
     0
  0
LTYPE
  5
2EFD
330
2E3D
100
AcDbSymbolTableRecord
100
AcDbLinetypeTableRecord
  2
PHANTOMX2
 70
     0
  3
Phantom (2x) ____________    ____    ____   _
 72
    65
 73
     6
 40
127.0
 49
63.5
 74
     0
 49
-12.7
 74
     0
 49
12.7
 74
     0
 49
-12.7
 74
     0
 49
12.7
 74
     0
 49
-12.7
 74
     0
  0
LTYPE
  5
2F00
330
2E3D
100
AcDbSymbolTableRecord
100
AcDbLinetypeTableRecord
  2
ZIGZAG
 70
     0
  3
Zig zag /\/\/\/\/\/\/\/\/\/\/\/\/\/\/\/\/\/\/\/\/\/\/\/
 72
    65
 73
     4
 40
20.32254
 49
0.00254
 74
     0
 49
-5.08
 74
     2
 75
     0
340
2EFE
 46
5.08
 50
0.0
 44
-5.08
 45
0.0
  9
ZIG
 49
-10.16
 74
     2
 75
     0
340
2EFF
 46
5.08
 50
180.0
 44
5.08
 45
0.0
  9
ZIG
 49
-5.08
 74
     0
  0
LTYPE
  5
2F01
330
2E3D
100
AcDbSymbolTableRecord
100
AcDbLinetypeTableRecord
  2
ACAD_ISO03W100
 70
     0
  3
ISO dash space __    __    __    __    __    __
 72
    65
 73
     2
 40
30.0
 49
12.0
 74
     0
 49
-18.0
 74
     0
  0
LTYPE
  5
2F02
330
2E3D
100
AcDbSymbolTableRecord
100
AcDbLinetypeTableRecord
  2
ACAD_ISO02W100
 70
     0
  3
ISO dash __ __ __ __ __ __ __ __ __ __ __ __ __
 72
    65
 73
     2
 40
15.0
 49
12.0
 74
     0
 49
-3.0
 74
     0
  0
LTYPE
  5
2F03
330
2E3D
100
AcDbSymbolTableRecord
100
AcDbLinetypeTableRecord
  2
ACAD_ISO05W100
 70
     0
  3
ISO long-dash double-dot ____ .. ____ .. ____ . 
 72
    65
 73
     6
 40
33.0
 49
24.0
 74
     0
 49
-3.0
 74
     0
 49
0.0
 74
     0
 49
-3.0
 74
     0
 49
0.0
 74
     0
 49
-3.0
 74
     0
  0
LTYPE
  5
2F04
330
2E3D
100
AcDbSymbolTableRecord
100
AcDbLinetypeTableRecord
  2
ACAD_ISO04W100
 70
     0
  3
ISO long-dash dot ____ . ____ . ____ . ____ . _
 72
    65
 73
     4
 40
30.0
 49
24.0
 74
     0
 49
-3.0
 74
     0
 49
0.0
 74
     0
 49
-3.0
 74
     0
  0
LTYPE
  5
2F05
330
2E3D
100
AcDbSymbolTableRecord
100
AcDbLinetypeTableRecord
  2
ACAD_ISO07W100
 70
     0
  3
ISO dot . . . . . . . . . . . . . . . . . . . . 
 72
    65
 73
     2
 40
3.0
 49
0.0
 74
     0
 49
-3.0
 74
     0
  0
LTYPE
  5
2F06
330
2E3D
100
AcDbSymbolTableRecord
100
AcDbLinetypeTableRecord
  2
ACAD_ISO06W100
 70
     0
  3
ISO long-dash triple-dot ____ ... ____ ... ____
 72
    65
 73
     8
 40
36.0
 49
24.0
 74
     0
 49
-3.0
 74
     0
 49
0.0
 74
     0
 49
-3.0
 74
     0
 49
0.0
 74
     0
 49
-3.0
 74
     0
 49
0.0
 74
     0
 49
-3.0
 74
     0
  0
LTYPE
  5
2F07
330
2E3D
100
AcDbSymbolTableRecord
100
AcDbLinetypeTableRecord
  2
ACAD_ISO09W100
 70
     0
  3
ISO long-dash double-short-dash ____ __ __ ____
 72
    65
 73
     6
 40
45.0
 49
24.0
 74
     0
 49
-3.0
 74
     0
 49
6.0
 74
     0
 49
-3.0
 74
     0
 49
6.0
 74
     0
 49
-3.0
 74
     0
  0
LTYPE
  5
2F08
330
2E3D
100
AcDbSymbolTableRecord
100
AcDbLinetypeTableRecord
  2
ACAD_ISO08W100
 70
     0
  3
ISO long-dash short-dash ____ __ ____ __ ____ _
 72
    65
 73
     4
 40
36.0
 49
24.0
 74
     0
 49
-3.0
 74
     0
 49
6.0
 74
     0
 49
-3.0
 74
     0
  0
LTYPE
  5
2F09
330
2E3D
100
AcDbSymbolTableRecord
100
AcDbLinetypeTableRecord
  2
ACAD_ISO11W100
 70
     0
  3
ISO double-dash dot __ __ . __ __ . __ __ . __ _
 72
    65
 73
     6
 40
33.0
 49
12.0
 74
     0
 49
-3.0
 74
     0
 49
12.0
 74
     0
 49
-3.0
 74
     0
 49
0.0
 74
     0
 49
-3.0
 74
     0
  0
LTYPE
  5
2F0A
330
2E3D
100
AcDbSymbolTableRecord
100
AcDbLinetypeTableRecord
  2
ACAD_ISO10W100
 70
     0
  3
ISO dash dot __ . __ . __ . __ . __ . __ . __ . 
 72
    65
 73
     4
 40
18.0
 49
12.0
 74
     0
 49
-3.0
 74
     0
 49
0.0
 74
     0
 49
-3.0
 74
     0
  0
LTYPE
  5
2F0B
330
2E3D
100
AcDbSymbolTableRecord
100
AcDbLinetypeTableRecord
  2
ACAD_ISO13W100
 70
     0
  3
ISO double-dash double-dot __ __ . . __ __ . . _
 72
    65
 73
     8
 40
36.0
 49
12.0
 74
     0
 49
-3.0
 74
     0
 49
12.0
 74
     0
 49
-3.0
 74
     0
 49
0.0
 74
     0
 49
-3.0
 74
     0
 49
0.0
 74
     0
 49
-3.0
 74
     0
  0
LTYPE
  5
2F0C
330
2E3D
100
AcDbSymbolTableRecord
100
AcDbLinetypeTableRecord
  2
ACAD_ISO12W100
 70
     0
  3
ISO dash double-dot __ . . __ . . __ . . __ . . 
 72
    65
 73
     6
 40
21.0
 49
12.0
 74
     0
 49
-3.0
 74
     0
 49
0.0
 74
     0
 49
-3.0
 74
     0
 49
0.0
 74
     0
 49
-3.0
 74
     0
  0
LTYPE
  5
2F0D
330
2E3D
100
AcDbSymbolTableRecord
100
AcDbLinetypeTableRecord
  2
ACAD_ISO15W100
 70
     0
  3
ISO double-dash triple-dot __ __ . . . __ __ . .
 72
    65
 73
    10
 40
39.0
 49
12.0
 74
     0
 49
-3.0
 74
     0
 49
12.0
 74
     0
 49
-3.0
 74
     0
 49
0.0
 74
     0
 49
-3.0
 74
     0
 49
0.0
 74
     0
 49
-3.0
 74
     0
 49
0.0
 74
     0
 49
-3.0
 74
     0
  0
LTYPE
  5
2F0E
330
2E3D
100
AcDbSymbolTableRecord
100
AcDbLinetypeTableRecord
  2
ACAD_ISO14W100
 70
     0
  3
ISO dash triple-dot __ . . . __ . . . __ . . . _
 72
    65
 73
     8
 40
24.0
 49
12.0
 74
     0
 49
-3.0
 74
     0
 49
0.0
 74
     0
 49
-3.0
 74
     0
 49
0.0
 74
     0
 49
-3.0
 74
     0
 49
0.0
 74
     0
 49
-3.0
 74
     0
  0
LTYPE
  5
2F0F
330
2E3D
100
AcDbSymbolTableRecord
100
AcDbLinetypeTableRecord
  2
BORDER
 70
     0
  3
Border __ __ . __ __ . __ __ . __ __ . __ __ .
 72
    65
 73
     6
 40
44.45
 49
12.7
 74
     0
 49
-6.35
 74
     0
 49
12.7
 74
     0
 49
-6.35
 74
     0
 49
0.0
 74
     0
 49
-6.35
 74
     0
  0
LTYPE
  5
2F12
330
2E3D
100
AcDbSymbolTableRecord
100
AcDbLinetypeTableRecord
  2
BATTING
 70
     0
  3
Batting SSSSSSSSSSSSSSSSSSSSSSSSSSSSSSSSSSSSSSSSSSSSSSS
 72
    65
 73
     4
 40
10.16254
 49
0.00254
 74
     0
 49
-2.54
 74
     2
 75
     0
340
2F10
 46
2.54
 50
0.0
 44
-2.54
 45
0.0
  9
BAT
 49
-5.08
 74
     2
 75
     0
340
2F11
 46
2.54
 50
180.0
 44
2.54
 45
0.0
  9
BAT
 49
-2.54
 74
     0
  0
LTYPE
  5
2F13
330
2E3D
100
AcDbSymbolTableRecord
100
AcDbLinetypeTableRecord
  2
BORDERX2
 70
     0
  3
Border (2x) ____  ____  .  ____  ____  .  ___
 72
    65
 73
     6
 40
88.89999999999999
 49
25.4
 74
     0
 49
-12.7
 74
     0
 49
25.4
 74
     0
 49
-12.7
 74
     0
 49
0.0
 74
     0
 49
-12.7
 74
     0
  0
LTYPE
  5
2F14
330
2E3D
100
AcDbSymbolTableRecord
100
AcDbLinetypeTableRecord
  2
BORDER2
 70
     0
  3
Border (.5x) __.__.__.__.__.__.__.__.__.__.__.
 72
    65
 73
     6
 40
22.225
 49
6.35
 74
     0
 49
-3.175
 74
     0
 49
6.35
 74
     0
 49
-3.175
 74
     0
 49
0.0
 74
     0
 49
-3.175
 74
     0
  0
ENDTAB
  0
TABLE
  2
LAYER
  5
2E3B
330
0
100
AcDbSymbolTable
 70
    21
  0
LAYER
  5
2E48
330
2E3B
100
AcDbSymbolTableRecord
100
AcDbLayerTableRecord
  2
0
 70
     0
 62
    18
420
        0
  6
Continuous
370
    25
390
2E47
347
2E7D
348
0
1001
QCAD
1000
collapsed:1
  0
LAYER
  5
2F15
330
2E3B
100
AcDbSymbolTableRecord
100
AcDbLayerTableRecord
  2
0 ... Frame
 70
     0
 62
    18
420
        0
  6
Continuous
370
    50
390
2E47
347
2E7D
348
0
  0
LAYER
  5
2F16
330
2E3B
100
AcDbSymbolTableRecord
100
AcDbLayerTableRecord
  2
Bottom Stand ... Dimensions
 70
     0
 62
   176
420
      128
  6
Continuous
370
    13
390
2E47
347
2E7D
348
0
  0
LAYER
  5
2F17
330
2E3B
100
AcDbSymbolTableRecord
100
AcDbLayerTableRecord
  2
Side Stand ... Hole Hatch
 70
     0
 62
   254
420
 13487312
  6
Continuous
370
    25
390
2E47
347
2E7D
348
0
  0
LAYER
  5
2F18
330
2E3B
100
AcDbSymbolTableRecord
100
AcDbLayerTableRecord
  2
Bottom Stand ... Dimensions ... Circle
 70
     0
 62
    18
420
        0
  6
Continuous
370
    13
390
2E47
347
2E7D
348
0
  0
LAYER
  5
2F19
330
2E3B
100
AcDbSymbolTableRecord
100
AcDbLayerTableRecord
  2
Bottom Stand ... Label
 70
     0
 62
   176
420
      128
  6
Continuous
370
    25
390
2E47
347
2E7D
348
0
  0
LAYER
  5
2F1A
330
2E3B
100
AcDbSymbolTableRecord
100
AcDbLayerTableRecord
  2
Bottom Stand ... Construction
 70
     0
 62
   176
420
      128
  6
ACAD_ISO10W100
370
    13
390
2E47
347
2E7D
348
0
  0
LAYER
  5
2F1B
330
2E3B
100
AcDbSymbolTableRecord
100
AcDbLayerTableRecord
  2
Motor Bridge ... Dimension
 70
     0
 62
    18
420
        0
  6
Continuous
370
    13
390
2E47
347
2E7D
348
0
  0
LAYER
  5
2F1C
330
2E3B
100
AcDbSymbolTableRecord
100
AcDbLayerTableRecord
  2
Side Stand
 70
     0
 62
    18
420
        0
  6
Continuous
370
    50
390
2E47
347
2E7D
348
0
1001
QCAD
1000
collapsed:1
  0
LAYER
  5
2F1D
330
2E3B
100
AcDbSymbolTableRecord
100
AcDbLayerTableRecord
  2
Motor Bridge ... Construction
 70
     0
 62
   176
420
      128
  6
ACAD_ISO10W100
370
    13
390
2E47
347
2E7D
348
0
  0
LAYER
  5
2F1E
330
2E3B
100
AcDbSymbolTableRecord
100
AcDbLayerTableRecord
  2
Side Stand ... Label
 70
     0
 62
    18
420
        0
  6
Continuous
370
    25
390
2E47
347
2E7D
348
0
  0
LAYER
  5
2F1F
330
2E3B
100
AcDbSymbolTableRecord
100
AcDbLayerTableRecord
  2
0 ... Background
 70
     0
 62
    18
420
        0
  6
Continuous
370
    35
390
2E47
347
2E7D
348
0
  0
LAYER
  5
2F20
330
2E3B
100
AcDbSymbolTableRecord
100
AcDbLayerTableRecord
  2
Starlight
 70
     1
 62
   -18
420
        0
  6
Continuous
370
    25
390
2E47
347
2E7D
348
0
1001
QCAD
1000
collapsed:1
  0
LAYER
  5
2F21
330
2E3B
100
AcDbSymbolTableRecord
100
AcDbLayerTableRecord
  2
Bottom Stand
 70
     0
 62
   176
420
      128
  6
Continuous
370
    50
390
2E47
347
2E7D
348
0
1001
QCAD
1000
collapsed:1
  0
LAYER
  5
2F22
330
2E3B
100
AcDbSymbolTableRecord
100
AcDbLayerTableRecord
  2
Motor Bridge
 70
     0
 62
    18
420
        0
  6
Continuous
370
    50
390
2E47
347
2E7D
348
0
1001
QCAD
1000
collapsed:1
  0
LAYER
  5
2F23
330
2E3B
100
AcDbSymbolTableRecord
100
AcDbLayerTableRecord
  2
Side Stand ... Construction
 70
     0
 62
    18
420
        0
  6
ACAD_ISO04W100
370
    13
390
2E47
347
2E7D
348
0
1001
QCAD
1000
collapsed:1
  0
LAYER
  5
2F24
330
2E3B
100
AcDbSymbolTableRecord
100
AcDbLayerTableRecord
  2
Bottom Stand ... side frames
 70
     0
 62
    18
420
        0
  6
Continuous
370
    25
390
2E47
347
2E7D
348
0
  0
LAYER
  5
2F25
330
2E3B
100
AcDbSymbolTableRecord
100
AcDbLayerTableRecord
  2
Defpoints
 70
     0
 62
     7
420
 16777215
  6
Continuous
290
     0
370
    -3
390
2E47
347
2E7D
348
0
  0
LAYER
  5
2F26
330
2E3B
100
AcDbSymbolTableRecord
100
AcDbLayerTableRecord
  2
Side Stand ... Dimensions
 70
     0
 62
    18
420
        0
  6
Continuous
370
    13
390
2E47
347
2E7D
348
0
  0
LAYER
  5
2F27
330
2E3B
100
AcDbSymbolTableRecord
100
AcDbLayerTableRecord
  2
Bottom Stand ... Dimensions ... LED Holes
 70
     0
 62
    18
420
        0
  6
Continuous
370
    25
390
2E47
347
2E7D
348
0
  0
LAYER
  5
2F28
330
2E3B
100
AcDbSymbolTableRecord
100
AcDbLayerTableRecord
  2
Bottom Stand ... side frames ... holes
 70
     0
 62
   176
420
      128
  6
Continuous
370
    25
390
2E47
347
2E7D
348
0
  0
ENDTAB
  0
TABLE
  2
STYLE
  5
2E3C
330
0
100
AcDbSymbolTable
 70
    28
  0
STYLE
  5
2E49
330
2E3C
100
AcDbSymbolTableRecord
100
AcDbTextStyleTableRecord
  2
Standard
 70
     0
 40
0.0
 41
1.0
 50
0.0
 71
     0
 42
0.2
  3
txt
  4

  0
STYLE
  5
2ED9
330
2E3C
100
AcDbSymbolTableRecord
100
AcDbTextStyleTableRecord
  2
QCADDimTextStyle
 70
     0
 40
0.0
 41
1.0
 50
0.0
 71
     0
 42
0.2
  3

  4

  0
STYLE
  5
2EE9
330
2E3C
100
AcDbSymbolTableRecord
100
AcDbTextStyleTableRecord
  2
textstyle0
 70
     0
 40
0.0
 41
1.0
 50
0.0
 71
     0
 42
0.2
  3
qcadshp.shx
  4

  0
STYLE
  5
2EEC
330
2E3C
100
AcDbSymbolTableRecord
100
AcDbTextStyleTableRecord
  2
textstyle1
 70
     0
 40
0.0
 41
1.0
 50
0.0
 71
     0
 42
0.2
  3
ltypeshp.shx
  4

  0
STYLE
  5
2EEE
330
2E3C
100
AcDbSymbolTableRecord
100
AcDbTextStyleTableRecord
  2
textstyle2
 70
     0
 40
0.0
 41
1.0
 50
0.0
 71
     0
 42
0.2
  3
qcadshp.shx
  4

  0
STYLE
  5
2EF0
330
2E3C
100
AcDbSymbolTableRecord
100
AcDbTextStyleTableRecord
  2
textstyle3
 70
     0
 40
0.0
 41
1.0
 50
0.0
 71
     0
 42
0.2
  3
STANDARD
  4

  0
STYLE
  5
2EF2
330
2E3C
100
AcDbSymbolTableRecord
100
AcDbTextStyleTableRecord
  2
textstyle4
 70
     0
 40
0.0
 41
1.0
 50
0.0
 71
     0
 42
0.2
  3
ltypeshp.shx
  4

  0
STYLE
  5
2EF6
330
2E3C
100
AcDbSymbolTableRecord
100
AcDbTextStyleTableRecord
  2
textstyle5
 70
     0
 40
0.0
 41
1.0
 50
0.0
 71
     0
 42
0.2
  3
STANDARD
  4

  0
STYLE
  5
2EFB
330
2E3C
100
AcDbSymbolTableRecord
100
AcDbTextStyleTableRecord
  2
textstyle6
 70
     0
 40
0.0
 41
1.0
 50
0.0
 71
     0
 42
0.2
  3
ltypeshp.shx
  4

  0
STYLE
  5
2EFE
330
2E3C
100
AcDbSymbolTableRecord
100
AcDbTextStyleTableRecord
  2
textstyle7
 70
     0
 40
0.0
 41
1.0
 50
0.0
 71
     0
 42
0.2
  3
ltypeshp.shx
  4

  0
STYLE
  5
2EFF
330
2E3C
100
AcDbSymbolTableRecord
100
AcDbTextStyleTableRecord
  2
textstyle8
 70
     0
 40
0.0
 41
1.0
 50
0.0
 71
     0
 42
0.2
  3
ltypeshp.shx
  4

  0
STYLE
  5
2F10
330
2E3C
100
AcDbSymbolTableRecord
100
AcDbTextStyleTableRecord
  2
textstyle9
 70
     0
 40
0.0
 41
1.0
 50
0.0
 71
     0
 42
0.2
  3
ltypeshp.shx
  4

  0
STYLE
  5
2F11
330
2E3C
100
AcDbSymbolTableRecord
100
AcDbTextStyleTableRecord
  2
textstyle10
 70
     0
 40
0.0
 41
1.0
 50
0.0
 71
     0
 42
0.2
  3
ltypeshp.shx
  4

  0
STYLE
  5
2F2B
330
2E3C
100
AcDbSymbolTableRecord
100
AcDbTextStyleTableRecord
  2
textstyle11
 70
     0
 40
0.0
 41
1.0
 50
0.0
 71
     0
 42
0.2
  3
Standard
  4

1001
ACAD
1000
Standard
1071
        0
  0
STYLE
  5
2F2C
330
2E3C
100
AcDbSymbolTableRecord
100
AcDbTextStyleTableRecord
  2
textstyle12
 70
     0
 40
0.0
 41
1.0
 50
0.0
 71
     0
 42
0.2
  3
Standard
  4

1001
ACAD
1000
Standard
1071
        0
  0
STYLE
  5
2F2D
330
2E3C
100
AcDbSymbolTableRecord
100
AcDbTextStyleTableRecord
  2
textstyle13
 70
     0
 40
0.0
 41
1.0
 50
0.0
 71
     0
 42
0.2
  3

  4

1001
ACAD
1000
Arial
1071
 33554432
  0
STYLE
  5
2F2E
330
2E3C
100
AcDbSymbolTableRecord
100
AcDbTextStyleTableRecord
  2
textstyle14
 70
     0
 40
0.0
 41
1.0
 50
0.0
 71
     0
 42
0.2
  3

  4

1001
ACAD
1000
Arial
1071
 33554432
  0
STYLE
  5
2F2F
330
2E3C
100
AcDbSymbolTableRecord
100
AcDbTextStyleTableRecord
  2
textstyle15
 70
     0
 40
0.0
 41
1.0
 50
0.0
 71
     0
 42
0.2
  3

  4

1001
ACAD
1000
Arial
1071
 33554432
  0
STYLE
  5
2F30
330
2E3C
100
AcDbSymbolTableRecord
100
AcDbTextStyleTableRecord
  2
textstyle16
 70
     0
 40
0.0
 41
1.0
 50
0.0
 71
     0
 42
0.2
  3

  4

1001
ACAD
1000
Arial
1071
 33554432
  0
STYLE
  5
2F31
330
2E3C
100
AcDbSymbolTableRecord
100
AcDbTextStyleTableRecord
  2
textstyle17
 70
     0
 40
0.0
 41
1.0
 50
0.0
 71
     0
 42
0.2
  3
Standard
  4

1001
ACAD
1000
Standard
1071
        0
  0
STYLE
  5
2F32
330
2E3C
100
AcDbSymbolTableRecord
100
AcDbTextStyleTableRecord
  2
textstyle18
 70
     0
 40
0.0
 41
1.0
 50
0.0
 71
     0
 42
0.2
  3
Standard
  4

1001
ACAD
1000
Standard
1071
        0
  0
STYLE
  5
2F33
330
2E3C
100
AcDbSymbolTableRecord
100
AcDbTextStyleTableRecord
  2
textstyle19
 70
     0
 40
0.0
 41
1.0
 50
0.0
 71
     0
 42
0.2
  3
Standard
  4

1001
ACAD
1000
Standard
1071
        0
  0
STYLE
  5
2F34
330
2E3C
100
AcDbSymbolTableRecord
100
AcDbTextStyleTableRecord
  2
textstyle20
 70
     0
 40
0.0
 41
1.0
 50
0.0
 71
     0
 42
0.2
  3
Standard
  4

1001
ACAD
1000
Standard
1071
        0
  0
STYLE
  5
2F35
330
2E3C
100
AcDbSymbolTableRecord
100
AcDbTextStyleTableRecord
  2
textstyle21
 70
     0
 40
0.0
 41
1.0
 50
0.0
 71
     0
 42
0.2
  3
Standard
  4

1001
ACAD
1000
Standard
1071
        0
  0
STYLE
  5
2F36
330
2E3C
100
AcDbSymbolTableRecord
100
AcDbTextStyleTableRecord
  2
textstyle22
 70
     0
 40
0.0
 41
1.0
 50
0.0
 71
     0
 42
0.2
  3
Standard
  4

1001
ACAD
1000
Standard
1071
        0
  0
STYLE
  5
2F37
330
2E3C
100
AcDbSymbolTableRecord
100
AcDbTextStyleTableRecord
  2
textstyle23
 70
     0
 40
0.0
 41
1.0
 50
0.0
 71
     0
 42
0.2
  3
Standard
  4

1001
ACAD
1000
Standard
1071
        0
  0
STYLE
  5
2F38
330
2E3C
100
AcDbSymbolTableRecord
100
AcDbTextStyleTableRecord
  2
textstyle24
 70
     0
 40
0.0
 41
1.0
 50
0.0
 71
     0
 42
0.2
  3
Standard
  4

1001
ACAD
1000
Standard
1071
        0
  0
STYLE
  5
2F39
330
2E3C
100
AcDbSymbolTableRecord
100
AcDbTextStyleTableRecord
  2
textstyle25
 70
     0
 40
0.0
 41
1.0
 50
0.0
 71
     0
 42
0.2
  3
Standard
  4

1001
ACAD
1000
Standard
1071
        0
  0
ENDTAB
  0
TABLE
  2
VIEW
  5
2E3E
330
0
100
AcDbSymbolTable
 70
     0
  0
ENDTAB
  0
TABLE
  2
UCS
  5
2E3F
330
0
100
AcDbSymbolTable
 70
     0
  0
ENDTAB
  0
TABLE
  2
APPID
  5
2E41
330
0
100
AcDbSymbolTable
 70
     2
  0
APPID
  5
2E4A
330
2E41
100
AcDbSymbolTableRecord
100
AcDbRegAppTableRecord
  2
ACAD
 70
     0
  0
APPID
  5
2EA5
330
2E41
100
AcDbSymbolTableRecord
100
AcDbRegAppTableRecord
  2
QCAD
 70
     0
  0
ENDTAB
  0
TABLE
  2
DIMSTYLE
  5
2E42
330
0
100
AcDbSymbolTable
 70
     2
100
AcDbDimStyleTable
  0
DIMSTYLE
105
2E5E
330
2E42
100
AcDbSymbolTableRecord
100
AcDbDimStyleTableRecord
  2
Standard
 70
     0
178
     0
340
2E49
  0
DIMSTYLE
105
2EDA
102
{ACAD_REACTORS
330
2172
330
2A7A
330
2B23
330
2B24
330
217C
330
2B26
330
23D6
330
2B27
330
21E8
330
2B2C
330
23D0
330
2A79
330
2C37
330
2C3E
330
2B2D
330
2B2E
330
23D7
330
2A73
330
2D47
330
2A74
330
2A75
330
2A7D
330
2B2F
330
2B30
330
2B31
330
2B32
330
2B33
330
23D8
330
2B34
330
23D9
330
2B35
330
23DD
330
2B36
330
2553
330
2B39
330
2555
330
2B3A
330
2557
330
2B3B
330
2558
330
2B3C
330
2A7B
330
2B3D
330
2A7C
330
2B3E
330
2B42
330
2B43
330
2C3F
330
2C40
102
}
330
2E42
100
AcDbSymbolTableRecord
100
AcDbDimStyleTableRecord
  2
QCADDimStyle
 70
     0
 41
2.5
 42
0.625
 44
1.25
 73
     0
 77
     1
140
2.5
147
0.625
178
     0
340
2ED9
  0
ENDTAB
  0
TABLE
  2
BLOCK_RECORD
  5
2E3A
330
0
100
AcDbSymbolTable
 70
     0
  0
BLOCK_RECORD
  5
2E56
330
2E3A
100
AcDbSymbolTableRecord
100
AcDbBlockTableRecord
  2
*Model_Space
340
2E59
 70
     0
280
     1
281
     0
  0
BLOCK_RECORD
  5
2E52
330
2E3A
100
AcDbSymbolTableRecord
100
AcDbBlockTableRecord
  2
*Paper_Space
340
2E55
 70
     0
280
     1
281
     0
  0
ENDTAB
  0
ENDSEC
  0
SECTION
  2
BLOCKS
  0
BLOCK
  5
2E57
330
2E56
100
AcDbEntity
  8
0
100
AcDbBlockBegin
  2
*Model_Space
 70
     0
 10
0.0
 20
0.0
 30
0.0
  3
*Model_Space
  1

  0
ENDBLK
  5
2E58
330
2E56
100
AcDbEntity
  8
0
100
AcDbBlockEnd
  0
BLOCK
  5
2E53
330
2E52
100
AcDbEntity
 67
     1
  8
0
100
AcDbBlockBegin
  2
*Paper_Space
 70
     0
 10
0.0
 20
0.0
 30
0.0
  3
*Paper_Space
  1

  0
ENDBLK
  5
2E54
330
2E52
100
AcDbEntity
 67
     1
  8
0
100
AcDbBlockEnd
  0
ENDSEC
  0
SECTION
  2
ENTITIES
  0
HATCH
  5
23E9
330
2E56
100
AcDbEntity
  8
Side Stand ... Hole Hatch
100
AcDbHatch
 10
0.0
 20
0.0
 30
0.0
210
0.0
220
0.0
230
1.0
  2
SOLID
 70
     1
 71
     0
 91
        1
 92
        0
 93
        4
 72
     1
 10
-58.0
 20
95.0
 11
-58.0
 21
110.0
 72
     1
 10
-58.0
 20
110.0
 11
-51.99999999999997
 21
110.0000000000001
 72
     1
 10
-51.99999999999997
 20
110.0000000000001
 11
-51.99999999999998
 21
95.00000000000001
 72
     1
 10
-51.99999999999998
 20
95.00000000000001
 11
-58.0
 21
95.0
 97
        0
 75
     0
 76
     1
 98
        0
  0
HATCH
  5
2C51
330
2E56
100
AcDbEntity
  8
Side Stand ... Hole Hatch
100
AcDbHatch
 10
0.0
 20
0.0
 30
0.0
210
0.0
220
0.0
230
1.0
  2
SOLID
 70
     1
 71
     0
 91
        1
 92
        0
 93
        4
 72
     1
 10
35.0
 20
94.99999999999994
 11
35.0
 21
110.0
 72
     1
 10
35.0
 20
110.0
 11
39.0
 21
110.0
 72
     1
 10
39.0
 20
110.0
 11
39.0
 21
94.99999999999994
 72
     1
 10
39.0
 20
94.99999999999994
 11
35.0
 21
94.99999999999994
 97
        0
 75
     0
 76
     1
 98
        0
  0
HATCH
  5
2C55
330
2E56
100
AcDbEntity
  8
Side Stand ... Hole Hatch
100
AcDbHatch
 10
0.0
 20
0.0
 30
0.0
210
0.0
220
0.0
230
1.0
  2
SOLID
 70
     1
 71
     0
 91
        1
 92
        0
 93
        4
 72
     1
 10
43.0
 20
94.99999999999997
 11
43.00000000000002
 21
110.0
 72
     1
 10
43.00000000000002
 20
110.0
 11
47.0
 21
109.91374976537
 72
     1
 10
47.0
 20
109.91374976537
 11
47.0
 21
94.99999999999997
 72
     1
 10
47.0
 20
94.99999999999997
 11
43.0
 21
94.99999999999997
 97
        0
 75
     0
 76
     1
 98
        0
  0
HATCH
  5
2B44
330
2E56
100
AcDbEntity
  8
Side Stand ... Hole Hatch
100
AcDbHatch
 10
0.0
 20
0.0
 30
0.0
210
0.0
220
0.0
230
1.0
  2
SOLID
 70
     1
 71
     0
 91
        1
 92
        0
 93
        4
 72
     1
 10
-58.0
 20
-20.0
 11
-58.0
 21
-4.999999999999998
 72
     1
 10
-58.0
 20
-4.999999999999998
 11
-51.99999999999997
 21
-4.999999999999899
 72
     1
 10
-51.99999999999997
 20
-4.999999999999899
 11
-51.99999999999998
 21
-19.99999999999999
 72
     1
 10
-51.99999999999998
 20
-19.99999999999999
 11
-58.0
 21
-20.0
 97
        0
 75
     0
 76
     1
 98
        0
  0
LINE
  5
77A
330
2E56
100
AcDbEntity
  8
0 ... Frame
100
AcDbLine
 10
-104.3883049785171
 20
-157.2442015809443
 30
0.0
 11
88.6116950214829
 21
-157.2442015809443
 31
0.0
  0
LINE
  5
77B
330
2E56
100
AcDbEntity
  8
0 ... Frame
100
AcDbLine
 10
-104.3883049785171
 20
-157.2442015809443
 30
0.0
 11
-104.3883049785171
 21
122.7557984190557
 31
0.0
  0
HATCH
  5
2C46
330
2E56
100
AcDbEntity
  8
Side Stand ... Hole Hatch
100
AcDbHatch
 10
0.0
 20
0.0
 30
0.0
210
0.0
220
0.0
230
1.0
  2
SOLID
 70
     1
 71
     0
 91
        1
 92
        0
 93
        8
 72
     1
 10
14.0
 20
94.99999999999997
 11
14.0
 21
104.0
 72
     1
 10
14.0
 20
104.0
 11
16.00000000000003
 21
104.0
 72
     1
 10
16.00000000000003
 20
104.0
 11
16.00000000000002
 21
110.0
 72
     1
 10
16.00000000000002
 20
110.0
 11
8.000000000000021
 21
110.0
 72
     1
 10
8.000000000000021
 20
110.0
 11
8.000000000000021
 21
104.0
 72
     1
 10
8.000000000000021
 20
104.0
 11
9.750000000000028
 21
104.0000000000001
 72
     1
 10
9.750000000000028
 20
104.0000000000001
 11
10.0
 21
94.99999999999999
 72
     1
 10
10.0
 20
94.99999999999999
 11
14.0
 21
94.99999999999997
 97
        0
 75
     0
 76
     1
 98
        0
  0
HATCH
  5
2B45
330
2E56
100
AcDbEntity
  8
Side Stand ... Hole Hatch
100
AcDbHatch
 10
0.0
 20
0.0
 30
0.0
210
0.0
220
0.0
230
1.0
  2
SOLID
 70
     1
 71
     0
 91
        1
 92
        0
 93
        8
 72
     1
 10
14.25
 20
-20.00000000000001
 11
14.25
 21
-11.0
 72
     1
 10
14.25
 20
-11.0
 11
16.00000000000003
 21
-11.0
 72
     1
 10
16.00000000000003
 20
-11.0
 11
16.00000000000002
 21
-4.999999999999998
 72
     1
 10
16.00000000000002
 20
-4.999999999999998
 11
8.000000000000021
 21
-4.999999999999998
 72
     1
 10
8.000000000000021
 20
-4.999999999999998
 11
8.000000000000021
 21
-11.0
 72
     1
 10
8.000000000000021
 20
-11.0
 11
9.750000000000028
 21
-10.9999999999999
 72
     1
 10
9.750000000000028
 20
-10.9999999999999
 11
9.750000000000021
 21
-20.0
 72
     1
 10
9.750000000000021
 20
-20.0
 11
14.25
 21
-20.00000000000001
 97
        0
 75
     0
 76
     1
 98
        0
  0
LINE
  5
77E
330
2E56
100
AcDbEntity
  8
0 ... Frame
100
AcDbLine
 10
88.6116950214829
 20
-157.2442015809443
 30
0.0
 11
88.6116950214829
 21
122.7557984190557
 31
0.0
  0
LINE
  5
77F
330
2E56
100
AcDbEntity
  8
0 ... Frame
100
AcDbLine
 10
88.6116950214829
 20
122.7557984190557
 30
0.0
 11
-104.3883049785171
 21
122.7557984190557
 31
0.0
  0
LINE
  5
1CB5
330
2E56
100
AcDbEntity
  8
0 ... Background
  6
Continuous
100
AcDbLine
 10
-6.468315515132232
 20
-157.1791430960326
 30
0.0
 11
-6.468315515132232
 21
-152.1791430960326
 31
0.0
  0
LINE
  5
1CB6
330
2E56
100
AcDbEntity
  8
0 ... Background
  6
Continuous
100
AcDbLine
 10
-6.468315515132232
 20
-147.1791430960326
 30
0.0
 11
88.53168448486777
 21
-147.1791430960326
 31
0.0
  0
LINE
  5
1CB7
330
2E56
100
AcDbEntity
  8
0 ... Background
  6
Continuous
100
AcDbLine
 10
-81.46831551513223
 20
-137.1791430960326
 30
0.0
 11
88.53168448486777
 21
-137.1791430960326
 31
0.0
  0
LINE
  5
1CB8
330
2E56
100
AcDbEntity
  8
0 ... Background
  6
Continuous
100
AcDbLine
 10
-81.46831551513223
 20
-127.1791430960326
 30
0.0
 11
88.53168448486777
 21
-127.1791430960326
 31
0.0
  0
LINE
  5
1CB9
330
2E56
100
AcDbEntity
  8
0 ... Background
  6
Continuous
100
AcDbLine
 10
-81.46831551513223
 20
-157.1791430960326
 30
0.0
 11
-81.46831551513223
 21
-127.1791430960326
 31
0.0
  0
LINE
  5
1CBA
330
2E56
100
AcDbEntity
  8
0 ... Background
  6
Continuous
100
AcDbLine
 10
-6.468315515132232
 20
-157.1791430960326
 30
0.0
 11
-6.468315515132232
 21
-137.1791430960326
 31
0.0
  0
LINE
  5
1CBB
330
2E56
100
AcDbEntity
  8
0 ... Background
  6
Continuous
100
AcDbLine
 10
68.53168448486777
 20
-157.1791430960326
 30
0.0
 11
68.53168448486777
 21
-147.1791430960326
 31
0.0
  0
MTEXT
  5
1CBC
330
2E56
100
AcDbEntity
  8
0 ... Background
  6
Continuous
370
    25
100
AcDbMText
 10
-4.468315515132232
 20
-139.1791430960326
 30
0.0
 40
1.8
 41
200.0
 46
0.0
 71
     1
 72
     1
  1
Notes:\~\~F,G = 15x50x150 mm, Sakura
  7
textstyle11
 73
     1
 44
1.0
  0
LINE
  5
1CBD
330
2E56
100
AcDbEntity
  8
0 ... Background
  6
Continuous
100
AcDbLine
 10
68.53168448486777
 20
-137.1791430960326
 30
0.0
 11
68.53168448486777
 21
-127.1791430960326
 31
0.0
  0
LINE
  5
1CBE
330
2E56
100
AcDbEntity
  8
0 ... Background
  6
Continuous
100
AcDbLine
 10
38.53168448486777
 20
-137.1791430960326
 30
0.0
 11
38.53168448486777
 21
-127.1791430960326
 31
0.0
  0
LINE
  5
1CBF
330
2E56
100
AcDbEntity
  8
0 ... Background
  6
Continuous
100
AcDbLine
 10
-6.468315515132232
 20
-137.1791430960326
 30
0.0
 11
-6.468315515132232
 21
-127.1791430960326
 31
0.0
  0
LINE
  5
1CC0
330
2E56
100
AcDbEntity
  8
0 ... Background
  6
Continuous
100
AcDbLine
 10
-49.46831551513223
 20
-137.1791430960326
 30
0.0
 11
-49.46831551513223
 21
-127.1791430960326
 31
0.0
  0
LINE
  5
1CC1
330
2E56
100
AcDbEntity
  8
0 ... Background
  6
Continuous
100
AcDbLine
 10
-81.46831551513223
 20
-121.1791430960326
 30
0.0
 11
88.53168448486777
 21
-121.1791430960326
 31
0.0
  0
LINE
  5
1CC2
330
2E56
100
AcDbEntity
  8
0 ... Background
  6
Continuous
100
AcDbLine
 10
-65.46831551513223
 20
-127.1791430960326
 30
0.0
 11
-65.46831551513223
 21
-121.1791430960326
 31
0.0
  0
LINE
  5
1CC3
330
2E56
100
AcDbEntity
  8
0 ... Background
  6
Continuous
100
AcDbLine
 10
-81.46831551513223
 20
-127.1791430960326
 30
0.0
 11
-81.46831551513223
 21
-121.1791430960326
 31
0.0
  0
LINE
  5
1CC4
330
2E56
100
AcDbEntity
  8
0 ... Background
  6
Continuous
100
AcDbLine
 10
-49.46831551513223
 20
-127.1791430960326
 30
0.0
 11
-49.46831551513223
 21
-121.1791430960326
 31
0.0
  0
LINE
  5
1CC5
330
2E56
100
AcDbEntity
  8
0 ... Background
  6
Continuous
100
AcDbLine
 10
38.53168448486777
 20
-127.1791430960326
 30
0.0
 11
38.53168448486777
 21
-121.1791430960326
 31
0.0
  0
MTEXT
  5
1CC6
330
2E56
100
AcDbEntity
  8
0 ... Background
  6
Continuous
370
    25
100
AcDbMText
 10
-80.46831551513223
 20
-123.1791430960326
 30
0.0
 40
1.8
 41
100.0
 46
0.0
 71
     1
 72
     1
  1
Itemref: F,G
  7
textstyle12
 73
     1
 44
1.0
  0
MTEXT
  5
21EF
330
2E56
100
AcDbEntity
  8
Side Stand ... Label
100
AcDbMText
 10
-13.94109293525429
 20
63.03957395500403
 30
0.0
 40
6.0
 41
0.0
 46
0.0
 71
     1
 72
     1
  1
F
  7
textstyle13
 73
     1
 44
1.0
  0
MTEXT
  5
2B01
330
2E56
100
AcDbEntity
  8
Side Stand ... Label
100
AcDbMText
 10
-13.94109293525429
 20
-51.96042604499592
 30
0.0
 40
6.0
 41
0.0
 46
0.0
 71
     1
 72
     1
  1
G
  7
textstyle14
 73
     1
 44
1.0
  0
MTEXT
  5
21F2
330
2E56
100
AcDbEntity
  8
Side Stand ... Label
100
AcDbMText
 10
-13.91670513817546
 20
105.4436610595548
 30
0.0
 40
6.0
 41
0.0
 46
0.0
 71
     1
 72
     1
  1
F
  7
textstyle15
 73
     1
 44
1.0
  0
MTEXT
  5
2B02
330
2E56
100
AcDbEntity
  8
Side Stand ... Label
100
AcDbMText
 10
-13.9167051381755
 20
-8.954008742826197
 30
0.0
 40
6.0
 41
0.0
 46
0.0
 71
     1
 72
     1
  1
G
  7
textstyle16
 73
     1
 44
1.0
  0
MTEXT
  5
1CC7
330
2E56
100
AcDbEntity
  8
0 ... Background
  6
Continuous
370
    25
100
AcDbMText
 10
-64.46831551513223
 20
-123.1791430960326
 30
0.0
 40
1.8
 41
100.0
 46
0.0
 71
     1
 72
     1
  1
Quantity: 2
  7
textstyle17
 73
     1
 44
1.0
  0
LINE
  5
21DC
330
2E56
100
AcDbEntity
  8
Side Stand ... Dimensions
100
AcDbLine
 10
16.00000000000003
 20
104.0
 30
0.0
 11
14.0
 21
104.0
 31
0.0
  0
LINE
  5
2B03
330
2E56
100
AcDbEntity
  8
Side Stand ... Dimensions
100
AcDbLine
 10
16.00000000000003
 20
-11.0
 30
0.0
 11
14.25
 21
-11.0
 31
0.0
  0
LINE
  5
21B1
330
2E56
100
AcDbEntity
  8
Side Stand ... Dimensions
100
AcDbLine
 10
-51.99999999999998
 20
95.00000000000001
 30
0.0
 11
-51.99999999999998
 21
110.0
 31
0.0
  0
LINE
  5
2B04
330
2E56
100
AcDbEntity
  8
Side Stand ... Dimensions
100
AcDbLine
 10
-51.99999999999998
 20
-19.99999999999999
 30
0.0
 11
-51.99999999999998
 21
-4.999999999999998
 31
0.0
  0
LINE
  5
23E5
330
2E56
100
AcDbEntity
  8
Side Stand ... Dimensions
100
AcDbLine
 10
-58.0
 20
95.0
 30
0.0
 11
-58.0
 21
110.0
 31
0.0
  0
LINE
  5
2B05
330
2E56
100
AcDbEntity
  8
Side Stand ... Dimensions
100
AcDbLine
 10
-58.0
 20
-20.0
 30
0.0
 11
-58.0
 21
-4.999999999999998
 31
0.0
  0
LINE
  5
21DD
330
2E56
100
AcDbEntity
  8
Side Stand ... Dimensions
100
AcDbLine
 10
14.0
 20
95.0
 30
0.0
 11
14.0
 21
104.0
 31
0.0
  0
LINE
  5
2C47
330
2E56
100
AcDbEntity
  8
Side Stand ... Dimensions
100
AcDbLine
 10
39.0
 20
95.0
 30
0.0
 11
39.0
 21
110.0
 31
0.0
  0
LINE
  5
2C49
330
2E56
100
AcDbEntity
  8
Side Stand ... Dimensions
100
AcDbLine
 10
47.0
 20
95.0
 30
0.0
 11
47.0
 21
110.0
 31
0.0
  0
LINE
  5
2B06
330
2E56
100
AcDbEntity
  8
Side Stand ... Dimensions
100
AcDbLine
 10
14.25
 20
-20.0
 30
0.0
 11
14.25
 21
-11.0
 31
0.0
  0
LINE
  5
21DE
330
2E56
100
AcDbEntity
  8
Side Stand ... Dimensions
100
AcDbLine
 10
10.0
 20
104.0000000000001
 30
0.0
 11
10.0
 21
95.00000000000013
 31
0.0
  0
LINE
  5
2C48
330
2E56
100
AcDbEntity
  8
Side Stand ... Dimensions
100
AcDbLine
 10
35.0
 20
110.0
 30
0.0
 11
35.0
 21
95.0
 31
0.0
  0
LINE
  5
2C4A
330
2E56
100
AcDbEntity
  8
Side Stand ... Dimensions
100
AcDbLine
 10
43.00000000000001
 20
110.0
 30
0.0
 11
43.0
 21
95.0
 31
0.0
  0
LINE
  5
2B07
330
2E56
100
AcDbEntity
  8
Side Stand ... Dimensions
100
AcDbLine
 10
9.750000000000021
 20
-10.9999999999999
 30
0.0
 11
9.750000000000021
 21
-19.99999999999987
 31
0.0
  0
LINE
  5
21DF
330
2E56
100
AcDbEntity
  8
Side Stand ... Dimensions
100
AcDbLine
 10
10.0
 20
104.0000000000001
 30
0.0
 11
8.000000000000028
 21
104.0
 31
0.0
  0
LINE
  5
2B08
330
2E56
100
AcDbEntity
  8
Side Stand ... Dimensions
100
AcDbLine
 10
9.750000000000021
 20
-10.9999999999999
 30
0.0
 11
8.000000000000028
 21
-11.0
 31
0.0
  0
LINE
  5
21E0
330
2E56
100
AcDbEntity
  8
Side Stand ... Dimensions
100
AcDbLine
 10
8.000000000000021
 20
110.0
 30
0.0
 11
8.000000000000021
 21
104.0
 31
0.0
  0
LINE
  5
2B09
330
2E56
100
AcDbEntity
  8
Side Stand ... Dimensions
100
AcDbLine
 10
8.000000000000021
 20
-4.999999999999998
 30
0.0
 11
8.000000000000021
 21
-11.0
 31
0.0
  0
LINE
  5
21E1
330
2E56
100
AcDbEntity
  8
Side Stand ... Dimensions
100
AcDbLine
 10
16.00000000000002
 20
110.0
 30
0.0
 11
16.00000000000002
 21
104.0
 31
0.0
  0
LINE
  5
2B0A
330
2E56
100
AcDbEntity
  8
Side Stand ... Dimensions
100
AcDbLine
 10
16.00000000000002
 20
-4.999999999999998
 30
0.0
 11
16.00000000000002
 21
-11.0
 31
0.0
  0
MTEXT
  5
1CC9
330
2E56
100
AcDbEntity
  8
0 ... Background
  6
Continuous
370
    25
100
AcDbMText
 10
39.53168448486777
 20
-123.1791430960326
 30
0.0
 40
1.8
 41
100.0
 46
0.0
 71
     1
 72
     1
  1
Article No./Reference
  7
textstyle18
 73
     1
 44
1.0
  0
LINE
  5
2B0B
330
2E56
100
AcDbEntity
  8
Side Stand
100
AcDbLine
 10
12.0
 20
-20.0
 30
0.0
 11
14.25
 21
-20.0
 31
0.0
  0
LINE
  5
21E3
330
2E56
100
AcDbEntity
  8
Side Stand
100
AcDbLine
 10
10.0
 20
94.99999999999997
 30
0.0
 11
14.0
 21
94.99999999999996
 31
0.0
  0
LINE
  5
2B0C
330
2E56
100
AcDbEntity
  8
Side Stand
100
AcDbLine
 10
9.750000000000021
 20
-20.0
 30
0.0
 11
12.00000000000002
 21
-20.0
 31
0.0
  0
MTEXT
  5
1CCA
330
2E56
100
AcDbEntity
  8
0 ... Background
  6
Continuous
370
    25
100
AcDbMText
 10
-80.46831551513223
 20
-129.1791430960325
 30
0.0
 40
1.8
 41
100.0
 46
0.0
 71
     1
 72
     1
  1
Designed by:
  7
textstyle19
 73
     1
 44
1.0
  0
MTEXT
  5
1CCB
330
2E56
100
AcDbEntity
  8
0 ... Background
  6
Continuous
370
    25
100
AcDbMText
 10
-48.46831551513223
 20
-129.1791430960326
 30
0.0
 40
1.8
 41
100.0
 46
0.0
 71
     1
 72
     1
  1
Checked by:
  7
textstyle20
 73
     1
 44
1.0
  0
MTEXT
  5
1CCC
330
2E56
100
AcDbEntity
  8
0 ... Background
  6
Continuous
370
    25
100
AcDbMText
 10
-4.468315515132234
 20
-129.1791430960326
 30
0.0
 40
1.8
 41
100.0
 46
0.0
 71
     1
 72
     1
  1
Approved:\P\P
  7
textstyle21
 73
     1
 44
1.0
  0
MTEXT
  5
1CCD
330
2E56
100
AcDbEntity
  8
0 ... Background
  6
Continuous
370
    25
100
AcDbMText
 10
-4.468315515132234
 20
-148.1791430960326
 30
0.0
 40
1.8
 41
100.0
 46
0.0
 71
     1
 72
     1
  1
Filename:\P\Psuntracker2r4 panel-stand-v1.1.dxf
  7
textstyle22
 73
     1
 44
1.0
  0
LINE
  5
23CF
330
2E56
100
AcDbEntity
  8
Side Stand ... Construction
100
AcDbLine
 10
12.00000000000002
 20
112.0
 30
0.0
 11
12.0
 21
35.0
 31
0.0
  0
LINE
  5
2C42
330
2E56
100
AcDbEntity
  8
Side Stand ... Construction
100
AcDbLine
 10
37.0
 20
112.0
 30
0.0
 11
37.0
 21
55.0
 31
0.0
  0
LINE
  5
2D46
330
2E56
100
AcDbEntity
  8
Side Stand ... Construction
100
AcDbLine
 10
55.0
 20
55.0
 30
0.0
 11
37.0
 21
55.0
 31
0.0
  0
LINE
  5
2C43
330
2E56
100
AcDbEntity
  8
Side Stand ... Construction
100
AcDbLine
 10
45.0
 20
112.0
 30
0.0
 11
45.0
 21
55.0
 31
0.0
  0
LINE
  5
2B0D
330
2E56
100
AcDbEntity
  8
Side Stand ... Construction
100
AcDbLine
 10
12.00000000000002
 20
-2.999999999999998
 30
0.0
 11
12.0
 21
-79.99999999999999
 31
0.0
  0
LINE
  5
2B41
330
2E56
100
AcDbEntity
  8
Side Stand ... Construction
100
AcDbLine
 10
0.000000000000008
 20
-36.0
 30
0.0
 11
-0.0000000000000021
 21
-80.0
 31
0.0
  0
LINE
  5
23E4
330
2E56
100
AcDbEntity
  8
Side Stand ... Construction
100
AcDbLine
 10
-55.0
 20
112.0
 30
0.0
 11
-55.0
 21
60.00000000000001
 31
0.0
  0
LINE
  5
2B0E
330
2E56
100
AcDbEntity
  8
Side Stand ... Construction
100
AcDbLine
 10
-55.0
 20
-2.999999999999998
 30
0.0
 11
-55.0
 21
-54.99999999999999
 31
0.0
  0
MTEXT
  5
1CCE
330
2E56
100
AcDbEntity
  8
0 ... Background
  6
Continuous
370
    25
100
AcDbMText
 10
39.53168448486777
 20
-129.1791430960326
 30
0.0
 40
1.8
 41
100.0
 46
0.0
 71
     1
 72
     1
  1
Date: 10/14/2019
  7
textstyle23
 73
     1
 44
1.0
  0
MTEXT
  5
1CCF
330
2E56
100
AcDbEntity
  8
0 ... Background
  6
Continuous
370
    25
100
AcDbMText
 10
69.53168448486777
 20
-129.1791430960327
 30
0.0
 40
1.8
 41
100.0
 46
0.0
 71
     1
 72
     1
  1
Scale: 1:1
  7
textstyle24
 73
     1
 44
1.0
  0
MTEXT
  5
1CD1
330
2E56
100
AcDbEntity
  8
0 ... Background
  6
Continuous
370
    25
100
AcDbMText
 10
69.22013448486776
 20
-149.3681350960324
 30
0.0
 40
1.8
 41
100.0
 46
0.0
 71
     1
 72
     1
  1
Edition: v1.0\P\PSheet: 1
  7
textstyle25
 73
     1
 44
0.8
  0
LINE
  5
215B
330
2E56
100
AcDbEntity
  8
Side Stand
100
AcDbLine
 10
-80.0
 20
35.0
 30
0.0
 11
70.0
 21
35.0
 31
0.0
  0
LINE
  5
2B0F
330
2E56
100
AcDbEntity
  8
Side Stand
100
AcDbLine
 10
-80.0
 20
-79.99999999999999
 30
0.0
 11
70.0
 21
-79.99999999999999
 31
0.0
  0
LINE
  5
215D
330
2E56
100
AcDbEntity
  8
Side Stand
100
AcDbLine
 10
70.0
 20
68.0
 30
0.0
 11
70.0
 21
85.0
 31
0.0
  0
LINE
  5
2A72
330
2E56
100
AcDbEntity
  8
Side Stand
100
AcDbLine
 10
70.0
 20
35.0
 30
0.0
 11
70.0
 21
52.0
 31
0.0
  0
LINE
  5
2A76
330
2E56
100
AcDbEntity
  8
Side Stand
100
AcDbLine
 10
55.0
 20
52.0
 30
0.0
 11
70.0
 21
52.0
 31
0.0
  0
LINE
  5
2A77
330
2E56
100
AcDbEntity
  8
Side Stand
100
AcDbLine
 10
55.0
 20
68.0
 30
0.0
 11
70.0
 21
68.0
 31
0.0
  0
LINE
  5
2A78
330
2E56
100
AcDbEntity
  8
Side Stand
100
AcDbLine
 10
55.0
 20
52.0
 30
0.0
 11
55.0
 21
68.0
 31
0.0
  0
LINE
  5
2B10
330
2E56
100
AcDbEntity
  8
Side Stand
100
AcDbLine
 10
70.0
 20
-47.0
 30
0.0
 11
70.0
 21
-30.0
 31
0.0
  0
LINE
  5
2B11
330
2E56
100
AcDbEntity
  8
Side Stand
100
AcDbLine
 10
70.0
 20
-79.99999999999999
 30
0.0
 11
70.0
 21
-62.99999999999999
 31
0.0
  0
LINE
  5
2B12
330
2E56
100
AcDbEntity
  8
Side Stand
100
AcDbLine
 10
55.0
 20
-62.99999999999999
 30
0.0
 11
70.0
 21
-62.99999999999999
 31
0.0
  0
LINE
  5
2B13
330
2E56
100
AcDbEntity
  8
Side Stand
100
AcDbLine
 10
55.0
 20
-47.0
 30
0.0
 11
70.0
 21
-47.0
 31
0.0
  0
LINE
  5
2B14
330
2E56
100
AcDbEntity
  8
Side Stand
100
AcDbLine
 10
55.0
 20
-62.99999999999999
 30
0.0
 11
55.0
 21
-47.0
 31
0.0
  0
LINE
  5
215F
330
2E56
100
AcDbEntity
  8
Side Stand
100
AcDbLine
 10
-80.0
 20
34.99999999999999
 30
0.0
 11
-80.0
 21
85.0
 31
0.0
  0
LINE
  5
2B15
330
2E56
100
AcDbEntity
  8
Side Stand
100
AcDbLine
 10
-80.0
 20
-80.0
 30
0.0
 11
-80.0
 21
-30.0
 31
0.0
  0
LINE
  5
21A4
330
2E56
100
AcDbEntity
  8
Side Stand
100
AcDbLine
 10
-80.0
 20
95.0
 30
0.0
 11
-80.0
 21
110.0
 31
0.0
  0
LINE
  5
2B16
330
2E56
100
AcDbEntity
  8
Side Stand
100
AcDbLine
 10
-80.0
 20
-20.0
 30
0.0
 11
-80.0
 21
-5.0
 31
0.0
  0
LINE
  5
21A5
330
2E56
100
AcDbEntity
  8
Side Stand
100
AcDbLine
 10
70.0
 20
95.0
 30
0.0
 11
70.0
 21
110.0
 31
0.0
  0
LINE
  5
2B17
330
2E56
100
AcDbEntity
  8
Side Stand
100
AcDbLine
 10
70.0
 20
-20.0
 30
0.0
 11
70.0
 21
-4.999999999999998
 31
0.0
  0
LINE
  5
2161
330
2E56
100
AcDbEntity
  8
Side Stand
100
AcDbLine
 10
-80.0
 20
85.0
 30
0.0
 11
70.0
 21
85.0
 31
0.0
  0
LINE
  5
2B18
330
2E56
100
AcDbEntity
  8
Side Stand
100
AcDbLine
 10
-80.0
 20
-30.0
 30
0.0
 11
70.0
 21
-30.0
 31
0.0
  0
LINE
  5
21BB
330
2E56
100
AcDbEntity
  8
Side Stand
100
AcDbLine
 10
-80.0
 20
95.0
 30
0.0
 11
-58.0
 21
94.99999999999991
 31
0.0
  0
LINE
  5
2B19
330
2E56
100
AcDbEntity
  8
Side Stand
100
AcDbLine
 10
-80.0
 20
-20.0
 30
0.0
 11
-58.0
 21
-20.00000000000009
 31
0.0
  0
LINE
  5
21BD
330
2E56
100
AcDbEntity
  8
Side Stand
100
AcDbLine
 10
-51.99999999999998
 20
95.00000000000001
 30
0.0
 11
10.0
 21
95.00000000000003
 31
0.0
  0
LINE
  5
2B1A
330
2E56
100
AcDbEntity
  8
Side Stand
100
AcDbLine
 10
-51.99999999999998
 20
-19.99999999999999
 30
0.0
 11
9.75000000000002
 21
-20.0
 31
0.0
  0
LINE
  5
21C5
330
2E56
100
AcDbEntity
  8
Side Stand
100
AcDbLine
 10
-51.99999999999997
 20
110.0000000000001
 30
0.0
 11
8.000000000000021
 21
110.0
 31
0.0
  0
LINE
  5
2B1B
330
2E56
100
AcDbEntity
  8
Side Stand
100
AcDbLine
 10
-51.99999999999997
 20
-4.999999999999899
 30
0.0
 11
8.000000000000021
 21
-4.999999999999998
 31
0.0
  0
LINE
  5
23E7
330
2E56
100
AcDbEntity
  8
Side Stand
100
AcDbLine
 10
-80.0
 20
110.0
 30
0.0
 11
-58.0
 21
110.0
 31
0.0
  0
LINE
  5
2B1C
330
2E56
100
AcDbEntity
  8
Side Stand
100
AcDbLine
 10
-80.0
 20
-5.0
 30
0.0
 11
-58.0
 21
-4.999999999999998
 31
0.0
  0
CIRCLE
  5
216C
330
2E56
100
AcDbEntity
  8
Side Stand
100
AcDbCircle
 10
12.00000000000002
 20
44.99999999999996
 30
0.0
 40
2.0
  0
CIRCLE
  5
2B1D
330
2E56
100
AcDbEntity
  8
Side Stand
100
AcDbCircle
 10
12.00000000000002
 20
-70.00000000000004
 30
0.0
 40
2.0
  0
CIRCLE
  5
23D4
330
2E56
100
AcDbEntity
  8
Side Stand
100
AcDbCircle
 10
12.00000000000008
 20
75.00000000000001
 30
0.0
 40
2.0
  0
CIRCLE
  5
2C3B
330
2E56
100
AcDbEntity
  8
Side Stand
100
AcDbCircle
 10
37.0
 20
55.0
 30
0.0
 40
2.0
  0
CIRCLE
  5
2C3C
330
2E56
100
AcDbEntity
  8
Side Stand
100
AcDbCircle
 10
45.0
 20
55.0
 30
0.0
 40
2.0
  0
CIRCLE
  5
2B1E
330
2E56
100
AcDbEntity
  8
Side Stand
100
AcDbCircle
 10
12.00000000000008
 20
-39.99999999999999
 30
0.0
 40
2.0
  0
CIRCLE
  5
216D
330
2E56
100
AcDbEntity
  8
Side Stand
100
AcDbCircle
 10
-55.0
 20
60.0
 30
0.0
 40
3.25
  0
CIRCLE
  5
2B1F
330
2E56
100
AcDbEntity
  8
Side Stand
100
AcDbCircle
 10
-55.0
 20
-55.0
 30
0.0
 40
3.25
  0
CIRCLE
  5
2554
330
2E56
100
AcDbEntity
  8
Side Stand
100
AcDbCircle
 10
0.0
 20
41.0
 30
0.0
 40
3.25
  0
CIRCLE
  5
2B20
330
2E56
100
AcDbEntity
  8
Side Stand
100
AcDbCircle
 10
0.0
 20
-36.0
 30
0.0
 40
3.25
  0
CIRCLE
  5
216E
330
2E56
100
AcDbEntity
  8
Side Stand
100
AcDbCircle
 10
12.00000000000002
 20
44.99999999999996
 30
0.0
 40
4.0
  0
CIRCLE
  5
2B21
330
2E56
100
AcDbEntity
  8
Side Stand
100
AcDbCircle
 10
12.00000000000002
 20
-70.00000000000004
 30
0.0
 40
4.0
  0
CIRCLE
  5
23D5
330
2E56
100
AcDbEntity
  8
Side Stand
100
AcDbCircle
 10
12.00000000000008
 20
75.00000000000001
 30
0.0
 40
4.0
  0
CIRCLE
  5
2B22
330
2E56
100
AcDbEntity
  8
Side Stand
100
AcDbCircle
 10
12.00000000000008
 20
-39.99999999999999
 30
0.0
 40
4.0
  0
DIMENSION
  5
2172
330
2E56
100
AcDbEntity
  8
Bottom Stand ... Dimensions
100
AcDbDimension
280
     0
 10
-45.0
 20
60.00000000000003
 30
0.0
 11
-46.875
 21
72.50000000000001
 31
0.0
 70
    32
 71
     5
 42
-1.0
 73
     0
 74
     0
 75
     0
  3
QCADDimStyle
100
AcDbAlignedDimension
 13
-55.00000000000002
 23
60.00000000000003
 33
0.0
 14
-55.0
 24
85.0
 34
0.0
 50
90.0
100
AcDbRotatedDimension
1001
ACAD
1000
DSTYLE
1002
{
1070
    49
1040
1.0
1070
   290
1070
     0
1070
   279
1070
     2
1070
    41
1040
2.5
1070
    79
1070
     2
1070
   176
1070
     0
1070
   177
1070
     0
1070
   178
1070
     0
1070
    44
1040
1.25
1070
    42
1040
0.625
1070
   147
1040
0.625
1070
   140
1040
2.5
1070
    78
1070
     8
1002
}
  0
DIMENSION
  5
2A7A
330
2E56
100
AcDbEntity
  8
Bottom Stand ... Dimensions
100
AcDbDimension
280
     0
 10
-88.0
 20
35.00000000000005
 30
0.0
 11
-89.875
 21
60.00000000000003
 31
0.0
 70
    32
 71
     5
 42
-1.0
 73
     0
 74
     0
 75
     0
  3
QCADDimStyle
100
AcDbAlignedDimension
 13
-80.0
 23
35.00000000000005
 33
0.0
 14
-80.0
 24
85.0
 34
0.0
 50
90.0
100
AcDbRotatedDimension
1001
ACAD
1000
DSTYLE
1002
{
1070
    49
1040
1.0
1070
   290
1070
     0
1070
   279
1070
     2
1070
    41
1040
2.5
1070
    79
1070
     2
1070
   176
1070
     0
1070
   177
1070
     0
1070
   178
1070
     0
1070
    44
1040
1.25
1070
    42
1040
0.625
1070
   147
1040
0.625
1070
   140
1040
2.5
1070
    78
1070
     8
1002
}
  0
DIMENSION
  5
2B23
330
2E56
100
AcDbEntity
  8
Bottom Stand ... Dimensions
100
AcDbDimension
280
     0
 10
-45.00000000000001
 20
-55.00000000000006
 30
0.0
 11
-46.87500000000001
 21
-42.50000000000004
 31
0.0
 70
    32
 71
     5
 42
-1.0
 73
     0
 74
     0
 75
     0
  3
QCADDimStyle
100
AcDbAlignedDimension
 13
-55.00000000000002
 23
-55.00000000000006
 33
0.0
 14
-55.00000000000003
 24
-30.00000000000002
 34
0.0
 50
90.0
100
AcDbRotatedDimension
1001
ACAD
1000
DSTYLE
1002
{
1070
    49
1040
1.0
1070
   290
1070
     0
1070
   279
1070
     2
1070
    41
1040
2.5
1070
    79
1070
     2
1070
   176
1070
     0
1070
   177
1070
     0
1070
   178
1070
     0
1070
    44
1040
1.25
1070
    42
1040
0.625
1070
   147
1040
0.625
1070
   140
1040
2.5
1070
    78
1070
     8
1002
}
  0
DIMENSION
  5
2B24
330
2E56
100
AcDbEntity
  8
Bottom Stand ... Dimensions
100
AcDbDimension
280
     0
 10
-88.0
 20
-79.99999999999996
 30
0.0
 11
-89.875
 21
-54.99999999999999
 31
0.0
 70
    32
 71
     5
 42
-1.0
 73
     0
 74
     0
 75
     0
  3
QCADDimStyle
100
AcDbAlignedDimension
 13
-80.00000000000001
 23
-79.99999999999996
 33
0.0
 14
-80.0
 24
-30.00000000000003
 34
0.0
 50
90.0
100
AcDbRotatedDimension
1001
ACAD
1000
DSTYLE
1002
{
1070
    49
1040
1.0
1070
   290
1070
     0
1070
   279
1070
     2
1070
    41
1040
2.5
1070
    79
1070
     2
1070
   176
1070
     0
1070
   177
1070
     0
1070
   178
1070
     0
1070
    44
1040
1.25
1070
    42
1040
0.625
1070
   147
1040
0.625
1070
   140
1040
2.5
1070
    78
1070
     8
1002
}
  0
LINE
  5
23DC
330
2E56
100
AcDbEntity
  8
Side Stand ... Construction
100
AcDbLine
 10
-80.0
 20
60.00000000000003
 30
0.0
 11
60.0
 21
60.0
 31
0.0
  0
LINE
  5
2B25
330
2E56
100
AcDbEntity
  8
Side Stand ... Construction
100
AcDbLine
 10
-80.0
 20
-54.99999999999997
 30
0.0
 11
60.0
 21
-55.0
 31
0.0
  0
DIMENSION
  5
217C
330
2E56
100
AcDbEntity
  8
Bottom Stand ... Dimensions
100
AcDbDimension
280
     0
 10
12.0
 20
44.99999999999995
 30
0.0
 11
18.16210040364941
 21
41.08528317590212
 31
0.0
 70
   164
 71
     5
 42
-1.0
 73
     0
 74
     0
 75
     0
  3
QCADDimStyle
100
AcDbRadialDimension
 15
14.71214470114481
 25
42.05988586615207
 35
0.0
 40
0.0
1001
ACAD
1000
DSTYLE
1002
{
1070
    41
1040
0.18
1070
    44
1040
0.18
1070
    42
1040
0.0625
1070
   147
1040
0.09
1070
   144
1040
2.0
1070
    77
1070
     0
1070
    73
1070
     1
1070
   279
1070
     2
1070
   340
1005
0
1070
   140
1040
0.18
1002
}
  0
DIMENSION
  5
2B26
330
2E56
100
AcDbEntity
  8
Bottom Stand ... Dimensions
100
AcDbDimension
280
     0
 10
11.99999999999999
 20
-70.00000000000006
 30
0.0
 11
18.1621004036494
 21
-73.9147168240979
 31
0.0
 70
   164
 71
     5
 42
-1.0
 73
     0
 74
     0
 75
     0
  3
QCADDimStyle
100
AcDbRadialDimension
 15
14.71214470114481
 25
-72.94011413384791
 35
0.0
 40
0.0
1001
ACAD
1000
DSTYLE
1002
{
1070
    41
1040
0.18
1070
    44
1040
0.18
1070
    42
1040
0.0625
1070
   147
1040
0.09
1070
   144
1040
2.0
1070
    77
1070
     0
1070
    73
1070
     1
1070
   279
1070
     2
1070
   340
1005
0
1070
   140
1040
0.18
1002
}
  0
DIMENSION
  5
23D6
330
2E56
100
AcDbEntity
  8
Bottom Stand ... Dimensions
100
AcDbDimension
280
     0
 10
12.00000000000006
 20
75.00000000000006
 30
0.0
 11
18.16210040364947
 21
71.08528317590223
 31
0.0
 70
   164
 71
     5
 42
-1.0
 73
     0
 74
     0
 75
     0
  3
QCADDimStyle
100
AcDbRadialDimension
 15
14.71214470114487
 25
72.05988586615214
 35
0.0
 40
0.0
1001
ACAD
1000
DSTYLE
1002
{
1070
    41
1040
0.18
1070
    44
1040
0.18
1070
    42
1040
0.0625
1070
   147
1040
0.09
1070
   144
1040
2.0
1070
    77
1070
     0
1070
    73
1070
     1
1070
   279
1070
     2
1070
   340
1005
0
1070
   140
1040
0.18
1002
}
  0
DIMENSION
  5
2B27
330
2E56
100
AcDbEntity
  8
Bottom Stand ... Dimensions
100
AcDbDimension
280
     0
 10
12.00000000000006
 20
-39.99999999999994
 30
0.0
 11
18.16210040364946
 21
-43.91471682409777
 31
0.0
 70
   164
 71
     5
 42
-1.0
 73
     0
 74
     0
 75
     0
  3
QCADDimStyle
100
AcDbRadialDimension
 15
14.71214470114487
 25
-42.94011413384786
 35
0.0
 40
0.0
1001
ACAD
1000
DSTYLE
1002
{
1070
    41
1040
0.18
1070
    44
1040
0.18
1070
    42
1040
0.0625
1070
   147
1040
0.09
1070
   144
1040
2.0
1070
    77
1070
     0
1070
    73
1070
     1
1070
   279
1070
     2
1070
   340
1005
0
1070
   140
1040
0.18
1002
}
  0
LINE
  5
21BF
330
2E56
100
AcDbEntity
  8
Side Stand
100
AcDbLine
 10
-58.0
 20
110.0
 30
0.0
 11
-51.99999999999997
 21
110.0000000000001
 31
0.0
  0
LINE
  5
2B28
330
2E56
100
AcDbEntity
  8
Side Stand
100
AcDbLine
 10
-58.0
 20
-4.999999999999998
 30
0.0
 11
-51.99999999999997
 21
-4.999999999999899
 31
0.0
  0
LINE
  5
23E6
330
2E56
100
AcDbEntity
  8
Side Stand
100
AcDbLine
 10
-58.00000000000001
 20
94.99999999999991
 30
0.0
 11
-51.99999999999998
 21
95.00000000000001
 31
0.0
  0
LINE
  5
2B29
330
2E56
100
AcDbEntity
  8
Side Stand
100
AcDbLine
 10
-58.00000000000001
 20
-20.00000000000009
 30
0.0
 11
-51.99999999999998
 21
-19.99999999999999
 31
0.0
  0
LINE
  5
21E4
330
2E56
100
AcDbEntity
  8
Side Stand
100
AcDbLine
 10
8.000000000000021
 20
110.0
 30
0.0
 11
12.00000000000002
 21
110.0
 31
0.0
  0
LINE
  5
2B2A
330
2E56
100
AcDbEntity
  8
Side Stand
100
AcDbLine
 10
8.000000000000021
 20
-4.999999999999998
 30
0.0
 11
12.00000000000002
 21
-4.999999999999998
 31
0.0
  0
LINE
  5
21E5
330
2E56
100
AcDbEntity
  8
Side Stand
100
AcDbLine
 10
12.00000000000002
 20
110.0
 30
0.0
 11
16.00000000000002
 21
110.0
 31
0.0
  0
LINE
  5
2B2B
330
2E56
100
AcDbEntity
  8
Side Stand
100
AcDbLine
 10
12.00000000000002
 20
-4.999999999999998
 30
0.0
 11
16.00000000000002
 21
-4.999999999999998
 31
0.0
  0
DIMENSION
  5
21E8
330
2E56
100
AcDbEntity
  8
Bottom Stand ... Dimensions
100
AcDbDimension
280
     0
 10
0.0
 20
104.0
 30
0.0
 11
-1.875
 21
107.0
 31
0.0
 70
    32
 71
     5
 42
-1.0
 73
     0
 74
     0
 75
     0
  3
QCADDimStyle
100
AcDbAlignedDimension
 13
8.000000000000028
 23
104.0
 33
0.0
 14
8.000000000000028
 24
110.0
 34
0.0
 50
90.0
100
AcDbRotatedDimension
1001
ACAD
1000
DSTYLE
1002
{
1070
    49
1040
1.0
1070
   290
1070
     0
1070
   279
1070
     2
1070
    41
1040
2.5
1070
    79
1070
     2
1070
   176
1070
     0
1070
   177
1070
     0
1070
   178
1070
     0
1070
    44
1040
1.25
1070
    42
1040
0.625
1070
   147
1040
0.625
1070
   140
1040
2.5
1070
    78
1070
     8
1002
}
  0
DIMENSION
  5
2B2C
330
2E56
100
AcDbEntity
  8
Bottom Stand ... Dimensions
100
AcDbDimension
280
     0
 10
0.0000000000000107
 20
-10.99999999999998
 30
0.0
 11
-1.874999999999989
 21
-7.999999999999982
 31
0.0
 70
    32
 71
     5
 42
-1.0
 73
     0
 74
     0
 75
     0
  3
QCADDimStyle
100
AcDbAlignedDimension
 13
8.000000000000039
 23
-10.99999999999998
 33
0.0
 14
8.000000000000028
 24
-4.999999999999984
 34
0.0
 50
90.0
100
AcDbRotatedDimension
1001
ACAD
1000
DSTYLE
1002
{
1070
    49
1040
1.0
1070
   290
1070
     0
1070
   279
1070
     2
1070
    41
1040
2.5
1070
    79
1070
     2
1070
   176
1070
     0
1070
   177
1070
     0
1070
   178
1070
     0
1070
    44
1040
1.25
1070
    42
1040
0.625
1070
   147
1040
0.625
1070
   140
1040
2.5
1070
    78
1070
     8
1002
}
  0
DIMENSION
  5
23D0
330
2E56
100
AcDbEntity
  8
Bottom Stand ... Dimensions
100
AcDbDimension
280
     0
 10
70.0
 20
27.0
 30
0.0
 11
41.0
 21
28.875
 31
0.0
 70
    32
 71
     5
 42
-1.0
 73
     0
 74
     0
 75
     0
  3
QCADDimStyle
100
AcDbAlignedDimension
 13
70.0
 23
35.0
 33
0.0
 14
12.0
 24
35.0
 34
0.0
100
AcDbRotatedDimension
1001
ACAD
1000
DSTYLE
1002
{
1070
    49
1040
1.0
1070
   290
1070
     0
1070
   279
1070
     2
1070
    41
1040
2.5
1070
    79
1070
     2
1070
   176
1070
     0
1070
   177
1070
     0
1070
   178
1070
     0
1070
    44
1040
1.25
1070
    42
1040
0.625
1070
   147
1040
0.625
1070
   140
1040
2.5
1070
    78
1070
     8
1002
}
  0
DIMENSION
  5
2A79
330
2E56
100
AcDbEntity
  8
Bottom Stand ... Dimensions
100
AcDbDimension
280
     0
 10
70.0
 20
42.0
 30
0.0
 11
62.5
 21
43.875
 31
0.0
 70
    32
 71
     5
 42
-1.0
 73
     0
 74
     0
 75
     0
  3
QCADDimStyle
100
AcDbAlignedDimension
 13
70.0
 23
52.0
 33
0.0
 14
55.0
 24
52.0
 34
0.0
100
AcDbRotatedDimension
1001
ACAD
1000
DSTYLE
1002
{
1070
    49
1040
1.0
1070
   290
1070
     0
1070
   279
1070
     2
1070
    41
1040
2.5
1070
    79
1070
     2
1070
   176
1070
     0
1070
   177
1070
     0
1070
   178
1070
     0
1070
    44
1040
1.25
1070
    42
1040
0.625
1070
   147
1040
0.625
1070
   140
1040
2.5
1070
    78
1070
     8
1002
}
  0
DIMENSION
  5
2C37
330
2E56
100
AcDbEntity
  8
Bottom Stand ... Dimensions
100
AcDbDimension
280
     0
 10
70.0
 20
72.0
 30
0.0
 11
57.5
 21
73.875
 31
0.0
 70
    32
 71
     5
 42
-1.0
 73
     0
 74
     0
 75
     0
  3
QCADDimStyle
100
AcDbAlignedDimension
 13
70.0
 23
68.0
 33
0.0
 14
45.0
 24
60.0
 34
0.0
100
AcDbRotatedDimension
1001
ACAD
1000
DSTYLE
1002
{
1070
    49
1040
1.0
1070
   290
1070
     0
1070
   279
1070
     2
1070
    41
1040
2.5
1070
    79
1070
     2
1070
   176
1070
     0
1070
   177
1070
     0
1070
   178
1070
     0
1070
    44
1040
1.25
1070
    42
1040
0.625
1070
   147
1040
0.625
1070
   140
1040
2.5
1070
    78
1070
     8
1002
}
  0
DIMENSION
  5
2C3E
330
2E56
100
AcDbEntity
  8
Bottom Stand ... Dimensions
100
AcDbDimension
280
     0
 10
70.0
 20
78.0
 30
0.0
 11
53.5
 21
79.875
 31
0.0
 70
    32
 71
     5
 42
-1.0
 73
     0
 74
     0
 75
     0
  3
QCADDimStyle
100
AcDbAlignedDimension
 13
70.0
 23
68.0
 33
0.0
 14
37.0
 24
60.00000000000001
 34
0.0
100
AcDbRotatedDimension
1001
ACAD
1000
DSTYLE
1002
{
1070
    49
1040
1.0
1070
   290
1070
     0
1070
   279
1070
     2
1070
    41
1040
2.5
1070
    79
1070
     2
1070
   176
1070
     0
1070
   177
1070
     0
1070
   178
1070
     0
1070
    44
1040
1.25
1070
    42
1040
0.625
1070
   147
1040
0.625
1070
   140
1040
2.5
1070
    78
1070
     8
1002
}
  0
DIMENSION
  5
2B2D
330
2E56
100
AcDbEntity
  8
Bottom Stand ... Dimensions
100
AcDbDimension
280
     0
 10
70.0
 20
-88.00000000000001
 30
0.0
 11
41.0
 21
-86.12500000000001
 31
0.0
 70
    32
 71
     5
 42
-1.0
 73
     0
 74
     0
 75
     0
  3
QCADDimStyle
100
AcDbAlignedDimension
 13
70.0
 23
-79.99999999999999
 33
0.0
 14
12.0
 24
-80.0
 34
0.0
100
AcDbRotatedDimension
1001
ACAD
1000
DSTYLE
1002
{
1070
    49
1040
1.0
1070
   290
1070
     0
1070
   279
1070
     2
1070
    41
1040
2.5
1070
    79
1070
     2
1070
   176
1070
     0
1070
   177
1070
     0
1070
   178
1070
     0
1070
    44
1040
1.25
1070
    42
1040
0.625
1070
   147
1040
0.625
1070
   140
1040
2.5
1070
    78
1070
     8
1002
}
  0
DIMENSION
  5
2B2E
330
2E56
100
AcDbEntity
  8
Bottom Stand ... Dimensions
100
AcDbDimension
280
     0
 10
70.0
 20
-73.00000000000007
 30
0.0
 11
62.5
 21
-71.12500000000007
 31
0.0
 70
    32
 71
     5
 42
-1.0
 73
     0
 74
     0
 75
     0
  3
QCADDimStyle
100
AcDbAlignedDimension
 13
70.0
 23
-63.00000000000002
 33
0.0
 14
55.0
 24
-62.99999999999998
 34
0.0
100
AcDbRotatedDimension
1001
ACAD
1000
DSTYLE
1002
{
1070
    49
1040
1.0
1070
   290
1070
     0
1070
   279
1070
     2
1070
    41
1040
2.5
1070
    79
1070
     2
1070
   176
1070
     0
1070
   177
1070
     0
1070
   178
1070
     0
1070
    44
1040
1.25
1070
    42
1040
0.625
1070
   147
1040
0.625
1070
   140
1040
2.5
1070
    78
1070
     8
1002
}
  0
DIMENSION
  5
23D7
330
2E56
100
AcDbEntity
  8
Bottom Stand ... Dimensions
100
AcDbDimension
280
     0
 10
25.0
 20
35.0
 30
0.0
 11
23.125
 21
40.0
 31
0.0
 70
    32
 71
     5
 42
-1.0
 73
     0
 74
     0
 75
     0
  3
QCADDimStyle
100
AcDbAlignedDimension
 13
12.0
 23
35.0
 33
0.0
 14
12.0
 24
45.00000000000001
 34
0.0
 50
90.0
100
AcDbRotatedDimension
1001
ACAD
1000
DSTYLE
1002
{
1070
    49
1040
1.0
1070
   290
1070
     0
1070
   279
1070
     2
1070
    41
1040
2.5
1070
    79
1070
     2
1070
   176
1070
     0
1070
   177
1070
     0
1070
   178
1070
     0
1070
    44
1040
1.25
1070
    42
1040
0.625
1070
   147
1040
0.625
1070
   140
1040
2.5
1070
    78
1070
     8
1002
}
  0
DIMENSION
  5
2A73
330
2E56
100
AcDbEntity
  8
Bottom Stand ... Dimensions
100
AcDbDimension
280
     0
 10
79.0
 20
35.0
 30
0.0
 11
77.125
 21
43.5
 31
0.0
 70
    32
 71
     5
 42
-1.0
 73
     0
 74
     0
 75
     0
  3
QCADDimStyle
100
AcDbAlignedDimension
 13
70.0
 23
35.0
 33
0.0
 14
70.0
 24
52.0
 34
0.0
 50
90.0
100
AcDbRotatedDimension
1001
ACAD
1000
DSTYLE
1002
{
1070
    49
1040
1.0
1070
   290
1070
     0
1070
   279
1070
     2
1070
    41
1040
2.5
1070
    79
1070
     2
1070
   176
1070
     0
1070
   177
1070
     0
1070
   178
1070
     0
1070
    44
1040
1.25
1070
    42
1040
0.625
1070
   147
1040
0.625
1070
   140
1040
2.5
1070
    78
1070
     8
1002
}
  0
DIMENSION
  5
2D47
330
2E56
100
AcDbEntity
  8
Bottom Stand ... Dimensions
100
AcDbDimension
280
     0
 10
41.50289162384655
 20
35.0
 30
0.0
 11
39.62789162384655
 21
45.0
 31
0.0
 70
    32
 71
     5
 42
-1.0
 73
     0
 74
     0
 75
     0
  3
QCADDimStyle
100
AcDbAlignedDimension
 13
70.0
 23
35.0
 33
0.0
 14
45.0
 24
55.0
 34
0.0
 50
90.0
100
AcDbRotatedDimension
1001
ACAD
1000
DSTYLE
1002
{
1070
    49
1040
1.0
1070
   290
1070
     0
1070
   279
1070
     2
1070
    41
1040
2.5
1070
    79
1070
     2
1070
   176
1070
     0
1070
   177
1070
     0
1070
   178
1070
     0
1070
    44
1040
1.25
1070
    42
1040
0.625
1070
   147
1040
0.625
1070
   140
1040
2.5
1070
    78
1070
     8
1002
}
  0
DIMENSION
  5
2A74
330
2E56
100
AcDbEntity
  8
Bottom Stand ... Dimensions
100
AcDbDimension
280
     0
 10
79.0
 20
52.0
 30
0.0
 11
77.125
 21
60.0
 31
0.0
 70
    32
 71
     5
 42
-1.0
 73
     0
 74
     0
 75
     0
  3
QCADDimStyle
100
AcDbAlignedDimension
 13
70.0
 23
52.0
 33
0.0
 14
70.0
 24
68.0
 34
0.0
 50
90.0
100
AcDbRotatedDimension
1001
ACAD
1000
DSTYLE
1002
{
1070
    49
1040
1.0
1070
   290
1070
     0
1070
   279
1070
     2
1070
    41
1040
2.5
1070
    79
1070
     2
1070
   176
1070
     0
1070
   177
1070
     0
1070
   178
1070
     0
1070
    44
1040
1.25
1070
    42
1040
0.625
1070
   147
1040
0.625
1070
   140
1040
2.5
1070
    78
1070
     8
1002
}
  0
DIMENSION
  5
2A75
330
2E56
100
AcDbEntity
  8
Bottom Stand ... Dimensions
100
AcDbDimension
280
     0
 10
79.0
 20
67.99999999999999
 30
0.0
 11
77.125
 21
76.5
 31
0.0
 70
    32
 71
     5
 42
-1.0
 73
     0
 74
     0
 75
     0
  3
QCADDimStyle
100
AcDbAlignedDimension
 13
70.0
 23
67.99999999999999
 33
0.0
 14
70.0
 24
85.0
 34
0.0
 50
90.0
100
AcDbRotatedDimension
1001
ACAD
1000
DSTYLE
1002
{
1070
    49
1040
1.0
1070
   290
1070
     0
1070
   279
1070
     2
1070
    41
1040
2.5
1070
    79
1070
     2
1070
   176
1070
     0
1070
   177
1070
     0
1070
   178
1070
     0
1070
    44
1040
1.25
1070
    42
1040
0.625
1070
   147
1040
0.625
1070
   140
1040
2.5
1070
    78
1070
     8
1002
}
  0
DIMENSION
  5
2A7D
330
2E56
100
AcDbEntity
  8
Bottom Stand ... Dimensions
100
AcDbDimension
280
     0
 10
79.0
 20
95.0
 30
0.0
 11
77.125
 21
102.5
 31
0.0
 70
    32
 71
     5
 42
-1.0
 73
     0
 74
     0
 75
     0
  3
QCADDimStyle
100
AcDbAlignedDimension
 13
70.0
 23
95.0
 33
0.0
 14
70.0
 24
110.0
 34
0.0
 50
90.0
100
AcDbRotatedDimension
1001
ACAD
1000
DSTYLE
1002
{
1070
    49
1040
1.0
1070
   290
1070
     0
1070
   279
1070
     2
1070
    41
1040
2.5
1070
    79
1070
     2
1070
   176
1070
     0
1070
   177
1070
     0
1070
   178
1070
     0
1070
    44
1040
1.25
1070
    42
1040
0.625
1070
   147
1040
0.625
1070
   140
1040
2.5
1070
    78
1070
     8
1002
}
  0
DIMENSION
  5
2B2F
330
2E56
100
AcDbEntity
  8
Bottom Stand ... Dimensions
100
AcDbDimension
280
     0
 10
24.99999999999999
 20
-80.0
 30
0.0
 11
23.12499999999999
 21
-75.0
 31
0.0
 70
    32
 71
     5
 42
-1.0
 73
     0
 74
     0
 75
     0
  3
QCADDimStyle
100
AcDbAlignedDimension
 13
12.0
 23
-80.0
 33
0.0
 14
11.99999999999999
 24
-69.99999999999999
 34
0.0
 50
90.0
100
AcDbRotatedDimension
1001
ACAD
1000
DSTYLE
1002
{
1070
    49
1040
1.0
1070
   290
1070
     0
1070
   279
1070
     2
1070
    41
1040
2.5
1070
    79
1070
     2
1070
   176
1070
     0
1070
   177
1070
     0
1070
   178
1070
     0
1070
    44
1040
1.25
1070
    42
1040
0.625
1070
   147
1040
0.625
1070
   140
1040
2.5
1070
    78
1070
     8
1002
}
  0
DIMENSION
  5
2B30
330
2E56
100
AcDbEntity
  8
Bottom Stand ... Dimensions
100
AcDbDimension
280
     0
 10
79.0
 20
-79.99999999999999
 30
0.0
 11
77.125
 21
-71.5
 31
0.0
 70
    32
 71
     5
 42
-1.0
 73
     0
 74
     0
 75
     0
  3
QCADDimStyle
100
AcDbAlignedDimension
 13
70.0
 23
-79.99999999999999
 33
0.0
 14
70.0
 24
-63.00000000000002
 34
0.0
 50
90.0
100
AcDbRotatedDimension
1001
ACAD
1000
DSTYLE
1002
{
1070
    49
1040
1.0
1070
   290
1070
     0
1070
   279
1070
     2
1070
    41
1040
2.5
1070
    79
1070
     2
1070
   176
1070
     0
1070
   177
1070
     0
1070
   178
1070
     0
1070
    44
1040
1.25
1070
    42
1040
0.625
1070
   147
1040
0.625
1070
   140
1040
2.5
1070
    78
1070
     8
1002
}
  0
DIMENSION
  5
2B31
330
2E56
100
AcDbEntity
  8
Bottom Stand ... Dimensions
100
AcDbDimension
280
     0
 10
79.0
 20
-63.00000000000002
 30
0.0
 11
77.125
 21
-55.00000000000001
 31
0.0
 70
    32
 71
     5
 42
-1.0
 73
     0
 74
     0
 75
     0
  3
QCADDimStyle
100
AcDbAlignedDimension
 13
70.0
 23
-63.00000000000002
 33
0.0
 14
70.0
 24
-47.00000000000001
 34
0.0
 50
90.0
100
AcDbRotatedDimension
1001
ACAD
1000
DSTYLE
1002
{
1070
    49
1040
1.0
1070
   290
1070
     0
1070
   279
1070
     2
1070
    41
1040
2.5
1070
    79
1070
     2
1070
   176
1070
     0
1070
   177
1070
     0
1070
   178
1070
     0
1070
    44
1040
1.25
1070
    42
1040
0.625
1070
   147
1040
0.625
1070
   140
1040
2.5
1070
    78
1070
     8
1002
}
  0
DIMENSION
  5
2B32
330
2E56
100
AcDbEntity
  8
Bottom Stand ... Dimensions
100
AcDbDimension
280
     0
 10
79.0
 20
-47.00000000000001
 30
0.0
 11
77.125
 21
-38.5
 31
0.0
 70
    32
 71
     5
 42
-1.0
 73
     0
 74
     0
 75
     0
  3
QCADDimStyle
100
AcDbAlignedDimension
 13
70.0
 23
-47.00000000000001
 33
0.0
 14
70.0
 24
-29.99999999999999
 34
0.0
 50
90.0
100
AcDbRotatedDimension
1001
ACAD
1000
DSTYLE
1002
{
1070
    49
1040
1.0
1070
   290
1070
     0
1070
   279
1070
     2
1070
    41
1040
2.5
1070
    79
1070
     2
1070
   176
1070
     0
1070
   177
1070
     0
1070
   178
1070
     0
1070
    44
1040
1.25
1070
    42
1040
0.625
1070
   147
1040
0.625
1070
   140
1040
2.5
1070
    78
1070
     8
1002
}
  0
DIMENSION
  5
2B33
330
2E56
100
AcDbEntity
  8
Bottom Stand ... Dimensions
100
AcDbDimension
280
     0
 10
79.0
 20
-19.99999999999999
 30
0.0
 11
77.125
 21
-12.50000000000001
 31
0.0
 70
    32
 71
     5
 42
-1.0
 73
     0
 74
     0
 75
     0
  3
QCADDimStyle
100
AcDbAlignedDimension
 13
70.0
 23
-19.99999999999999
 33
0.0
 14
70.0
 24
-5.00000000000002
 34
0.0
 50
90.0
100
AcDbRotatedDimension
1001
ACAD
1000
DSTYLE
1002
{
1070
    49
1040
1.0
1070
   290
1070
     0
1070
   279
1070
     2
1070
    41
1040
2.5
1070
    79
1070
     2
1070
   176
1070
     0
1070
   177
1070
     0
1070
   178
1070
     0
1070
    44
1040
1.25
1070
    42
1040
0.625
1070
   147
1040
0.625
1070
   140
1040
2.5
1070
    78
1070
     8
1002
}
  0
DIMENSION
  5
23D8
330
2E56
100
AcDbEntity
  8
Bottom Stand ... Dimensions
100
AcDbDimension
280
     0
 10
25.0
 20
45.00000000000001
 30
0.0
 11
23.125
 21
60.0
 31
0.0
 70
    32
 71
     5
 42
-1.0
 73
     0
 74
     0
 75
     0
  3
QCADDimStyle
100
AcDbAlignedDimension
 13
12.0
 23
45.00000000000001
 33
0.0
 14
12.00000000000013
 24
74.99999999999999
 34
0.0
 50
90.0
100
AcDbRotatedDimension
1001
ACAD
1000
DSTYLE
1002
{
1070
    49
1040
1.0
1070
   290
1070
     0
1070
   279
1070
     2
1070
    41
1040
2.5
1070
    79
1070
     2
1070
   176
1070
     0
1070
   177
1070
     0
1070
   178
1070
     0
1070
    44
1040
1.25
1070
    42
1040
0.625
1070
   147
1040
0.625
1070
   140
1040
2.5
1070
    78
1070
     8
1002
}
  0
DIMENSION
  5
2B34
330
2E56
100
AcDbEntity
  8
Bottom Stand ... Dimensions
100
AcDbDimension
280
     0
 10
25.00000000000001
 20
-69.99999999999999
 30
0.0
 11
23.12500000000001
 21
-55.00000000000001
 31
0.0
 70
    32
 71
     5
 42
-1.0
 73
     0
 74
     0
 75
     0
  3
QCADDimStyle
100
AcDbAlignedDimension
 13
11.99999999999999
 23
-69.99999999999999
 33
0.0
 14
12.00000000000013
 24
-40.00000000000003
 34
0.0
 50
90.0
100
AcDbRotatedDimension
1001
ACAD
1000
DSTYLE
1002
{
1070
    49
1040
1.0
1070
   290
1070
     0
1070
   279
1070
     2
1070
    41
1040
2.5
1070
    79
1070
     2
1070
   176
1070
     0
1070
   177
1070
     0
1070
   178
1070
     0
1070
    44
1040
1.25
1070
    42
1040
0.625
1070
   147
1040
0.625
1070
   140
1040
2.5
1070
    78
1070
     8
1002
}
  0
DIMENSION
  5
23D9
330
2E56
100
AcDbEntity
  8
Bottom Stand ... Dimensions
100
AcDbDimension
280
     0
 10
25.0
 20
74.99999999999999
 30
0.0
 11
23.125
 21
80.0
 31
0.0
 70
    32
 71
     5
 42
-1.0
 73
     0
 74
     0
 75
     0
  3
QCADDimStyle
100
AcDbAlignedDimension
 13
12.00000000000013
 23
74.99999999999999
 33
0.0
 14
12.0
 24
85.0
 34
0.0
 50
90.0
100
AcDbRotatedDimension
1001
ACAD
1000
DSTYLE
1002
{
1070
    49
1040
1.0
1070
   290
1070
     0
1070
   279
1070
     2
1070
    41
1040
2.5
1070
    79
1070
     2
1070
   176
1070
     0
1070
   177
1070
     0
1070
   178
1070
     0
1070
    44
1040
1.25
1070
    42
1040
0.625
1070
   147
1040
0.625
1070
   140
1040
2.5
1070
    78
1070
     8
1002
}
  0
DIMENSION
  5
2B35
330
2E56
100
AcDbEntity
  8
Bottom Stand ... Dimensions
100
AcDbDimension
280
     0
 10
25.0
 20
-40.00000000000003
 30
0.0
 11
23.125
 21
-35.00000000000001
 31
0.0
 70
    32
 71
     5
 42
-1.0
 73
     0
 74
     0
 75
     0
  3
QCADDimStyle
100
AcDbAlignedDimension
 13
12.00000000000013
 23
-40.00000000000003
 33
0.0
 14
12.0
 24
-30.0
 34
0.0
 50
90.0
100
AcDbRotatedDimension
1001
ACAD
1000
DSTYLE
1002
{
1070
    49
1040
1.0
1070
   290
1070
     0
1070
   279
1070
     2
1070
    41
1040
2.5
1070
    79
1070
     2
1070
   176
1070
     0
1070
   177
1070
     0
1070
   178
1070
     0
1070
    44
1040
1.25
1070
    42
1040
0.625
1070
   147
1040
0.625
1070
   140
1040
2.5
1070
    78
1070
     8
1002
}
  0
DIMENSION
  5
23DD
330
2E56
100
AcDbEntity
  8
Bottom Stand ... Dimensions
100
AcDbDimension
280
     0
 10
70.0
 20
20.0
 30
0.0
 11
35.0
 21
21.875
 31
0.0
 70
    32
 71
     5
 42
-1.0
 73
     0
 74
     0
 75
     0
  3
QCADDimStyle
100
AcDbAlignedDimension
 13
70.0
 23
35.0
 33
0.0
 14
0.0
 24
41.0
 34
0.0
100
AcDbRotatedDimension
1001
ACAD
1000
DSTYLE
1002
{
1070
    49
1040
1.0
1070
   290
1070
     0
1070
   279
1070
     2
1070
    41
1040
2.5
1070
    79
1070
     2
1070
   176
1070
     0
1070
   177
1070
     0
1070
   178
1070
     0
1070
    44
1040
1.25
1070
    42
1040
0.625
1070
   147
1040
0.625
1070
   140
1040
2.5
1070
    78
1070
     8
1002
}
  0
DIMENSION
  5
2B36
330
2E56
100
AcDbEntity
  8
Bottom Stand ... Dimensions
100
AcDbDimension
280
     0
 10
70.0
 20
-95.0
 30
0.0
 11
35.0
 21
-93.125
 31
0.0
 70
    32
 71
     5
 42
-1.0
 73
     0
 74
     0
 75
     0
  3
QCADDimStyle
100
AcDbAlignedDimension
 13
70.0
 23
-79.99999999999999
 33
0.0
 14
-0.0000000000000022
 24
-79.99999999999997
 34
0.0
100
AcDbRotatedDimension
1001
ACAD
1000
DSTYLE
1002
{
1070
    49
1040
1.0
1070
   290
1070
     0
1070
   279
1070
     2
1070
    41
1040
2.5
1070
    79
1070
     2
1070
   176
1070
     0
1070
   177
1070
     0
1070
   178
1070
     0
1070
    44
1040
1.25
1070
    42
1040
0.625
1070
   147
1040
0.625
1070
   140
1040
2.5
1070
    78
1070
     8
1002
}
  0
LINE
  5
23E2
330
2E56
100
AcDbEntity
  8
Side Stand
100
AcDbLine
 10
14.0
 20
94.99999999999994
 30
0.0
 11
70.0
 21
95.0
 31
0.0
  0
LINE
  5
2B37
330
2E56
100
AcDbEntity
  8
Side Stand
100
AcDbLine
 10
14.25
 20
-20.00000000000003
 30
0.0
 11
70.0
 21
-20.0
 31
0.0
  0
LINE
  5
23E3
330
2E56
100
AcDbEntity
  8
Side Stand
100
AcDbLine
 10
16.00000000000002
 20
110.0
 30
0.0
 11
70.0
 21
110.0
 31
0.0
  0
LINE
  5
2B38
330
2E56
100
AcDbEntity
  8
Side Stand
100
AcDbLine
 10
16.00000000000002
 20
-4.999999999999998
 30
0.0
 11
70.0
 21
-4.999999999999998
 31
0.0
  0
ARC
  5
250A
330
2E56
100
AcDbEntity
  8
Starlight
100
AcDbCircle
 10
5.0
 20
-79.99999999982487
 30
0.0
 40
60.0
100
AcDbArc
 50
330.0
 51
210.0
  0
CIRCLE
  5
250B
330
2E56
100
AcDbEntity
  8
Starlight
100
AcDbCircle
 10
5.0
 20
-20.0
 30
0.0
 40
2.5
  0
CIRCLE
  5
2510
330
2E56
100
AcDbEntity
  8
Starlight
100
AcDbCircle
 10
-5.418890660015819
 20
-20.91153481926751
 30
0.0
 40
2.5
  0
CIRCLE
  5
2511
330
2E56
100
AcDbEntity
  8
Starlight
100
AcDbCircle
 10
-15.52120859954012
 20
-23.6184427528455
 30
0.0
 40
2.5
  0
CIRCLE
  5
2518
330
2E56
100
AcDbEntity
  8
Starlight
100
AcDbCircle
 10
-24.99999999999999
 20
-28.03847577293367
 30
0.0
 40
2.5
  0
CIRCLE
  5
2519
330
2E56
100
AcDbEntity
  8
Starlight
100
AcDbCircle
 10
-40.96266658713867
 20
-41.43274341880763
 30
0.0
 40
2.5
  0
CIRCLE
  5
251A
330
2E56
100
AcDbEntity
  8
Starlight
100
AcDbCircle
 10
-46.96152422706633
 20
-50.00000000000004
 30
0.0
 40
2.5
  0
CIRCLE
  5
251B
330
2E56
100
AcDbEntity
  8
Starlight
100
AcDbCircle
 10
-51.38155724715453
 20
-59.47879140045995
 30
0.0
 40
2.5
  0
CIRCLE
  5
251C
330
2E56
100
AcDbEntity
  8
Starlight
100
AcDbCircle
 10
-54.0884651807325
 20
-69.58110933998421
 30
0.0
 40
2.5
  0
CIRCLE
  5
2525
330
2E56
100
AcDbEntity
  8
Starlight
100
AcDbCircle
 10
-33.56725658119138
 20
-34.0373334128605
 30
0.0
 40
2.5
  0
CIRCLE
  5
2526
330
2E56
100
AcDbEntity
  8
Starlight
100
AcDbCircle
 10
-55.00000000000001
 20
-80.0
 30
0.0
 40
2.5
  0
CIRCLE
  5
2527
330
2E56
100
AcDbEntity
  8
Starlight
100
AcDbCircle
 10
-54.08846518073366
 20
-90.41889066000914
 30
0.0
 40
2.5
  0
CIRCLE
  5
2528
330
2E56
100
AcDbEntity
  8
Starlight
100
AcDbCircle
 10
-51.38155724714969
 20
-100.5212085995533
 30
0.0
 40
2.5
  0
CIRCLE
  5
2534
330
2E56
100
AcDbEntity
  8
Starlight
100
AcDbCircle
 10
15.41889066012407
 20
-20.91153481928661
 30
0.0
 40
2.5
  0
CIRCLE
  5
2535
330
2E56
100
AcDbEntity
  8
Starlight
100
AcDbCircle
 10
25.52120859834646
 20
-23.61844275241103
 30
0.0
 40
2.5
  0
CIRCLE
  5
2536
330
2E56
100
AcDbEntity
  8
Starlight
100
AcDbCircle
 10
34.99999999757117
 20
-28.0384757715314
 30
0.0
 40
2.5
  0
CIRCLE
  5
2537
330
2E56
100
AcDbEntity
  8
Starlight
100
AcDbCircle
 10
43.56725658124718
 20
-34.03733341290732
 30
0.0
 40
2.5
  0
CIRCLE
  5
2538
330
2E56
100
AcDbEntity
  8
Starlight
100
AcDbCircle
 10
50.96266658895821
 20
-41.43274342097607
 30
0.0
 40
2.5
  0
CIRCLE
  5
2539
330
2E56
100
AcDbEntity
  8
Starlight
100
AcDbCircle
 10
56.96152422705168
 20
-49.99999999997464
 30
0.0
 40
2.5
  0
CIRCLE
  5
253A
330
2E56
100
AcDbEntity
  8
Starlight
100
AcDbCircle
 10
61.38155724709466
 20
-59.47879140029545
 30
0.0
 40
2.5
  0
CIRCLE
  5
253B
330
2E56
100
AcDbEntity
  8
Starlight
100
AcDbCircle
 10
64.0884651806356
 20
-69.58110933943466
 30
0.0
 40
2.5
  0
CIRCLE
  5
253C
330
2E56
100
AcDbEntity
  8
Starlight
100
AcDbCircle
 10
64.99999999999999
 20
-80.00000000000493
 30
0.0
 40
2.5
  0
CIRCLE
  5
253D
330
2E56
100
AcDbEntity
  8
Starlight
100
AcDbCircle
 10
64.08846518063392
 20
-90.41889066057486
 30
0.0
 40
2.5
  0
CIRCLE
  5
253E
330
2E56
100
AcDbEntity
  8
Starlight
100
AcDbCircle
 10
61.38155724704357
 20
-100.5212085998449
 30
0.0
 40
2.5
  0
CIRCLE
  5
2541
330
2E56
100
AcDbEntity
  8
Starlight
100
AcDbCircle
 10
5.0
 20
-29.99999999115829
 30
0.0
 40
2.5
  0
CIRCLE
  5
2542
330
2E56
100
AcDbEntity
  8
Starlight
100
AcDbCircle
 10
-3.682408884802207
 20
-30.75961234113363
 30
0.0
 40
2.5
  0
CIRCLE
  5
2543
330
2E56
100
AcDbEntity
  8
Starlight
100
AcDbCircle
 10
-12.10100716890679
 20
-33.01536895349697
 30
0.0
 40
2.5
  0
CIRCLE
  5
2544
330
2E56
100
AcDbEntity
  8
Starlight
100
AcDbCircle
 10
13.68240888502307
 20
-30.75961234051441
 30
0.0
 40
2.5
  0
CIRCLE
  5
2545
330
2E56
100
AcDbEntity
  8
Starlight
100
AcDbCircle
 10
22.10100716814977
 20
-33.01536895186285
 30
0.0
 40
2.5
  0
CIRCLE
  5
2546
330
2E56
100
AcDbEntity
  8
Starlight
100
AcDbCircle
 10
30.00000000186633
 20
-36.69872980193634
 30
0.0
 40
2.5
  0
CIRCLE
  5
2547
330
2E56
100
AcDbEntity
  8
Starlight
100
AcDbCircle
 10
-20.00000000336199
 20
-36.69872980495492
 30
0.0
 40
2.5
  0
CIRCLE
  5
2548
330
2E56
100
AcDbEntity
  8
Starlight
100
AcDbCircle
 10
-27.13938048790856
 20
-41.69777783978073
 30
0.0
 40
2.5
  0
CIRCLE
  5
2549
330
2E56
100
AcDbEntity
  8
Starlight
100
AcDbCircle
 10
37.13938048950661
 20
-41.69777783798958
 30
0.0
 40
2.5
  0
LINE
  5
250E
330
2E56
100
AcDbEntity
  8
Starlight
100
AcDbLine
 10
5.0
 20
-80.0
 30
0.0
 11
-15.52120859954012
 21
-23.6184427528455
 31
0.0
  0
LINE
  5
250F
330
2E56
100
AcDbEntity
  8
Starlight
100
AcDbLine
 10
5.0
 20
-80.0
 30
0.0
 11
-24.99999999999999
 21
-28.03847577293368
 31
0.0
  0
LINE
  5
2512
330
2E56
100
AcDbEntity
  8
Starlight
100
AcDbLine
 10
5.0
 20
-80.0
 30
0.0
 11
-40.96266658713866
 21
-41.43274341880764
 31
0.0
  0
LINE
  5
2513
330
2E56
100
AcDbEntity
  8
Starlight
100
AcDbLine
 10
5.000000000000013
 20
-80.00000000000006
 30
0.0
 11
-46.96152422706635
 21
-50.00000000000004
 31
0.0
  0
LINE
  5
2514
330
2E56
100
AcDbEntity
  8
Starlight
100
AcDbLine
 10
4.999999999999725
 20
-80.0
 30
0.0
 11
-51.38155724715477
 21
-59.47879140045987
 31
0.0
  0
LINE
  5
2515
330
2E56
100
AcDbEntity
  8
Starlight
100
AcDbLine
 10
5.000000000000053
 20
-80.00000000000007
 30
0.0
 11
-54.08846518073246
 21
-69.58110933998422
 31
0.0
  0
LINE
  5
2517
330
2E56
100
AcDbEntity
  8
Starlight
100
AcDbLine
 10
5.000000000000334
 20
-79.99999999999991
 30
0.0
 11
-5.418890660015819
 21
-20.91153481926751
 31
0.0
  0
LINE
  5
2520
330
2E56
100
AcDbEntity
  8
Starlight
100
AcDbLine
 10
5.0
 20
-79.99999999999801
 30
0.0
 11
-33.56725658119236
 21
-34.03733341285933
 31
0.0
  0
LINE
  5
2521
330
2E56
100
AcDbEntity
  8
Starlight
100
AcDbLine
 10
5.000000000005835
 20
-80.00000000000492
 30
0.0
 11
-55.0
 21
-80.0
 31
0.0
  0
LINE
  5
2522
330
2E56
100
AcDbEntity
  8
Starlight
100
AcDbLine
 10
4.999999999996384
 20
-79.99999999999375
 30
0.0
 11
-54.08846518073609
 21
-90.41889066000957
 31
0.0
  0
LINE
  5
2523
330
2E56
100
AcDbEntity
  8
Starlight
100
AcDbLine
 10
5.000000000027583
 20
-80.00000000000493
 30
0.0
 11
-51.38155724712692
 21
-100.521208599545
 31
0.0
  0
LINE
  5
2529
330
2E56
100
AcDbEntity
  8
Starlight
100
AcDbLine
 10
5.000000000116452
 20
-79.99999999997254
 30
0.0
 11
15.41889066013228
 21
-20.91153481924007
 31
0.0
  0
LINE
  5
252A
330
2E56
100
AcDbEntity
  8
Starlight
100
AcDbLine
 10
5.000000000116452
 20
-79.99999999997254
 30
0.0
 11
43.56725658130882
 21
-34.03733341283386
 31
0.0
  0
LINE
  5
252B
330
2E56
100
AcDbEntity
  8
Starlight
100
AcDbLine
 10
5.000000003071413
 20
-80.00000000111798
 30
0.0
 11
50.96266659021009
 21
-41.43274341992563
 31
0.0
  0
LINE
  5
252C
330
2E56
100
AcDbEntity
  8
Starlight
100
AcDbLine
 10
4.999999999932909
 20
-80.00000000000492
 30
0.0
 11
56.96152422699924
 21
-50.00000000000492
 31
0.0
  0
LINE
  5
252D
330
2E56
100
AcDbEntity
  8
Starlight
100
AcDbLine
 10
5.000000000197119
 20
-79.99999999974204
 30
0.0
 11
61.38155724735162
 21
-59.47879140020192
 31
0.0
  0
LINE
  5
252E
330
2E56
100
AcDbEntity
  8
Starlight
100
AcDbLine
 10
4.999999996758731
 20
-80.00000000000492
 30
0.0
 11
64.08846517749122
 21
-69.5811093399891
 31
0.0
  0
LINE
  5
252F
330
2E56
100
AcDbEntity
  8
Starlight
100
AcDbLine
 10
4.999999999546445
 20
-80.00000000018005
 30
0.0
 11
61.38155724670092
 21
-100.5212085997202
 31
0.0
  0
LINE
  5
2530
330
2E56
100
AcDbEntity
  8
Starlight
100
AcDbLine
 10
4.999999998345983
 20
-80.00000000028477
 30
0.0
 11
64.08846517907845
 21
-90.41889066030059
 31
0.0
  0
LINE
  5
2531
330
2E56
100
AcDbEntity
  8
Starlight
100
AcDbLine
 10
4.999999995226971
 20
-80.00000000000492
 30
0.0
 11
64.99999999522697
 21
-80.00000000000493
 31
0.0
  0
LINE
  5
2532
330
2E56
100
AcDbEntity
  8
Starlight
100
AcDbLine
 10
4.999999996758707
 20
-80.00000000000492
 30
0.0
 11
34.99999999675872
 21
-28.0384757729386
 31
0.0
  0
LINE
  5
2533
330
2E56
100
AcDbEntity
  8
Starlight
100
AcDbLine
 10
5.000000001486774
 20
-79.99999999220107
 30
0.0
 11
25.5212086010269
 21
-23.61844274504658
 31
0.0
  0
ARC
  5
2540
330
2E56
100
AcDbEntity
  8
Starlight
100
AcDbCircle
 10
5.000000001866334
 20
-79.99999999098314
 30
0.0
 40
50.0
100
AcDbArc
 50
323.1301023414912
 51
216.8698976585088
  0
DIMENSION
  5
2553
330
2E56
100
AcDbEntity
  8
Bottom Stand ... Dimensions
100
AcDbDimension
280
     0
 10
-55.0
 20
60.0
 30
0.0
 11
-59.21854912315683
 21
66.70253262611638
 31
0.0
 70
    36
 71
     5
 42
-1.0
 73
     0
 74
     0
 75
     0
  3
QCADDimStyle
100
AcDbRadialDimension
 15
-57.33316880918917
 25
62.26248167016371
 35
0.0
 40
0.0
1001
ACAD
1000
DSTYLE
1002
{
1070
    41
1040
0.18
1070
    44
1040
0.18
1070
    42
1040
0.0625
1070
   147
1040
0.09
1070
   144
1040
2.0
1070
    77
1070
     0
1070
    73
1070
     1
1070
   279
1070
     2
1070
   340
1005
0
1070
   140
1040
0.18
1002
}
  0
DIMENSION
  5
2B39
330
2E56
100
AcDbEntity
  8
Bottom Stand ... Dimensions
100
AcDbDimension
280
     0
 10
-55.00000000000001
 20
-55.00000000000006
 30
0.0
 11
-62.21192609595902
 21
-58.27234201987984
 31
0.0
 70
    36
 71
     5
 42
-1.0
 73
     0
 74
     0
 75
     0
  3
QCADDimStyle
100
AcDbRadialDimension
 15
-57.55751187013566
 25
-57.005400965921
 35
0.0
 40
0.0
1001
ACAD
1000
DSTYLE
1002
{
1070
    41
1040
0.18
1070
    44
1040
0.18
1070
    42
1040
0.0625
1070
   147
1040
0.09
1070
   144
1040
2.0
1070
    77
1070
     0
1070
    73
1070
     1
1070
   279
1070
     2
1070
   340
1005
0
1070
   140
1040
0.18
1002
}
  0
DIMENSION
  5
2555
330
2E56
100
AcDbEntity
  8
Bottom Stand ... Dimensions
100
AcDbDimension
280
     0
 10
0.0
 20
41.0
 30
0.0
 11
-4.555963427852225
 21
47.47790842423038
 31
0.0
 70
    36
 71
     5
 42
-1.0
 73
     0
 74
     0
 75
     0
  3
QCADDimStyle
100
AcDbRadialDimension
 15
-2.44587425779735
 25
43.14013997557268
 35
0.0
 40
0.0
1001
ACAD
1000
DSTYLE
1002
{
1070
    41
1040
0.18
1070
    44
1040
0.18
1070
    42
1040
0.0625
1070
   147
1040
0.09
1070
   144
1040
2.0
1070
    77
1070
     0
1070
    73
1070
     1
1070
   279
1070
     2
1070
   340
1005
0
1070
   140
1040
0.18
1002
}
  0
DIMENSION
  5
2B3A
330
2E56
100
AcDbEntity
  8
Bottom Stand ... Dimensions
100
AcDbDimension
280
     0
 10
-0.6249999999999929
 20
-36.0
 30
0.0
 11
-7.643681710675966
 21
-39.66854294684747
 31
0.0
 70
    36
 71
     5
 42
-1.0
 73
     0
 74
     0
 75
     0
  3
QCADDimStyle
100
AcDbRadialDimension
 15
-3.066969947051505
 25
-38.14459384912321
 35
0.0
 40
0.0
1001
ACAD
1000
DSTYLE
1002
{
1070
    41
1040
0.18
1070
    44
1040
0.18
1070
    42
1040
0.0625
1070
   147
1040
0.09
1070
   144
1040
2.0
1070
    77
1070
     0
1070
    73
1070
     1
1070
   279
1070
     2
1070
   340
1005
0
1070
   140
1040
0.18
1002
}
  0
DIMENSION
  5
2557
330
2E56
100
AcDbEntity
  8
Bottom Stand ... Dimensions
100
AcDbDimension
280
     0
 10
-11.25
 20
35.0
 30
0.0
 11
-13.125
 21
38.0
 31
0.0
 70
    32
 71
     5
 42
-1.0
 73
     0
 74
     0
 75
     0
  3
QCADDimStyle
100
AcDbAlignedDimension
 13
-0.0000000000000001
 23
35.0
 33
0.0
 14
0.0
 24
41.0
 34
0.0
 50
90.0
100
AcDbRotatedDimension
1001
ACAD
1000
DSTYLE
1002
{
1070
    49
1040
1.0
1070
   290
1070
     0
1070
   279
1070
     2
1070
    41
1040
2.5
1070
    79
1070
     2
1070
   176
1070
     0
1070
   177
1070
     0
1070
   178
1070
     0
1070
    44
1040
1.25
1070
    42
1040
0.625
1070
   147
1040
0.625
1070
   140
1040
2.5
1070
    78
1070
     8
1002
}
  0
DIMENSION
  5
2B3B
330
2E56
100
AcDbEntity
  8
Bottom Stand ... Dimensions
100
AcDbDimension
280
     0
 10
-11.25000000000001
 20
-36.0
 30
0.0
 11
-13.12500000000001
 21
-33.0
 31
0.0
 70
    32
 71
     5
 42
-1.0
 73
     0
 74
     0
 75
     0
  3
QCADDimStyle
100
AcDbAlignedDimension
 13
0.000000000000008
 23
-36.0
 33
0.0
 14
0.0
 24
-30.0
 34
0.0
 50
90.0
100
AcDbRotatedDimension
1001
ACAD
1000
DSTYLE
1002
{
1070
    49
1040
1.0
1070
   290
1070
     0
1070
   279
1070
     2
1070
    41
1040
2.5
1070
    79
1070
     2
1070
   176
1070
     0
1070
   177
1070
     0
1070
   178
1070
     0
1070
    44
1040
1.25
1070
    42
1040
0.625
1070
   147
1040
0.625
1070
   140
1040
2.5
1070
    78
1070
     8
1002
}
  0
DIMENSION
  5
2558
330
2E56
100
AcDbEntity
  8
Bottom Stand ... Dimensions
100
AcDbDimension
280
     0
 10
-55.0
 20
13.0
 30
0.0
 11
7.5
 21
14.875
 31
0.0
 70
    32
 71
     5
 42
-1.0
 73
     0
 74
     0
 75
     0
  3
QCADDimStyle
100
AcDbAlignedDimension
 13
-55.0
 23
60.00000000000001
 33
0.0
 14
70.0
 24
35.0
 34
0.0
100
AcDbRotatedDimension
1001
ACAD
1000
DSTYLE
1002
{
1070
    49
1040
1.0
1070
   290
1070
     0
1070
   279
1070
     2
1070
    41
1040
2.5
1070
    79
1070
     2
1070
   176
1070
     0
1070
   177
1070
     0
1070
   178
1070
     0
1070
    44
1040
1.25
1070
    42
1040
0.625
1070
   147
1040
0.625
1070
   140
1040
2.5
1070
    78
1070
     8
1002
}
  0
DIMENSION
  5
2B3C
330
2E56
100
AcDbEntity
  8
Bottom Stand ... Dimensions
100
AcDbDimension
280
     0
 10
-55.0
 20
-102.0
 30
0.0
 11
7.499999999999996
 21
-100.125
 31
0.0
 70
    32
 71
     5
 42
-1.0
 73
     0
 74
     0
 75
     0
  3
QCADDimStyle
100
AcDbAlignedDimension
 13
-55.00000000000001
 23
-55.00000000000006
 33
0.0
 14
70.0
 24
-79.99999999999999
 34
0.0
100
AcDbRotatedDimension
1001
ACAD
1000
DSTYLE
1002
{
1070
    49
1040
1.0
1070
   290
1070
     0
1070
   279
1070
     2
1070
    41
1040
2.5
1070
    79
1070
     2
1070
   176
1070
     0
1070
   177
1070
     0
1070
   178
1070
     0
1070
    44
1040
1.25
1070
    42
1040
0.625
1070
   147
1040
0.625
1070
   140
1040
2.5
1070
    78
1070
     8
1002
}
  0
DIMENSION
  5
2A7B
330
2E56
100
AcDbEntity
  8
Bottom Stand ... Dimensions
100
AcDbDimension
280
     0
 10
12.00000000000002
 20
44.99999999999996
 30
0.0
 11
15.50875006369457
 21
49.26456927214729
 31
0.0
 70
    36
 71
     5
 42
-1.0
 73
     0
 74
     0
 75
     0
  3
QCADDimStyle
100
AcDbRadialDimension
 15
13.7195999397909
 25
46.02126198747976
 35
0.0
 40
0.0
1001
ACAD
1000
DSTYLE
1002
{
1070
    41
1040
0.18
1070
    44
1040
0.18
1070
    42
1040
0.0625
1070
   147
1040
0.09
1070
   144
1040
2.0
1070
    77
1070
     0
1070
    73
1070
     1
1070
   279
1070
     2
1070
   340
1005
0
1070
   140
1040
0.18
1002
}
  0
DIMENSION
  5
2B3D
330
2E56
100
AcDbEntity
  8
Bottom Stand ... Dimensions
100
AcDbDimension
280
     0
 10
12.00000000000001
 20
-70.00000000000004
 30
0.0
 11
15.50875006369456
 21
-65.73543072785272
 31
0.0
 70
    36
 71
     5
 42
-1.0
 73
     0
 74
     0
 75
     0
  3
QCADDimStyle
100
AcDbRadialDimension
 15
13.71959993979089
 25
-68.97873801252024
 35
0.0
 40
0.0
1001
ACAD
1000
DSTYLE
1002
{
1070
    41
1040
0.18
1070
    44
1040
0.18
1070
    42
1040
0.0625
1070
   147
1040
0.09
1070
   144
1040
2.0
1070
    77
1070
     0
1070
    73
1070
     1
1070
   279
1070
     2
1070
   340
1005
0
1070
   140
1040
0.18
1002
}
  0
DIMENSION
  5
2A7C
330
2E56
100
AcDbEntity
  8
Bottom Stand ... Dimensions
100
AcDbDimension
280
     0
 10
12.00000000000008
 20
75.00000000000001
 30
0.0
 11
14.85498462339519
 21
79.72725511122442
 31
0.0
 70
    36
 71
     5
 42
-1.0
 73
     0
 74
     0
 75
     0
  3
QCADDimStyle
100
AcDbRadialDimension
 15
13.55379087570466
 25
76.25925927218236
 35
0.0
 40
0.0
1001
ACAD
1000
DSTYLE
1002
{
1070
    41
1040
0.18
1070
    44
1040
0.18
1070
    42
1040
0.0625
1070
   147
1040
0.09
1070
   144
1040
2.0
1070
    77
1070
     0
1070
    73
1070
     1
1070
   279
1070
     2
1070
   340
1005
0
1070
   140
1040
0.18
1002
}
  0
DIMENSION
  5
2B3E
330
2E56
100
AcDbEntity
  8
Bottom Stand ... Dimensions
100
AcDbDimension
280
     0
 10
12.00000000000008
 20
-39.99999999999999
 30
0.0
 11
14.85498462339518
 21
-35.27274488877557
 31
0.0
 70
    36
 71
     5
 42
-1.0
 73
     0
 74
     0
 75
     0
  3
QCADDimStyle
100
AcDbRadialDimension
 15
13.55379087570466
 25
-38.74074072781764
 35
0.0
 40
0.0
1001
ACAD
1000
DSTYLE
1002
{
1070
    41
1040
0.18
1070
    44
1040
0.18
1070
    42
1040
0.0625
1070
   147
1040
0.09
1070
   144
1040
2.0
1070
    77
1070
     0
1070
    73
1070
     1
1070
   279
1070
     2
1070
   340
1005
0
1070
   140
1040
0.18
1002
}
  0
DIMENSION
  5
2B42
330
2E56
100
AcDbEntity
  8
Bottom Stand ... Dimensions
100
AcDbDimension
280
     0
 10
70.0
 20
5.0
 30
0.0
 11
-5.0
 21
6.875
 31
0.0
 70
    32
 71
     5
 42
-1.0
 73
     0
 74
     0
 75
     0
  3
QCADDimStyle
100
AcDbAlignedDimension
 13
70.0
 23
35.0
 33
0.0
 14
-80.0
 24
35.0
 34
0.0
100
AcDbRotatedDimension
1001
ACAD
1000
DSTYLE
1002
{
1070
    49
1040
0.0
1070
   290
1070
     0
1070
   279
1070
     2
1070
    41
1040
2.5
1070
    79
1070
     2
1070
   176
1070
     0
1070
   177
1070
     0
1070
   178
1070
     0
1070
    44
1040
1.25
1070
    42
1040
0.625
1070
   147
1040
0.625
1070
   140
1040
2.5
1070
    78
1070
     8
1002
}
  0
DIMENSION
  5
2B43
330
2E56
100
AcDbEntity
  8
Bottom Stand ... Dimensions
100
AcDbDimension
280
     0
 10
70.0
 20
-110.0
 30
0.0
 11
-5.000000000000007
 21
-108.125
 31
0.0
 70
    32
 71
     5
 42
-1.0
 73
     0
 74
     0
 75
     0
  3
QCADDimStyle
100
AcDbAlignedDimension
 13
69.99999999999999
 23
-80.00000000000001
 33
0.0
 14
-80.0
 24
-79.99999999999999
 34
0.0
100
AcDbRotatedDimension
1001
ACAD
1000
DSTYLE
1002
{
1070
    49
1040
0.0
1070
   290
1070
     0
1070
   279
1070
     2
1070
    41
1040
2.5
1070
    79
1070
     2
1070
   176
1070
     0
1070
   177
1070
     0
1070
   178
1070
     0
1070
    44
1040
1.25
1070
    42
1040
0.625
1070
   147
1040
0.625
1070
   140
1040
2.5
1070
    78
1070
     8
1002
}
  0
DIMENSION
  5
2C3F
330
2E56
100
AcDbEntity
  8
Bottom Stand ... Dimensions
100
AcDbDimension
280
     0
 10
37.0
 20
55.0
 30
0.0
 11
39.34720167643868
 21
59.99885210588823
 31
0.0
 70
    36
 71
     5
 42
-1.0
 73
     0
 74
     0
 75
     0
  3
QCADDimStyle
100
AcDbRadialDimension
 15
38.41421356237309
 25
56.41421356237309
 35
0.0
 40
0.0
1001
ACAD
1000
DSTYLE
1002
{
1070
    41
1040
0.18
1070
    44
1040
0.18
1070
    42
1040
0.0625
1070
   147
1040
0.09
1070
   144
1040
2.0
1070
    77
1070
     0
1070
    73
1070
     1
1070
   279
1070
     2
1070
   340
1005
0
1070
   140
1040
0.18
1002
}
  0
DIMENSION
  5
2C40
330
2E56
100
AcDbEntity
  8
Bottom Stand ... Dimensions
100
AcDbDimension
280
     0
 10
45.0
 20
55.0
 30
0.0
 11
48.28197616099928
 21
59.44145365449783
 31
0.0
 70
    36
 71
     5
 42
-1.0
 73
     0
 74
     0
 75
     0
  3
QCADDimStyle
100
AcDbRadialDimension
 15
46.66410058867569
 25
56.10940039245045
 35
0.0
 40
0.0
1001
ACAD
1000
DSTYLE
1002
{
1070
    41
1040
0.18
1070
    44
1040
0.18
1070
    42
1040
0.0625
1070
   147
1040
0.09
1070
   144
1040
2.0
1070
    77
1070
     0
1070
    73
1070
     1
1070
   279
1070
     2
1070
   340
1005
0
1070
   140
1040
0.18
1002
}
  0
VIEWPORT
  5
2F29
330
2E52
100
AcDbEntity
 67
     1
  8
0
 62
    18
420
        0
100
AcDbViewport
 10
5.25
 20
4.0
 30
0.0
 40
11.638
 41
8.993
 68
     1
 69
     1
 12
5.25
 22
4.0
 13
0.0
 23
0.0
 14
0.5
 24
0.5
 15
0.5
 25
0.5
 16
0.0
 26
0.0
 36
1.0
 17
0.0
 27
0.0
 37
0.0
 42
50.0
 43
0.0
 44
0.0
 45
8.993
 50
0.0
 51
0.0
 72
   100
 90
   557152
  1

281
     0
 71
     1
 74
     0
110
0.0
120
0.0
130
0.0
111
1.0
121
0.0
131
0.0
112
0.0
122
1.0
132
0.0
 79
     0
146
0.0
170
     0
 61
     5
348
2E66
292
     1
282
     1
141
0.0
142
0.0
 63
   256
361
2F2A
  0
ENDSEC
  0
SECTION
  2
OBJECTS
  0
DICTIONARY
  5
2E44
330
0
100
AcDbDictionary
281
     1
  3
ACAD_DETAILVIEWSTYLE
350
2F41
  3
ACAD_GROUP
350
2E45
  3
ACAD_LAYOUT
350
2E51
  3
ACAD_MATERIAL
350
2E7A
  3
ACAD_MLEADERSTYLE
350
2EA2
  3
ACAD_MLINESTYLE
350
2E4E
  3
ACAD_PLOTSETTINGS
350
2E50
  3
ACAD_PLOTSTYLENAME
350
2E46
  3
ACAD_SCALELIST
350
2E7E
  3
ACAD_SECTIONVIEWSTYLE
350
2F42
  3
ACAD_TABLESTYLE
350
2EA0
  3
ACAD_VISUALSTYLE
350
2E61
  3
ACDB_RECOMPOSE_DATA
350
2F3E
  3
AcDbVariableDictionary
350
2F3A
  3
QCAD_OBJECTS
350
2EA6
  0
SUN
  5
2EA4
330
2E60
100
AcDbSun
 90
        1
290
     0
 63
     7
421
 16777215
 40
1.0
291
     1
 91
  2455826
 92
 54000000
292
     0
 70
     2
 71
   256
280
     1
  0
SUN
  5
2F2A
330
2F29
100
AcDbSun
 90
        1
290
     0
 63
     7
421
 16777215
 40
1.0
291
     1
 91
  2455826
 92
 54000000
292
     0
 70
     2
 71
   256
280
     1
  0
DICTIONARY
  5
2F41
102
{ACAD_REACTORS
330
2E44
102
}
330
2E44
100
AcDbDictionary
281
     1
  0
DICTIONARY
  5
2E45
102
{ACAD_REACTORS
330
2E44
102
}
330
2E44
100
AcDbDictionary
281
     1
  0
DICTIONARY
  5
2E51
102
{ACAD_REACTORS
330
2E44
102
}
330
2E44
100
AcDbDictionary
281
     1
  3
Layout1
350
2E55
  3
Model
350
2E59
  0
DICTIONARY
  5
2E7A
102
{ACAD_REACTORS
330
2E44
102
}
330
2E44
100
AcDbDictionary
281
     1
  3
ByBlock
350
2E7C
  3
ByLayer
350
2E7B
  3
Global
350
2E7D
  0
DICTIONARY
  5
2EA2
102
{ACAD_REACTORS
330
2E44
102
}
330
2E44
100
AcDbDictionary
281
     1
  3
Standard
350
2EA3
  0
DICTIONARY
  5
2E4E
102
{ACAD_REACTORS
330
2E44
102
}
330
2E44
100
AcDbDictionary
281
     1
  3
Standard
350
2E4F
  0
DICTIONARY
  5
2E50
102
{ACAD_REACTORS
330
2E44
102
}
330
2E44
100
AcDbDictionary
281
     1
  0
ACDBDICTIONARYWDFLT
  5
2E46
102
{ACAD_REACTORS
330
2E44
102
}
330
2E44
100
AcDbDictionary
281
     1
  3
Normal
350
2E47
100
AcDbDictionaryWithDefault
340
2E47
  0
DICTIONARY
  5
2E7E
102
{ACAD_REACTORS
330
2E44
102
}
330
2E44
100
AcDbDictionary
281
     1
  3
A0
350
2E7F
  3
A1
350
2E80
  3
A2
350
2E81
  3
A3
350
2E82
  3
A4
350
2E83
  3
A5
350
2E84
  3
A6
350
2E85
  3
A7
350
2E86
  3
A8
350
2E87
  3
A9
350
2E88
  3
B0
350
2E89
  3
B1
350
2E8A
  3
B2
350
2E8B
  3
B3
350
2E8C
  3
B4
350
2E8D
  3
B5
350
2E8E
  3
B6
350
2E8F
  3
B7
350
2E90
  3
B8
350
2E91
  3
B9
350
2E92
  3
C0
350
2E93
  3
C1
350
2E94
  3
C2
350
2E95
  3
C3
350
2E96
  3
C4
350
2E97
  3
C5
350
2E98
  3
C6
350
2E99
  3
C7
350
2E9A
  3
C8
350
2E9B
  3
C9
350
2E9C
  3
D0
350
2E9D
  3
D1
350
2E9E
  3
D2
350
2E9F
  0
DICTIONARY
  5
2F42
102
{ACAD_REACTORS
330
2E44
102
}
330
2E44
100
AcDbDictionary
281
     1
  0
DICTIONARY
  5
2EA0
102
{ACAD_REACTORS
330
2E44
102
}
330
2E44
100
AcDbDictionary
281
     1
  3
Standard
350
2EA1
  0
DICTIONARY
  5
2E61
102
{ACAD_REACTORS
330
2E44
102
}
330
2E44
100
AcDbDictionary
281
     1
  3
2dWireframe
350
2E66
  3
Basic
350
2E69
  3
Brighten
350
2E6D
  3
ColorChange
350
2E71
  3
Conceptual
350
2E6B
  3
Dim
350
2E6C
  3
EdgeColorOff
350
2E74
  3
Facepattern
350
2E70
  3
Flat
350
2E62
  3
FlatWithEdges
350
2E63
  3
Gouraud
350
2E64
  3
GouraudWithEdges
350
2E65
  3
Hidden
350
2E68
  3
JitterOff
350
2E72
  3
Linepattern
350
2E6F
  3
OverhangOff
350
2E73
  3
Realistic
350
2E6A
  3
Shaded
350
2E79
  3
Shaded with edges
350
2E78
  3
Shades of Gray
350
2E75
  3
Sketchy
350
2E76
  3
Thicken
350
2E6E
  3
Wireframe
350
2E67
  3
X-Ray
350
2E77
  0
XRECORD
  5
2F3E
102
{ACAD_REACTORS
330
2E44
102
}
330
2E44
100
AcDbXrecord
280
     1
 90
        1
330
2EA1
  0
DICTIONARY
  5
2F3A
102
{ACAD_REACTORS
330
2E44
102
}
330
2E44
100
AcDbDictionary
281
     1
  3
CANNOSCALE
350
2F3B
  3
CMLEADERSTYLE
350
2F40
  3
CTABLESTYLE
350
2F3F
  0
DICTIONARY
  5
2EA6
102
{ACAD_REACTORS
330
2E44
102
}
330
2E44
100
AcDbDictionary
281
     1
  3
ColorSettings/BackgroundColor
350
2EA8
  3
ColorSettings/ColorMode
350
2EA9
  3
Grid/DisplayGrid00
350
2EAA
  3
Grid/DisplayGrid01
350
2EAB
  3
Grid/DisplayGrid02
350
2EAC
  3
Grid/DisplayGrid03
350
2EAD
  3
Grid/GridSpacingX00
350
2EAE
  3
Grid/GridSpacingX01
350
2EAF
  3
Grid/GridSpacingX02
350
2EB0
  3
Grid/GridSpacingX03
350
2EB1
  3
Grid/GridSpacingY00
350
2EB2
  3
Grid/GridSpacingY01
350
2EB3
  3
Grid/GridSpacingY02
350
2EB4
  3
Grid/GridSpacingY03
350
2EB5
  3
Grid/IsometricGrid00
350
2EB6
  3
Grid/IsometricGrid01
350
2EB7
  3
Grid/IsometricGrid02
350
2EB8
  3
Grid/IsometricGrid03
350
2EB9
  3
Grid/IsometricProjection00
350
2EBA
  3
Grid/IsometricProjection01
350
2EBB
  3
Grid/IsometricProjection02
350
2EBC
  3
Grid/IsometricProjection03
350
2EBD
  3
Grid/MetaGridSpacingX00
350
2EBE
  3
Grid/MetaGridSpacingX01
350
2EBF
  3
Grid/MetaGridSpacingX02
350
2EC0
  3
Grid/MetaGridSpacingX03
350
2EC1
  3
Grid/MetaGridSpacingY00
350
2EC2
  3
Grid/MetaGridSpacingY01
350
2EC3
  3
Grid/MetaGridSpacingY02
350
2EC4
  3
Grid/MetaGridSpacingY03
350
2EC5
  3
MultiPageSettings/Columns
350
2EC6
  3
MultiPageSettings/GlueMarginsBottom
350
2EC7
  3
MultiPageSettings/GlueMarginsLeft
350
2EC8
  3
MultiPageSettings/GlueMarginsRight
350
2EC9
  3
MultiPageSettings/GlueMarginsTop
350
2ECA
  3
MultiPageSettings/PrintCropMarks
350
2ECB
  3
MultiPageSettings/Rows
350
2ECC
  3
PageSettings/OffsetX
350
2ECD
  3
PageSettings/OffsetY
350
2ECE
  3
PageSettings/PageOrientation
350
2ECF
  3
PageSettings/PaperHeight
350
2ED0
  3
PageSettings/PaperWidth
350
2ED1
  3
PageSettings/Scale
350
2ED2
  3
PageSettings/ShowPaperBorders
350
2ED3
  3
QCADVersion
350
2ED4
  3
UnitSettings/PaperUnit
350
2ED5
  3
ViewportCenter
350
2ED6
  3
ViewportHeight
350
2ED7
  3
ViewportWidth
350
2ED8
  0
LAYOUT
  5
2E55
102
{ACAD_REACTORS
330
2E51
102
}
330
2E51
100
AcDbPlotSettings
  1

  2
none_device
  4
Letter_(8.50_x_11.00_Inches)
  6

 40
6.35
 41
6.35
 42
6.35001
 43
6.35001
 44
215.9
 45
279.4
 46
0.0
 47
0.0
 48
0.0
 49
0.0
140
0.0
141
0.0
142
1.0
143
1.0
 70
   688
 72
     0
 73
     1
 74
     5
  7

 75
    16
 76
     0
 77
     2
 78
   300
147
1.0
148
0.0
149
0.0
100
AcDbLayout
  1
Layout1
 70
     1
 71
     0
 10
-0.25
 20
-0.25
 11
10.75
 21
8.25
 12
0.0
 22
0.0
 32
0.0
 14
0.0
 24
0.0
 34
0.0
 15
0.0
 25
0.0
 35
0.0
146
0.0
 13
0.0
 23
0.0
 33
0.0
 16
1.0
 26
0.0
 36
0.0
 17
0.0
 27
1.0
 37
0.0
 76
     0
330
2E52
331
2F29
  0
LAYOUT
  5
2E59
102
{ACAD_REACTORS
330
2E51
102
}
330
2E51
100
AcDbPlotSettings
  1

  2
none_device
  4
Letter_(8.50_x_11.00_Inches)
  6

 40
6.35
 41
6.35
 42
6.35000508
 43
6.35000508
 44
215.9
 45
279.4
 46
0.0
 47
0.0
 48
0.0
 49
0.0
140
0.0
141
0.0
142
1.0
143
1.0
 70
  1712
 72
     0
 73
     0
 74
     0
  7

 75
     0
 76
     0
 77
     2
 78
   300
147
1.0
148
0.0
149
0.0
100
AcDbLayout
  1
Model
 70
     1
 71
     0
 10
0.0
 20
0.0
 11
12.0
 21
9.0
 12
0.0
 22
0.0
 32
0.0
 14
-104.3883049785171
 24
-157.2442015809443
 34
0.0
 15
88.6116950214829
 25
122.7557984190557
 35
0.0
146
0.0
 13
0.0
 23
0.0
 33
0.0
 16
1.0
 26
0.0
 36
0.0
 17
0.0
 27
1.0
 37
0.0
 76
     0
330
2E56
331
2E60
  0
MATERIAL
  5
2E7C
102
{ACAD_REACTORS
330
2E7A
102
}
330
2E7A
100
AcDbMaterial
  1
ByBlock
 72
     1
 94
      127
  0
MATERIAL
  5
2E7B
102
{ACAD_REACTORS
330
2E7A
102
}
330
2E7A
100
AcDbMaterial
  1
ByLayer
 72
     1
 94
      127
  0
MATERIAL
  5
2E7D
102
{ACAD_REACTORS
330
2E7A
102
}
330
2E7A
100
AcDbMaterial
  1
Global
 72
     1
 94
      127
  0
MLEADERSTYLE
  5
2EA3
102
{ACAD_REACTORS
330
2EA2
102
}
330
2EA2
100
AcDbMLeaderStyle
179
     2
170
     2
171
     1
172
     0
 90
        2
 40
0.0
 41
0.0
173
     1
 91
-1056964608
340
2E4B
 92
       -2
290
     1
 42
0.09
291
     1
 43
0.36
  3
Standard
341
0
 44
0.18
300

342
2E49
174
     1
178
     6
175
     1
176
     0
 93
-1056964608
 45
0.18
292
     0
297
     0
 46
0.18
343
0
 94
-1056964608
 47
1.0
 49
1.0
140
1.0
293
     1
141
0.0
294
     1
177
     0
142
1.0
295
     0
296
     0
143
0.125
271
     0
272
     9
273
     9
298
     0
  0
MLINESTYLE
  5
2E4F
102
{ACAD_REACTORS
330
2E4E
102
}
330
2E4E
100
AcDbMlineStyle
  2
Standard
 70
     0
  3

 62
   256
 51
90.0
 52
90.0
 71
     2
 49
0.5
 62
   256
  6
BYLAYER
 49
-0.5
 62
   256
  6
BYLAYER
  0
ACDBPLACEHOLDER
  5
2E47
102
{ACAD_REACTORS
330
2E46
102
}
330
2E46
  0
SCALE
  5
2E7F
102
{ACAD_REACTORS
330
2E7E
102
}
330
2E7E
100
AcDbScale
 70
     0
300
1:1
140
1.0
141
1.0
290
     1
  0
SCALE
  5
2E80
102
{ACAD_REACTORS
330
2E7E
102
}
330
2E7E
100
AcDbScale
 70
     0
300
1:2
140
1.0
141
2.0
290
     0
  0
SCALE
  5
2E81
102
{ACAD_REACTORS
330
2E7E
102
}
330
2E7E
100
AcDbScale
 70
     0
300
1:4
140
1.0
141
4.0
290
     0
  0
SCALE
  5
2E82
102
{ACAD_REACTORS
330
2E7E
102
}
330
2E7E
100
AcDbScale
 70
     0
300
1:5
140
1.0
141
5.0
290
     0
  0
SCALE
  5
2E83
102
{ACAD_REACTORS
330
2E7E
102
}
330
2E7E
100
AcDbScale
 70
     0
300
1:8
140
1.0
141
8.0
290
     0
  0
SCALE
  5
2E84
102
{ACAD_REACTORS
330
2E7E
102
}
330
2E7E
100
AcDbScale
 70
     0
300
1:10
140
1.0
141
10.0
290
     0
  0
SCALE
  5
2E85
102
{ACAD_REACTORS
330
2E7E
102
}
330
2E7E
100
AcDbScale
 70
     0
300
1:16
140
1.0
141
16.0
290
     0
  0
SCALE
  5
2E86
102
{ACAD_REACTORS
330
2E7E
102
}
330
2E7E
100
AcDbScale
 70
     0
300
1:20
140
1.0
141
20.0
290
     0
  0
SCALE
  5
2E87
102
{ACAD_REACTORS
330
2E7E
102
}
330
2E7E
100
AcDbScale
 70
     0
300
1:30
140
1.0
141
30.0
290
     0
  0
SCALE
  5
2E88
102
{ACAD_REACTORS
330
2E7E
102
}
330
2E7E
100
AcDbScale
 70
     0
300
1:40
140
1.0
141
40.0
290
     0
  0
SCALE
  5
2E89
102
{ACAD_REACTORS
330
2E7E
102
}
330
2E7E
100
AcDbScale
 70
     0
300
1:50
140
1.0
141
50.0
290
     0
  0
SCALE
  5
2E8A
102
{ACAD_REACTORS
330
2E7E
102
}
330
2E7E
100
AcDbScale
 70
     0
300
1:100
140
1.0
141
100.0
290
     0
  0
SCALE
  5
2E8B
102
{ACAD_REACTORS
330
2E7E
102
}
330
2E7E
100
AcDbScale
 70
     0
300
2:1
140
2.0
141
1.0
290
     0
  0
SCALE
  5
2E8C
102
{ACAD_REACTORS
330
2E7E
102
}
330
2E7E
100
AcDbScale
 70
     0
300
4:1
140
4.0
141
1.0
290
     0
  0
SCALE
  5
2E8D
102
{ACAD_REACTORS
330
2E7E
102
}
330
2E7E
100
AcDbScale
 70
     0
300
8:1
140
8.0
141
1.0
290
     0
  0
SCALE
  5
2E8E
102
{ACAD_REACTORS
330
2E7E
102
}
330
2E7E
100
AcDbScale
 70
     0
300
10:1
140
10.0
141
1.0
290
     0
  0
SCALE
  5
2E8F
102
{ACAD_REACTORS
330
2E7E
102
}
330
2E7E
100
AcDbScale
 70
     0
300
100:1
140
100.0
141
1.0
290
     0
  0
SCALE
  5
2E90
102
{ACAD_REACTORS
330
2E7E
102
}
330
2E7E
100
AcDbScale
 70
     0
300
1/128" = 1'-0"
140
0.0078125
141
12.0
290
     0
  0
SCALE
  5
2E91
102
{ACAD_REACTORS
330
2E7E
102
}
330
2E7E
100
AcDbScale
 70
     0
300
1/64" = 1'-0"
140
0.015625
141
12.0
290
     0
  0
SCALE
  5
2E92
102
{ACAD_REACTORS
330
2E7E
102
}
330
2E7E
100
AcDbScale
 70
     0
300
1/32" = 1'-0"
140
0.03125
141
12.0
290
     0
  0
SCALE
  5
2E93
102
{ACAD_REACTORS
330
2E7E
102
}
330
2E7E
100
AcDbScale
 70
     0
300
1/16" = 1'-0"
140
0.0625
141
12.0
290
     0
  0
SCALE
  5
2E94
102
{ACAD_REACTORS
330
2E7E
102
}
330
2E7E
100
AcDbScale
 70
     0
300
3/32" = 1'-0"
140
0.09375
141
12.0
290
     0
  0
SCALE
  5
2E95
102
{ACAD_REACTORS
330
2E7E
102
}
330
2E7E
100
AcDbScale
 70
     0
300
1/8" = 1'-0"
140
0.125
141
12.0
290
     0
  0
SCALE
  5
2E96
102
{ACAD_REACTORS
330
2E7E
102
}
330
2E7E
100
AcDbScale
 70
     0
300
3/16" = 1'-0"
140
0.1875
141
12.0
290
     0
  0
SCALE
  5
2E97
102
{ACAD_REACTORS
330
2E7E
102
}
330
2E7E
100
AcDbScale
 70
     0
300
1/4" = 1'-0"
140
0.25
141
12.0
290
     0
  0
SCALE
  5
2E98
102
{ACAD_REACTORS
330
2E7E
102
}
330
2E7E
100
AcDbScale
 70
     0
300
3/8" = 1'-0"
140
0.375
141
12.0
290
     0
  0
SCALE
  5
2E99
102
{ACAD_REACTORS
330
2E7E
102
}
330
2E7E
100
AcDbScale
 70
     0
300
1/2" = 1'-0"
140
0.5
141
12.0
290
     0
  0
SCALE
  5
2E9A
102
{ACAD_REACTORS
330
2E7E
102
}
330
2E7E
100
AcDbScale
 70
     0
300
3/4" = 1'-0"
140
0.75
141
12.0
290
     0
  0
SCALE
  5
2E9B
102
{ACAD_REACTORS
330
2E7E
102
}
330
2E7E
100
AcDbScale
 70
     0
300
1" = 1'-0"
140
1.0
141
12.0
290
     0
  0
SCALE
  5
2E9C
102
{ACAD_REACTORS
330
2E7E
102
}
330
2E7E
100
AcDbScale
 70
     0
300
1-1/2" = 1'-0"
140
1.5
141
12.0
290
     0
  0
SCALE
  5
2E9D
102
{ACAD_REACTORS
330
2E7E
102
}
330
2E7E
100
AcDbScale
 70
     0
300
3" = 1'-0"
140
3.0
141
12.0
290
     0
  0
SCALE
  5
2E9E
102
{ACAD_REACTORS
330
2E7E
102
}
330
2E7E
100
AcDbScale
 70
     0
300
6" = 1'-0"
140
6.0
141
12.0
290
     0
  0
SCALE
  5
2E9F
102
{ACAD_REACTORS
330
2E7E
102
}
330
2E7E
100
AcDbScale
 70
     0
300
1'-0" = 1'-0"
140
12.0
141
12.0
290
     0
  0
TABLESTYLE
  5
2EA1
102
{ACAD_REACTORS
330
2EA0
102
}
102
{ACAD_XDICTIONARY
360
2F3C
102
}
330
2EA0
100
AcDbTableStyle
  3
Standard
 70
     0
 71
     0
 40
0.06
 41
0.06
280
     0
281
     0
  7
Standard
140
0.18
170
     2
 62
     0
 63
   257
283
     0
 90
        4
 91
        0
  1

274
    -2
284
     1
 64
     0
275
    -2
285
     1
 65
     0
276
    -2
286
     1
 66
     0
277
    -2
287
     1
 67
     0
278
    -2
288
     1
 68
     0
279
    -2
289
     1
 69
     0
  7
Standard
140
0.25
170
     5
 62
     0
 63
   257
283
     0
 90
        4
 91
        0
  1

274
    -2
284
     1
 64
     0
275
    -2
285
     1
 65
     0
276
    -2
286
     1
 66
     0
277
    -2
287
     1
 67
     0
278
    -2
288
     1
 68
     0
279
    -2
289
     1
 69
     0
  7
Standard
140
0.18
170
     5
 62
     0
 63
   257
283
     0
 90
        4
 91
        0
  1

274
    -2
284
     1
 64
     0
275
    -2
285
     1
 65
     0
276
    -2
286
     1
 66
     0
277
    -2
287
     1
 67
     0
278
    -2
288
     1
 68
     0
279
    -2
289
     1
 69
     0
  0
VISUALSTYLE
  5
2E66
102
{ACAD_REACTORS
330
2E61
102
}
330
2E61
100
AcDbVisualStyle
  2
2dWireframe
 70
     4
177
     3
291
     0
 70
    58
 90
        0
176
     1
 90
        2
176
     1
 90
        0
176
     1
 90
        0
176
     1
 40
0.6
176
     1
 40
30.0
176
     1
 62
     7
420
 16777215
176
     1
 90
        1
176
     1
 90
        4
176
     1
 62
     7
176
     1
 62
   257
176
     1
 90
        1
176
     1
 90
        1
176
     1
 40
1.0
176
     1
 90
        0
176
     1
 62
   257
176
     1
 40
1.0
176
     1
 90
        1
176
     1
 90
        6
176
     1
 90
        2
176
     1
 62
     7
176
     1
 90
        5
176
     1
 90
        0
176
     1
 90
        0
176
     1
290
     0
176
     1
 90
        1
176
     1
 40
0.0
176
     1
 90
        0
176
     1
290
     1
176
     1
290
     1
176
     1
290
     0
176
     1
290
     0
176
     1
290
     0
176
     1
290
     0
176
     1
290
     0
176
     1
290
     0
176
     1
290
     0
176
     1
 90
       50
176
     1
 40
0.0
176
     1
 40
1.0
176
     1
 90
        0
176
     1
 62
    18
420
        0
176
     1
 90
       50
176
     1
 90
        3
176
     1
 62
     5
420
      255
176
     1
290
     0
176
     1
 90
       50
176
     1
 90
       50
176
     1
 90
       50
176
     1
290
     0
176
     1
 90
       50
176
     1
 62
   256
176
     0
 40
1.0
176
     0
 90
        2
176
     1
  1
strokes_ogs.tif
176
     1
290
     0
176
     1
 40
1.0
176
     1
 40
1.0
176
     1
  0
VISUALSTYLE
  5
2E69
102
{ACAD_REACTORS
330
2E61
102
}
330
2E61
100
AcDbVisualStyle
  2
Basic
 70
     7
177
     3
291
     1
 70
    58
 90
        1
176
     1
 90
        0
176
     1
 90
        1
176
     1
 90
        0
176
     1
 40
0.6
176
     1
 40
30.0
176
     1
 62
     7
420
 16777215
176
     1
 90
        0
176
     1
 90
        4
176
     1
 62
     7
176
     1
 62
   257
176
     1
 90
        1
176
     1
 90
        1
176
     1
 40
1.0
176
     1
 90
        8
176
     1
 62
     7
176
     1
 40
1.0
176
     1
 90
        1
176
     1
 90
        6
176
     1
 90
        2
176
     1
 62
     7
176
     1
 90
        5
176
     1
 90
        0
176
     1
 90
        0
176
     1
290
     0
176
     1
 90
        1
176
     1
 40
0.0
176
     1
 90
        0
176
     1
290
     0
176
     1
290
     1
176
     1
290
     1
176
     1
290
     0
176
     1
290
     0
176
     1
290
     0
176
     1
290
     0
176
     1
290
     0
176
     1
290
     0
176
     1
 90
       50
176
     1
 40
0.0
176
     1
 40
1.0
176
     1
 90
        0
176
     1
 62
    18
420
        0
176
     1
 90
       50
176
     1
 90
        3
176
     1
 62
     5
420
      255
176
     1
290
     0
176
     1
 90
       50
176
     1
 90
       50
176
     1
 90
       50
176
     1
290
     0
176
     1
 90
       50
176
     1
 62
   256
176
     0
 40
1.0
176
     0
 90
        2
176
     1
  1
strokes_ogs.tif
176
     1
290
     0
176
     1
 40
1.0
176
     1
 40
1.0
176
     1
  0
VISUALSTYLE
  5
2E6D
102
{ACAD_REACTORS
330
2E61
102
}
330
2E61
100
AcDbVisualStyle
  2
Brighten
 70
    12
177
     3
291
     1
 70
    58
 90
        2
176
     1
 90
        2
176
     1
 90
        0
176
     1
 90
        0
176
     1
 40
0.6
176
     1
 40
30.0
176
     1
 62
     7
420
 16777215
176
     1
 90
        1
176
     1
 90
        4
176
     1
 62
     7
176
     1
 62
   257
176
     1
 90
        1
176
     1
 90
        1
176
     1
 40
1.0
176
     1
 90
        8
176
     1
 62
     7
176
     1
 40
1.0
176
     1
 90
        1
176
     1
 90
        6
176
     1
 90
        2
176
     1
 62
     7
176
     1
 90
        5
176
     1
 90
        0
176
     1
 90
        0
176
     1
290
     0
176
     1
 90
        1
176
     1
 40
50.0
176
     1
 90
        0
176
     1
290
     0
176
     1
290
     1
176
     1
290
     1
176
     1
290
     0
176
     1
290
     0
176
     1
290
     0
176
     1
290
     0
176
     1
290
     0
176
     1
290
     0
176
     1
 90
       50
176
     1
 40
0.0
176
     1
 40
1.0
176
     1
 90
        0
176
     1
 62
    18
420
        0
176
     1
 90
       50
176
     1
 90
        3
176
     1
 62
     5
420
      255
176
     1
290
     0
176
     1
 90
       50
176
     1
 90
       50
176
     1
 90
       50
176
     1
290
     0
176
     1
 90
       50
176
     1
 62
   256
176
     0
 40
1.0
176
     0
 90
        2
176
     1
  1
strokes_ogs.tif
176
     1
290
     0
176
     1
 40
1.0
176
     1
 40
1.0
176
     1
  0
VISUALSTYLE
  5
2E71
102
{ACAD_REACTORS
330
2E61
102
}
330
2E61
100
AcDbVisualStyle
  2
ColorChange
 70
    16
177
     3
291
     1
 70
    58
 90
        2
176
     1
 90
        2
176
     1
 90
        3
176
     1
 90
        0
176
     1
 40
0.6
176
     1
 40
30.0
176
     1
 62
     8
420
  8421504
176
     1
 90
        1
176
     1
 90
        4
176
     1
 62
     7
176
     1
 62
   257
176
     1
 90
        1
176
     1
 90
        1
176
     1
 40
1.0
176
     1
 90
        8
176
     1
 62
     8
420
  8421504
176
     1
 40
1.0
176
     1
 90
        1
176
     1
 90
        6
176
     1
 90
        2
176
     1
 62
     7
176
     1
 90
        5
176
     1
 90
        0
176
     1
 90
        0
176
     1
290
     0
176
     1
 90
        1
176
     1
 40
0.0
176
     1
 90
        0
176
     1
290
     0
176
     1
290
     1
176
     1
290
     1
176
     1
290
     0
176
     1
290
     0
176
     1
290
     0
176
     1
290
     0
176
     1
290
     0
176
     1
290
     0
176
     1
 90
       50
176
     1
 40
0.0
176
     1
 40
1.0
176
     1
 90
        0
176
     1
 62
    18
420
        0
176
     1
 90
       50
176
     1
 90
        3
176
     1
 62
     5
420
      255
176
     1
290
     0
176
     1
 90
       50
176
     1
 90
       50
176
     1
 90
       50
176
     1
290
     0
176
     1
 90
       50
176
     1
 62
   256
176
     0
 40
1.0
176
     0
 90
        2
176
     1
  1
strokes_ogs.tif
176
     1
290
     0
176
     1
 40
1.0
176
     1
 40
1.0
176
     1
  0
VISUALSTYLE
  5
2E6B
102
{ACAD_REACTORS
330
2E61
102
}
330
2E61
100
AcDbVisualStyle
  2
Conceptual
 70
     9
177
     3
291
     0
 70
    58
 90
        3
176
     1
 90
        2
176
     1
 90
        0
176
     1
 90
        0
176
     1
 40
0.6
176
     1
 40
30.0
176
     1
 62
     7
420
 16777215
176
     1
 90
        2
176
     1
 90
        2
176
     1
 62
     7
176
     1
 62
   257
176
     1
 90
        1
176
     1
 90
        1
176
     1
 40
179.0
176
     1
 90
        8
176
     1
 62
     7
176
     1
 40
1.0
176
     1
 90
        1
176
     1
 90
        6
176
     1
 90
        2
176
     1
 62
     7
176
     1
 90
        3
176
     1
 90
        0
176
     1
 90
        0
176
     1
290
     0
176
     1
 90
        1
176
     1
 40
0.0
176
     1
 90
        0
176
     1
290
     0
176
     1
290
     1
176
     1
290
     1
176
     1
290
     0
176
     1
290
     0
176
     1
290
     0
176
     1
290
     0
176
     1
290
     0
176
     1
290
     0
176
     1
 90
       50
176
     1
 40
0.0
176
     1
 40
1.0
176
     1
 90
        0
176
     1
 62
    18
420
        0
176
     1
 90
       50
176
     1
 90
        3
176
     1
 62
     5
420
      255
176
     1
290
     0
176
     1
 90
       50
176
     1
 90
       50
176
     1
 90
       50
176
     1
290
     0
176
     1
 90
       50
176
     1
 62
   256
176
     0
 40
1.0
176
     0
 90
        2
176
     1
  1
strokes_ogs.tif
176
     1
290
     0
176
     1
 40
1.0
176
     1
 40
1.0
176
     1
  0
VISUALSTYLE
  5
2E6C
102
{ACAD_REACTORS
330
2E61
102
}
330
2E61
100
AcDbVisualStyle
  2
Dim
 70
    11
177
     3
291
     1
 70
    58
 90
        2
176
     1
 90
        2
176
     1
 90
        0
176
     1
 90
        0
176
     1
 40
0.6
176
     1
 40
30.0
176
     1
 62
     7
420
 16777215
176
     1
 90
        1
176
     1
 90
        4
176
     1
 62
     7
176
     1
 62
   257
176
     1
 90
        1
176
     1
 90
        1
176
     1
 40
1.0
176
     1
 90
        8
176
     1
 62
     7
176
     1
 40
1.0
176
     1
 90
        1
176
     1
 90
        6
176
     1
 90
        2
176
     1
 62
     7
176
     1
 90
        5
176
     1
 90
        0
176
     1
 90
        0
176
     1
290
     0
176
     1
 90
        1
176
     1
 40
-50.0
176
     1
 90
        0
176
     1
290
     0
176
     1
290
     1
176
     1
290
     1
176
     1
290
     0
176
     1
290
     0
176
     1
290
     0
176
     1
290
     0
176
     1
290
     0
176
     1
290
     0
176
     1
 90
       50
176
     1
 40
0.0
176
     1
 40
1.0
176
     1
 90
        0
176
     1
 62
    18
420
        0
176
     1
 90
       50
176
     1
 90
        3
176
     1
 62
     5
420
      255
176
     1
290
     0
176
     1
 90
       50
176
     1
 90
       50
176
     1
 90
       50
176
     1
290
     0
176
     1
 90
       50
176
     1
 62
   256
176
     0
 40
1.0
176
     0
 90
        2
176
     1
  1
strokes_ogs.tif
176
     1
290
     0
176
     1
 40
1.0
176
     1
 40
1.0
176
     1
  0
VISUALSTYLE
  5
2E74
102
{ACAD_REACTORS
330
2E61
102
}
330
2E61
100
AcDbVisualStyle
  2
EdgeColorOff
 70
    22
177
     3
291
     1
 70
    58
 90
        2
176
     0
 90
        2
176
     0
 90
        0
176
     0
 90
        0
176
     0
 40
0.6
176
     0
 40
30.0
176
     0
 62
     7
420
 16777215
176
     0
 90
        1
176
     0
 90
        4
176
     0
 62
     7
176
     0
 62
   257
176
     0
 90
        1
176
     0
 90
        1
176
     0
 40
1.0
176
     0
 90
        8
176
     2
 62
     7
176
     0
 40
1.0
176
     0
 90
        1
176
     0
 90
        6
176
     0
 90
        2
176
     0
 62
     7
176
     0
 90
        5
176
     0
 90
        0
176
     0
 90
        0
176
     0
290
     0
176
     0
 90
        1
176
     0
 40
0.0
176
     0
 90
        0
176
     0
290
     0
176
     0
290
     1
176
     0
290
     1
176
     0
290
     0
176
     0
290
     0
176
     0
290
     0
176
     0
290
     0
176
     0
290
     0
176
     0
290
     0
176
     0
 90
       50
176
     0
 40
0.0
176
     0
 40
1.0
176
     0
 90
        0
176
     0
 62
    18
420
        0
176
     0
 90
       50
176
     0
 90
        3
176
     0
 62
     5
420
      255
176
     0
290
     0
176
     0
 90
       50
176
     0
 90
       50
176
     0
 90
       50
176
     0
290
     0
176
     0
 90
       50
176
     0
 62
   256
176
     0
 40
1.0
176
     0
 90
        2
176
     0
  1
strokes_ogs.tif
176
     0
290
     0
176
     0
 40
1.0
176
     0
 40
1.0
176
     0
  0
VISUALSTYLE
  5
2E70
102
{ACAD_REACTORS
330
2E61
102
}
330
2E61
100
AcDbVisualStyle
  2
Facepattern
 70
    15
177
     3
291
     1
 70
    58
 90
        2
176
     1
 90
        2
176
     1
 90
        0
176
     1
 90
        0
176
     1
 40
0.6
176
     1
 40
30.0
176
     1
 62
     7
420
 16777215
176
     1
 90
        1
176
     1
 90
        4
176
     1
 62
     7
176
     1
 62
   257
176
     1
 90
        1
176
     1
 90
        1
176
     1
 40
1.0
176
     1
 90
        8
176
     1
 62
     7
176
     1
 40
1.0
176
     1
 90
        1
176
     1
 90
        6
176
     1
 90
        2
176
     1
 62
     7
176
     1
 90
        5
176
     1
 90
        0
176
     1
 90
        0
176
     1
290
     0
176
     1
 90
        1
176
     1
 40
0.0
176
     1
 90
        0
176
     1
290
     0
176
     1
290
     1
176
     1
290
     1
176
     1
290
     0
176
     1
290
     0
176
     1
290
     0
176
     1
290
     0
176
     1
290
     0
176
     1
290
     0
176
     1
 90
       50
176
     1
 40
0.0
176
     1
 40
1.0
176
     1
 90
        0
176
     1
 62
    18
420
        0
176
     1
 90
       50
176
     1
 90
        3
176
     1
 62
     5
420
      255
176
     1
290
     0
176
     1
 90
       50
176
     1
 90
       50
176
     1
 90
       50
176
     1
290
     0
176
     1
 90
       50
176
     1
 62
   256
176
     0
 40
1.0
176
     0
 90
        2
176
     1
  1
strokes_ogs.tif
176
     1
290
     0
176
     1
 40
1.0
176
     1
 40
1.0
176
     1
  0
VISUALSTYLE
  5
2E62
102
{ACAD_REACTORS
330
2E61
102
}
330
2E61
100
AcDbVisualStyle
  2
Flat
 70
     0
177
     3
291
     1
 70
    58
 90
        2
176
     1
 90
        1
176
     1
 90
        1
176
     1
 90
        2
176
     1
 40
0.6
176
     1
 40
30.0
176
     1
 62
     7
420
 16777215
176
     1
 90
        0
176
     1
 90
        0
176
     1
 62
     7
176
     1
 62
   257
176
     1
 90
        1
176
     1
 90
        1
176
     1
 40
1.0
176
     1
 90
        8
176
     1
 62
     7
176
     1
 40
1.0
176
     1
 90
        1
176
     1
 90
        6
176
     1
 90
        2
176
     1
 62
     7
176
     1
 90
        5
176
     1
 90
        0
176
     1
 90
        0
176
     1
290
     0
176
     1
 90
       13
176
     1
 40
0.0
176
     1
 90
        0
176
     1
290
     0
176
     1
290
     1
176
     1
290
     1
176
     1
290
     0
176
     1
290
     0
176
     1
290
     0
176
     1
290
     0
176
     1
290
     0
176
     1
290
     0
176
     1
 90
       50
176
     1
 40
0.0
176
     1
 40
1.0
176
     1
 90
        0
176
     1
 62
    18
420
        0
176
     1
 90
       50
176
     1
 90
        3
176
     1
 62
     5
420
      255
176
     1
290
     0
176
     1
 90
       50
176
     1
 90
       50
176
     1
 90
       50
176
     1
290
     0
176
     1
 90
       50
176
     1
 62
   256
176
     0
 40
1.0
176
     0
 90
        2
176
     1
  1
strokes_ogs.tif
176
     1
290
     0
176
     1
 40
1.0
176
     1
 40
1.0
176
     1
  0
VISUALSTYLE
  5
2E63
102
{ACAD_REACTORS
330
2E61
102
}
330
2E61
100
AcDbVisualStyle
  2
FlatWithEdges
 70
     1
177
     3
291
     1
 70
    58
 90
        2
176
     1
 90
        1
176
     1
 90
        1
176
     1
 90
        2
176
     1
 40
0.6
176
     1
 40
30.0
176
     1
 62
     7
420
 16777215
176
     1
 90
        1
176
     1
 90
        0
176
     1
 62
     7
176
     1
 62
   257
176
     1
 90
        1
176
     1
 90
        1
176
     1
 40
1.0
176
     1
 90
        0
176
     1
 62
   257
176
     1
 40
1.0
176
     1
 90
        1
176
     1
 90
        6
176
     1
 90
        2
176
     1
 62
     7
176
     1
 90
        5
176
     1
 90
        0
176
     1
 90
        0
176
     1
290
     0
176
     1
 90
       13
176
     1
 40
0.0
176
     1
 90
        0
176
     1
290
     0
176
     1
290
     1
176
     1
290
     1
176
     1
290
     0
176
     1
290
     0
176
     1
290
     0
176
     1
290
     0
176
     1
290
     0
176
     1
290
     0
176
     1
 90
       50
176
     1
 40
0.0
176
     1
 40
1.0
176
     1
 90
        0
176
     1
 62
    18
420
        0
176
     1
 90
       50
176
     1
 90
        3
176
     1
 62
     5
420
      255
176
     1
290
     0
176
     1
 90
       50
176
     1
 90
       50
176
     1
 90
       50
176
     1
290
     0
176
     1
 90
       50
176
     1
 62
   256
176
     0
 40
1.0
176
     0
 90
        2
176
     1
  1
strokes_ogs.tif
176
     1
290
     0
176
     1
 40
1.0
176
     1
 40
1.0
176
     1
  0
VISUALSTYLE
  5
2E64
102
{ACAD_REACTORS
330
2E61
102
}
330
2E61
100
AcDbVisualStyle
  2
Gouraud
 70
     2
177
     3
291
     1
 70
    58
 90
        2
176
     1
 90
        2
176
     1
 90
        1
176
     1
 90
        2
176
     1
 40
0.6
176
     1
 40
30.0
176
     1
 62
     7
420
 16777215
176
     1
 90
        0
176
     1
 90
        0
176
     1
 62
     7
176
     1
 62
   257
176
     1
 90
        1
176
     1
 90
        1
176
     1
 40
1.0
176
     1
 90
        0
176
     1
 62
     7
176
     1
 40
1.0
176
     1
 90
        1
176
     1
 90
        6
176
     1
 90
        2
176
     1
 62
     7
176
     1
 90
        5
176
     1
 90
        0
176
     1
 90
        0
176
     1
290
     0
176
     1
 90
       13
176
     1
 40
0.0
176
     1
 90
        0
176
     1
290
     0
176
     1
290
     1
176
     1
290
     1
176
     1
290
     0
176
     1
290
     0
176
     1
290
     0
176
     1
290
     0
176
     1
290
     0
176
     1
290
     0
176
     1
 90
       50
176
     1
 40
0.0
176
     1
 40
1.0
176
     1
 90
        0
176
     1
 62
    18
420
        0
176
     1
 90
       50
176
     1
 90
        3
176
     1
 62
     5
420
      255
176
     1
290
     0
176
     1
 90
       50
176
     1
 90
       50
176
     1
 90
       50
176
     1
290
     0
176
     1
 90
       50
176
     1
 62
   256
176
     0
 40
1.0
176
     0
 90
        2
176
     1
  1
strokes_ogs.tif
176
     1
290
     0
176
     1
 40
1.0
176
     1
 40
1.0
176
     1
  0
VISUALSTYLE
  5
2E65
102
{ACAD_REACTORS
330
2E61
102
}
330
2E61
100
AcDbVisualStyle
  2
GouraudWithEdges
 70
     3
177
     3
291
     1
 70
    58
 90
        2
176
     1
 90
        2
176
     1
 90
        1
176
     1
 90
        2
176
     1
 40
0.6
176
     1
 40
30.0
176
     1
 62
     7
420
 16777215
176
     1
 90
        1
176
     1
 90
        0
176
     1
 62
     7
176
     1
 62
   257
176
     1
 90
        1
176
     1
 90
        1
176
     1
 40
1.0
176
     1
 90
        0
176
     1
 62
   257
176
     1
 40
1.0
176
     1
 90
        1
176
     1
 90
        6
176
     1
 90
        2
176
     1
 62
     7
176
     1
 90
        5
176
     1
 90
        0
176
     1
 90
        0
176
     1
290
     0
176
     1
 90
       13
176
     1
 40
0.0
176
     1
 90
        0
176
     1
290
     0
176
     1
290
     1
176
     1
290
     1
176
     1
290
     0
176
     1
290
     0
176
     1
290
     0
176
     1
290
     0
176
     1
290
     0
176
     1
290
     0
176
     1
 90
       50
176
     1
 40
0.0
176
     1
 40
1.0
176
     1
 90
        0
176
     1
 62
    18
420
        0
176
     1
 90
       50
176
     1
 90
        3
176
     1
 62
     5
420
      255
176
     1
290
     0
176
     1
 90
       50
176
     1
 90
       50
176
     1
 90
       50
176
     1
290
     0
176
     1
 90
       50
176
     1
 62
   256
176
     0
 40
1.0
176
     0
 90
        2
176
     1
  1
strokes_ogs.tif
176
     1
290
     0
176
     1
 40
1.0
176
     1
 40
1.0
176
     1
  0
VISUALSTYLE
  5
2E68
102
{ACAD_REACTORS
330
2E61
102
}
330
2E61
100
AcDbVisualStyle
  2
Hidden
 70
     6
177
     3
291
     0
 70
    58
 90
        1
176
     1
 90
        2
176
     1
 90
        2
176
     1
 90
        0
176
     1
 40
0.6
176
     1
 40
30.0
176
     1
 62
     7
420
 16777215
176
     1
 90
        2
176
     1
 90
        2
176
     1
 62
     7
176
     1
 62
   257
176
     1
 90
        2
176
     1
 90
        1
176
     1
 40
40.0
176
     1
 90
        0
176
     1
 62
   257
176
     1
 40
1.0
176
     1
 90
        1
176
     1
 90
        6
176
     1
 90
        2
176
     1
 62
     7
176
     1
 90
        3
176
     1
 90
        0
176
     1
 90
        0
176
     1
290
     0
176
     1
 90
        1
176
     1
 40
0.0
176
     1
 90
        0
176
     1
290
     0
176
     1
290
     1
176
     1
290
     1
176
     1
290
     0
176
     1
290
     0
176
     1
290
     0
176
     1
290
     0
176
     1
290
     0
176
     1
290
     0
176
     1
 90
       50
176
     1
 40
0.0
176
     1
 40
1.0
176
     1
 90
        0
176
     1
 62
    18
420
        0
176
     1
 90
       50
176
     1
 90
        3
176
     1
 62
     5
420
      255
176
     1
290
     0
176
     1
 90
       50
176
     1
 90
       50
176
     1
 90
       50
176
     1
290
     0
176
     1
 90
       50
176
     1
 62
   256
176
     0
 40
1.0
176
     0
 90
        2
176
     1
  1
strokes_ogs.tif
176
     1
290
     0
176
     1
 40
1.0
176
     1
 40
1.0
176
     1
  0
VISUALSTYLE
  5
2E72
102
{ACAD_REACTORS
330
2E61
102
}
330
2E61
100
AcDbVisualStyle
  2
JitterOff
 70
    20
177
     3
291
     1
 70
    58
 90
        2
176
     0
 90
        2
176
     0
 90
        0
176
     0
 90
        0
176
     0
 40
0.6
176
     0
 40
30.0
176
     0
 62
     7
420
 16777215
176
     0
 90
        1
176
     0
 90
        4
176
     0
 62
     7
176
     0
 62
   257
176
     0
 90
        1
176
     0
 90
        1
176
     0
 40
1.0
176
     0
 90
       10
176
     2
 62
     7
176
     0
 40
1.0
176
     0
 90
        1
176
     0
 90
        6
176
     0
 90
        2
176
     0
 62
     7
176
     0
 90
        5
176
     0
 90
        0
176
     0
 90
        0
176
     0
290
     0
176
     0
 90
        1
176
     0
 40
0.0
176
     0
 90
        0
176
     0
290
     0
176
     0
290
     1
176
     0
290
     1
176
     0
290
     0
176
     0
290
     0
176
     0
290
     0
176
     0
290
     0
176
     0
290
     0
176
     0
290
     0
176
     0
 90
       50
176
     0
 40
0.0
176
     0
 40
1.0
176
     0
 90
        0
176
     0
 62
    18
420
        0
176
     0
 90
       50
176
     0
 90
        3
176
     0
 62
     5
420
      255
176
     0
290
     0
176
     0
 90
       50
176
     0
 90
       50
176
     0
 90
       50
176
     0
290
     0
176
     0
 90
       50
176
     0
 62
   256
176
     0
 40
1.0
176
     0
 90
        2
176
     0
  1
strokes_ogs.tif
176
     0
290
     0
176
     0
 40
1.0
176
     0
 40
1.0
176
     0
  0
VISUALSTYLE
  5
2E6F
102
{ACAD_REACTORS
330
2E61
102
}
330
2E61
100
AcDbVisualStyle
  2
Linepattern
 70
    14
177
     3
291
     1
 70
    58
 90
        2
176
     1
 90
        2
176
     1
 90
        0
176
     1
 90
        0
176
     1
 40
0.6
176
     1
 40
30.0
176
     1
 62
     7
420
 16777215
176
     1
 90
        1
176
     1
 90
        4
176
     1
 62
     7
176
     1
 62
   257
176
     1
 90
        7
176
     1
 90
        7
176
     1
 40
1.0
176
     1
 90
        8
176
     1
 62
     7
176
     1
 40
1.0
176
     1
 90
        1
176
     1
 90
        6
176
     1
 90
        2
176
     1
 62
     7
176
     1
 90
        5
176
     1
 90
        0
176
     1
 90
        0
176
     1
290
     0
176
     1
 90
        1
176
     1
 40
0.0
176
     1
 90
        0
176
     1
290
     0
176
     1
290
     1
176
     1
290
     1
176
     1
290
     0
176
     1
290
     0
176
     1
290
     0
176
     1
290
     0
176
     1
290
     0
176
     1
290
     0
176
     1
 90
       50
176
     1
 40
0.0
176
     1
 40
1.0
176
     1
 90
        0
176
     1
 62
    18
420
        0
176
     1
 90
       50
176
     1
 90
        3
176
     1
 62
     5
420
      255
176
     1
290
     0
176
     1
 90
       50
176
     1
 90
       50
176
     1
 90
       50
176
     1
290
     0
176
     1
 90
       50
176
     1
 62
   256
176
     0
 40
1.0
176
     0
 90
        2
176
     1
  1
strokes_ogs.tif
176
     1
290
     0
176
     1
 40
1.0
176
     1
 40
1.0
176
     1
  0
VISUALSTYLE
  5
2E73
102
{ACAD_REACTORS
330
2E61
102
}
330
2E61
100
AcDbVisualStyle
  2
OverhangOff
 70
    21
177
     3
291
     1
 70
    58
 90
        2
176
     0
 90
        2
176
     0
 90
        0
176
     0
 90
        0
176
     0
 40
0.6
176
     0
 40
30.0
176
     0
 62
     7
420
 16777215
176
     0
 90
        1
176
     0
 90
        4
176
     0
 62
     7
176
     0
 62
   257
176
     0
 90
        1
176
     0
 90
        1
176
     0
 40
1.0
176
     0
 90
        9
176
     2
 62
     7
176
     0
 40
1.0
176
     0
 90
        1
176
     0
 90
        6
176
     0
 90
        2
176
     0
 62
     7
176
     0
 90
        5
176
     0
 90
        0
176
     0
 90
        0
176
     0
290
     0
176
     0
 90
        1
176
     0
 40
0.0
176
     0
 90
        0
176
     0
290
     0
176
     0
290
     1
176
     0
290
     1
176
     0
290
     0
176
     0
290
     0
176
     0
290
     0
176
     0
290
     0
176
     0
290
     0
176
     0
290
     0
176
     0
 90
       50
176
     0
 40
0.0
176
     0
 40
1.0
176
     0
 90
        0
176
     0
 62
    18
420
        0
176
     0
 90
       50
176
     0
 90
        3
176
     0
 62
     5
420
      255
176
     0
290
     0
176
     0
 90
       50
176
     0
 90
       50
176
     0
 90
       50
176
     0
290
     0
176
     0
 90
       50
176
     0
 62
   256
176
     0
 40
1.0
176
     0
 90
        2
176
     0
  1
strokes_ogs.tif
176
     0
290
     0
176
     0
 40
1.0
176
     0
 40
1.0
176
     0
  0
VISUALSTYLE
  5
2E6A
102
{ACAD_REACTORS
330
2E61
102
}
330
2E61
100
AcDbVisualStyle
  2
Realistic
 70
     8
177
     3
291
     0
 70
    58
 90
        2
176
     1
 90
        3
176
     1
 90
        0
176
     1
 90
        2
176
     1
 40
0.6
176
     1
 40
30.0
176
     1
 62
     7
420
 16777215
176
     1
 90
        0
176
     1
 90
        0
176
     1
 62
     7
176
     1
 62
   257
176
     1
 90
        1
176
     1
 90
        1
176
     1
 40
1.0
176
     1
 90
        8
176
     1
 62
   257
176
     1
 40
1.0
176
     1
 90
        1
176
     1
 90
        6
176
     1
 90
        2
176
     1
 62
     7
176
     1
 90
        3
176
     1
 90
        0
176
     1
 90
        0
176
     1
290
     0
176
     1
 90
       13
176
     1
 40
0.0
176
     1
 90
        0
176
     1
290
     0
176
     1
290
     1
176
     1
290
     1
176
     1
290
     0
176
     1
290
     0
176
     1
290
     0
176
     1
290
     0
176
     1
290
     0
176
     1
290
     0
176
     1
 90
       50
176
     1
 40
0.0
176
     1
 40
1.0
176
     1
 90
        0
176
     1
 62
    18
420
        0
176
     1
 90
       50
176
     1
 90
        3
176
     1
 62
     5
420
      255
176
     1
290
     0
176
     1
 90
       50
176
     1
 90
       50
176
     1
 90
       50
176
     1
290
     0
176
     1
 90
       50
176
     1
 62
   256
176
     0
 40
1.0
176
     0
 90
        2
176
     1
  1
strokes_ogs.tif
176
     1
290
     0
176
     1
 40
1.0
176
     1
 40
1.0
176
     1
  0
VISUALSTYLE
  5
2E79
102
{ACAD_REACTORS
330
2E61
102
}
330
2E61
100
AcDbVisualStyle
  2
Shaded
 70
    27
177
     3
291
     0
 70
    58
 90
        2
176
     1
 90
        2
176
     1
 90
        1
176
     1
 90
        2
176
     1
 40
0.6
176
     1
 40
30.0
176
     1
 62
     7
420
 16777215
176
     1
 90
        0
176
     1
 90
        4
176
     1
 62
     7
176
     1
 62
   257
176
     1
 90
        1
176
     1
 90
        1
176
     1
 40
1.0
176
     1
 90
        8
176
     1
 62
   257
176
     1
 40
1.0
176
     1
 90
        1
176
     1
 90
        6
176
     1
 90
        2
176
     1
 62
     8
420
  7895160
176
     1
 90
        3
176
     1
 90
        0
176
     1
 90
        0
176
     1
290
     0
176
     1
 90
        5
176
     1
 40
0.0
176
     1
 90
        0
176
     1
290
     0
176
     1
290
     1
176
     1
290
     1
176
     1
290
     0
176
     1
290
     0
176
     1
290
     0
176
     1
290
     0
176
     1
290
     0
176
     1
290
     0
176
     1
 90
       50
176
     1
 40
0.0
176
     1
 40
1.0
176
     1
 90
        0
176
     1
 62
    18
420
        0
176
     1
 90
       50
176
     1
 90
        3
176
     1
 62
     5
420
      255
176
     1
290
     0
176
     1
 90
       50
176
     1
 90
       50
176
     1
 90
       50
176
     1
290
     0
176
     1
 90
       50
176
     1
 62
   256
176
     0
 40
1.0
176
     0
 90
        2
176
     1
  1
strokes_ogs.tif
176
     1
290
     0
176
     1
 40
1.0
176
     1
 40
1.0
176
     1
  0
VISUALSTYLE
  5
2E78
102
{ACAD_REACTORS
330
2E61
102
}
330
2E61
100
AcDbVisualStyle
  2
Shaded with edges
 70
    26
177
     3
291
     0
 70
    58
 90
        2
176
     1
 90
        2
176
     1
 90
        1
176
     1
 90
        2
176
     1
 40
0.6
176
     1
 40
30.0
176
     1
 62
     7
420
 16777215
176
     1
 90
        1
176
     1
 90
       10
176
     1
 62
     7
176
     1
 62
   257
176
     1
 90
        2
176
     1
 90
        1
176
     1
 40
1.0
176
     1
 90
        8
176
     1
 62
   257
176
     1
 40
1.0
176
     1
 90
        1
176
     1
 90
        6
176
     1
 90
        2
176
     1
 62
     7
176
     1
 90
        3
176
     1
 90
        0
176
     1
 90
        0
176
     1
290
     0
176
     1
 90
        5
176
     1
 40
0.0
176
     1
 90
        0
176
     1
290
     0
176
     1
290
     1
176
     1
290
     1
176
     1
290
     0
176
     1
290
     0
176
     1
290
     0
176
     1
290
     0
176
     1
290
     0
176
     1
290
     0
176
     1
 90
       50
176
     1
 40
0.0
176
     1
 40
1.0
176
     1
 90
        0
176
     1
 62
    18
420
        0
176
     1
 90
       50
176
     1
 90
        3
176
     1
 62
     5
420
      255
176
     1
290
     0
176
     1
 90
       50
176
     1
 90
       50
176
     1
 90
       50
176
     1
290
     0
176
     1
 90
       50
176
     1
 62
   256
176
     0
 40
1.0
176
     0
 90
        2
176
     1
  1
strokes_ogs.tif
176
     1
290
     0
176
     1
 40
1.0
176
     1
 40
1.0
176
     1
  0
VISUALSTYLE
  5
2E75
102
{ACAD_REACTORS
330
2E61
102
}
330
2E61
100
AcDbVisualStyle
  2
Shades of Gray
 70
    23
177
     3
291
     0
 70
    58
 90
        2
176
     1
 90
        2
176
     1
 90
        3
176
     1
 90
        0
176
     1
 40
0.6
176
     1
 40
30.0
176
     1
 62
     7
420
 16777215
176
     1
 90
        2
176
     1
 90
        2
176
     1
 62
     7
176
     1
 62
     7
176
     1
 90
        1
176
     1
 90
        1
176
     1
 40
40.0
176
     1
 90
        8
176
     1
 62
     7
176
     1
 40
1.0
176
     1
 90
        1
176
     1
 90
        6
176
     1
 90
        2
176
     1
 62
     7
176
     1
 90
        3
176
     1
 90
        0
176
     1
 90
        0
176
     1
290
     0
176
     1
 90
        1
176
     1
 40
0.0
176
     1
 90
        0
176
     1
290
     0
176
     1
290
     1
176
     1
290
     1
176
     1
290
     0
176
     1
290
     0
176
     1
290
     0
176
     1
290
     0
176
     1
290
     0
176
     1
290
     0
176
     1
 90
       50
176
     1
 40
0.0
176
     1
 40
1.0
176
     1
 90
        0
176
     1
 62
    18
420
        0
176
     1
 90
       50
176
     1
 90
        3
176
     1
 62
     5
420
      255
176
     1
290
     0
176
     1
 90
       50
176
     1
 90
       50
176
     1
 90
       50
176
     1
290
     0
176
     1
 90
       50
176
     1
 62
   256
176
     0
 40
1.0
176
     0
 90
        2
176
     1
  1
strokes_ogs.tif
176
     1
290
     0
176
     1
 40
1.0
176
     1
 40
1.0
176
     1
  0
VISUALSTYLE
  5
2E76
102
{ACAD_REACTORS
330
2E61
102
}
330
2E61
100
AcDbVisualStyle
  2
Sketchy
 70
    24
177
     3
291
     0
 70
    58
 90
        1
176
     1
 90
        2
176
     1
 90
        2
176
     1
 90
        0
176
     1
 40
0.6
176
     1
 40
30.0
176
     1
 62
     7
420
 16777215
176
     1
 90
        2
176
     1
 90
        2
176
     1
 62
     7
176
     1
 62
     7
176
     1
 90
        1
176
     1
 90
        1
176
     1
 40
40.0
176
     1
 90
       11
176
     1
 62
     7
176
     1
 40
1.0
176
     1
 90
        1
176
     1
 90
        6
176
     1
 90
        2
176
     1
 62
     7
176
     1
 90
        6
176
     1
 90
        0
176
     1
 90
        0
176
     1
290
     0
176
     1
 90
        1
176
     1
 40
0.0
176
     1
 90
        0
176
     1
290
     0
176
     1
290
     1
176
     1
290
     1
176
     1
290
     0
176
     1
290
     0
176
     1
290
     0
176
     1
290
     0
176
     1
290
     0
176
     1
290
     0
176
     1
 90
       50
176
     1
 40
0.0
176
     1
 40
1.0
176
     1
 90
        0
176
     1
 62
    18
420
        0
176
     1
 90
       50
176
     1
 90
        3
176
     1
 62
     5
420
      255
176
     1
290
     0
176
     1
 90
       50
176
     1
 90
       50
176
     1
 90
       50
176
     1
290
     0
176
     1
 90
       50
176
     1
 62
   256
176
     0
 40
1.0
176
     0
 90
        2
176
     1
  1
strokes_ogs.tif
176
     1
290
     0
176
     1
 40
1.0
176
     1
 40
1.0
176
     1
  0
VISUALSTYLE
  5
2E6E
102
{ACAD_REACTORS
330
2E61
102
}
330
2E61
100
AcDbVisualStyle
  2
Thicken
 70
    13
177
     3
291
     1
 70
    58
 90
        2
176
     1
 90
        2
176
     1
 90
        0
176
     1
 90
        0
176
     1
 40
0.6
176
     1
 40
30.0
176
     1
 62
     7
420
 16777215
176
     1
 90
        1
176
     1
 90
        4
176
     1
 62
     7
176
     1
 62
   257
176
     1
 90
        1
176
     1
 90
        1
176
     1
 40
1.0
176
     1
 90
       12
176
     1
 62
     7
176
     1
 40
1.0
176
     1
 90
        1
176
     1
 90
        6
176
     1
 90
        2
176
     1
 62
     7
176
     1
 90
        5
176
     1
 90
        0
176
     1
 90
        0
176
     1
290
     0
176
     1
 90
        1
176
     1
 40
0.0
176
     1
 90
        0
176
     1
290
     0
176
     1
290
     1
176
     1
290
     1
176
     1
290
     0
176
     1
290
     0
176
     1
290
     0
176
     1
290
     0
176
     1
290
     0
176
     1
290
     0
176
     1
 90
       50
176
     1
 40
0.0
176
     1
 40
1.0
176
     1
 90
        0
176
     1
 62
    18
420
        0
176
     1
 90
       50
176
     1
 90
        3
176
     1
 62
     5
420
      255
176
     1
290
     0
176
     1
 90
       50
176
     1
 90
       50
176
     1
 90
       50
176
     1
290
     0
176
     1
 90
       50
176
     1
 62
   256
176
     0
 40
1.0
176
     0
 90
        2
176
     1
  1
strokes_ogs.tif
176
     1
290
     0
176
     1
 40
1.0
176
     1
 40
1.0
176
     1
  0
VISUALSTYLE
  5
2E67
102
{ACAD_REACTORS
330
2E61
102
}
330
2E61
100
AcDbVisualStyle
  2
Wireframe
 70
     5
177
     3
291
     0
 70
    58
 90
        0
176
     1
 90
        2
176
     1
 90
        0
176
     1
 90
        0
176
     1
 40
0.6
176
     1
 40
30.0
176
     1
 62
     7
420
 16777215
176
     1
 90
        1
176
     1
 90
        4
176
     1
 62
     7
176
     1
 62
   257
176
     1
 90
        1
176
     1
 90
        1
176
     1
 40
1.0
176
     1
 90
        0
176
     1
 62
   257
176
     1
 40
1.0
176
     1
 90
        1
176
     1
 90
        6
176
     1
 90
        2
176
     1
 62
     7
176
     1
 90
        3
176
     1
 90
        0
176
     1
 90
        0
176
     1
290
     0
176
     1
 90
        1
176
     1
 40
0.0
176
     1
 90
        0
176
     1
290
     0
176
     1
290
     1
176
     1
290
     1
176
     1
290
     0
176
     1
290
     0
176
     1
290
     0
176
     1
290
     0
176
     1
290
     0
176
     1
290
     0
176
     1
 90
       50
176
     1
 40
0.0
176
     1
 40
1.0
176
     1
 90
        0
176
     1
 62
    18
420
        0
176
     1
 90
       50
176
     1
 90
        3
176
     1
 62
     5
420
      255
176
     1
290
     0
176
     1
 90
       50
176
     1
 90
       50
176
     1
 90
       50
176
     1
290
     0
176
     1
 90
       50
176
     1
 62
   256
176
     0
 40
1.0
176
     0
 90
        2
176
     1
  1
strokes_ogs.tif
176
     1
290
     0
176
     1
 40
1.0
176
     1
 40
1.0
176
     1
  0
VISUALSTYLE
  5
2E77
102
{ACAD_REACTORS
330
2E61
102
}
330
2E61
100
AcDbVisualStyle
  2
X-Ray
 70
    25
177
     3
291
     0
 70
    58
 90
        2
176
     1
 90
        2
176
     1
 90
        1
176
     1
 90
        1
176
     1
 40
0.5
176
     1
 40
30.0
176
     1
 62
     7
420
 16777215
176
     1
 90
        1
176
     1
 90
        0
176
     1
 62
     7
176
     1
 62
   257
176
     1
 90
        1
176
     1
 90
        1
176
     1
 40
1.0
176
     1
 90
        8
176
     1
 62
     7
176
     1
 40
1.0
176
     1
 90
        1
176
     1
 90
        6
176
     1
 90
        2
176
     1
 62
     7
176
     1
 90
        3
176
     1
 90
        0
176
     1
 90
        0
176
     1
290
     0
176
     1
 90
       13
176
     1
 40
0.0
176
     1
 90
        0
176
     1
290
     0
176
     1
290
     1
176
     1
290
     1
176
     1
290
     0
176
     1
290
     0
176
     1
290
     0
176
     1
290
     0
176
     1
290
     0
176
     1
290
     0
176
     1
 90
       50
176
     1
 40
0.0
176
     1
 40
1.0
176
     1
 90
        0
176
     1
 62
    18
420
        0
176
     1
 90
       50
176
     1
 90
        3
176
     1
 62
     5
420
      255
176
     1
290
     0
176
     1
 90
       50
176
     1
 90
       50
176
     1
 90
       50
176
     1
290
     0
176
     1
 90
       50
176
     1
 62
   256
176
     0
 40
1.0
176
     0
 90
        2
176
     1
  1
strokes_ogs.tif
176
     1
290
     0
176
     1
 40
1.0
176
     1
 40
1.0
176
     1
  0
DICTIONARYVAR
  5
2F3B
102
{ACAD_REACTORS
330
2F3A
102
}
330
2F3A
100
DictionaryVariables
280
     0
  1
1:1
  0
DICTIONARYVAR
  5
2F40
102
{ACAD_REACTORS
330
2F3A
102
}
330
2F3A
100
DictionaryVariables
280
     0
  1
Standard
  0
DICTIONARYVAR
  5
2F3F
102
{ACAD_REACTORS
330
2F3A
102
}
330
2F3A
100
DictionaryVariables
280
     0
  1
Standard
  0
XRECORD
  5
2EA8
102
{ACAD_REACTORS
330
2EA6
102
}
330
2EA6
100
AcDbXrecord
280
     1
1000
#ffffff
  0
XRECORD
  5
2EA9
102
{ACAD_REACTORS
330
2EA6
102
}
330
2EA6
100
AcDbXrecord
280
     1
1000
FullColor
  0
XRECORD
  5
2EAA
102
{ACAD_REACTORS
330
2EA6
102
}
330
2EA6
100
AcDbXrecord
280
     1
290
     1
  0
XRECORD
  5
2EAB
102
{ACAD_REACTORS
330
2EA6
102
}
330
2EA6
100
AcDbXrecord
280
     1
290
     1
  0
XRECORD
  5
2EAC
102
{ACAD_REACTORS
330
2EA6
102
}
330
2EA6
100
AcDbXrecord
280
     1
290
     1
  0
XRECORD
  5
2EAD
102
{ACAD_REACTORS
330
2EA6
102
}
330
2EA6
100
AcDbXrecord
280
     1
290
     1
  0
XRECORD
  5
2EAE
102
{ACAD_REACTORS
330
2EA6
102
}
330
2EA6
100
AcDbXrecord
280
     1
1000
1
  0
XRECORD
  5
2EAF
102
{ACAD_REACTORS
330
2EA6
102
}
330
2EA6
100
AcDbXrecord
280
     1
1000
auto
  0
XRECORD
  5
2EB0
102
{ACAD_REACTORS
330
2EA6
102
}
330
2EA6
100
AcDbXrecord
280
     1
1000
auto
  0
XRECORD
  5
2EB1
102
{ACAD_REACTORS
330
2EA6
102
}
330
2EA6
100
AcDbXrecord
280
     1
1000
auto
  0
XRECORD
  5
2EB2
102
{ACAD_REACTORS
330
2EA6
102
}
330
2EA6
100
AcDbXrecord
280
     1
1000
1
  0
XRECORD
  5
2EB3
102
{ACAD_REACTORS
330
2EA6
102
}
330
2EA6
100
AcDbXrecord
280
     1
1000
auto
  0
XRECORD
  5
2EB4
102
{ACAD_REACTORS
330
2EA6
102
}
330
2EA6
100
AcDbXrecord
280
     1
1000
auto
  0
XRECORD
  5
2EB5
102
{ACAD_REACTORS
330
2EA6
102
}
330
2EA6
100
AcDbXrecord
280
     1
1000
auto
  0
XRECORD
  5
2EB6
102
{ACAD_REACTORS
330
2EA6
102
}
330
2EA6
100
AcDbXrecord
280
     1
290
     0
  0
XRECORD
  5
2EB7
102
{ACAD_REACTORS
330
2EA6
102
}
330
2EA6
100
AcDbXrecord
280
     1
290
     0
  0
XRECORD
  5
2EB8
102
{ACAD_REACTORS
330
2EA6
102
}
330
2EA6
100
AcDbXrecord
280
     1
290
     0
  0
XRECORD
  5
2EB9
102
{ACAD_REACTORS
330
2EA6
102
}
330
2EA6
100
AcDbXrecord
280
     1
290
     0
  0
XRECORD
  5
2EBA
102
{ACAD_REACTORS
330
2EA6
102
}
330
2EA6
100
AcDbXrecord
280
     1
 90
        0
  0
XRECORD
  5
2EBB
102
{ACAD_REACTORS
330
2EA6
102
}
330
2EA6
100
AcDbXrecord
280
     1
 90
        0
  0
XRECORD
  5
2EBC
102
{ACAD_REACTORS
330
2EA6
102
}
330
2EA6
100
AcDbXrecord
280
     1
 90
        0
  0
XRECORD
  5
2EBD
102
{ACAD_REACTORS
330
2EA6
102
}
330
2EA6
100
AcDbXrecord
280
     1
 90
        0
  0
XRECORD
  5
2EBE
102
{ACAD_REACTORS
330
2EA6
102
}
330
2EA6
100
AcDbXrecord
280
     1
1000
5
  0
XRECORD
  5
2EBF
102
{ACAD_REACTORS
330
2EA6
102
}
330
2EA6
100
AcDbXrecord
280
     1
1000
auto
  0
XRECORD
  5
2EC0
102
{ACAD_REACTORS
330
2EA6
102
}
330
2EA6
100
AcDbXrecord
280
     1
1000
auto
  0
XRECORD
  5
2EC1
102
{ACAD_REACTORS
330
2EA6
102
}
330
2EA6
100
AcDbXrecord
280
     1
1000
auto
  0
XRECORD
  5
2EC2
102
{ACAD_REACTORS
330
2EA6
102
}
330
2EA6
100
AcDbXrecord
280
     1
1000
5
  0
XRECORD
  5
2EC3
102
{ACAD_REACTORS
330
2EA6
102
}
330
2EA6
100
AcDbXrecord
280
     1
1000
auto
  0
XRECORD
  5
2EC4
102
{ACAD_REACTORS
330
2EA6
102
}
330
2EA6
100
AcDbXrecord
280
     1
1000
auto
  0
XRECORD
  5
2EC5
102
{ACAD_REACTORS
330
2EA6
102
}
330
2EA6
100
AcDbXrecord
280
     1
1000
auto
  0
XRECORD
  5
2EC6
102
{ACAD_REACTORS
330
2EA6
102
}
330
2EA6
100
AcDbXrecord
280
     1
 90
        1
  0
XRECORD
  5
2EC7
102
{ACAD_REACTORS
330
2EA6
102
}
330
2EA6
100
AcDbXrecord
280
     1
 40
10.0
  0
XRECORD
  5
2EC8
102
{ACAD_REACTORS
330
2EA6
102
}
330
2EA6
100
AcDbXrecord
280
     1
 40
10.0
  0
XRECORD
  5
2EC9
102
{ACAD_REACTORS
330
2EA6
102
}
330
2EA6
100
AcDbXrecord
280
     1
 40
10.0
  0
XRECORD
  5
2ECA
102
{ACAD_REACTORS
330
2EA6
102
}
330
2EA6
100
AcDbXrecord
280
     1
 40
10.0
  0
XRECORD
  5
2ECB
102
{ACAD_REACTORS
330
2EA6
102
}
330
2EA6
100
AcDbXrecord
280
     1
290
     0
  0
XRECORD
  5
2ECC
102
{ACAD_REACTORS
330
2EA6
102
}
330
2EA6
100
AcDbXrecord
280
     1
 90
        1
  0
XRECORD
  5
2ECD
102
{ACAD_REACTORS
330
2EA6
102
}
330
2EA6
100
AcDbXrecord
280
     1
 40
-112.5983256795836
  0
XRECORD
  5
2ECE
102
{ACAD_REACTORS
330
2EA6
102
}
330
2EA6
100
AcDbXrecord
280
     1
 40
-165.8542905280352
  0
XRECORD
  5
2ECF
102
{ACAD_REACTORS
330
2EA6
102
}
330
2EA6
100
AcDbXrecord
280
     1
1000
Portrait
  0
XRECORD
  5
2ED0
102
{ACAD_REACTORS
330
2EA6
102
}
330
2EA6
100
AcDbXrecord
280
     1
 40
297.0
  0
XRECORD
  5
2ED1
102
{ACAD_REACTORS
330
2EA6
102
}
330
2EA6
100
AcDbXrecord
280
     1
 40
210.0
  0
XRECORD
  5
2ED2
102
{ACAD_REACTORS
330
2EA6
102
}
330
2EA6
100
AcDbXrecord
280
     1
1000
1:1
  0
XRECORD
  5
2ED3
102
{ACAD_REACTORS
330
2EA6
102
}
330
2EA6
100
AcDbXrecord
280
     1
290
     1
  0
XRECORD
  5
2ED4
102
{ACAD_REACTORS
330
2EA6
102
}
330
2EA6
100
AcDbXrecord
280
     1
1000
3.15.3
  0
XRECORD
  5
2ED5
102
{ACAD_REACTORS
330
2EA6
102
}
330
2EA6
100
AcDbXrecord
280
     1
 90
        4
  0
XRECORD
  5
2ED6
102
{ACAD_REACTORS
330
2EA6
102
}
330
2EA6
100
AcDbXrecord
280
     1
  0
XRECORD
  5
2ED7
102
{ACAD_REACTORS
330
2EA6
102
}
330
2EA6
100
AcDbXrecord
280
     1
 40
119.0810365690287
  0
XRECORD
  5
2ED8
102
{ACAD_REACTORS
330
2EA6
102
}
330
2EA6
100
AcDbXrecord
280
     1
 40
168.518094440269
  0
DICTIONARY
  5
2F3C
330
2EA1
100
AcDbDictionary
280
     1
281
     1
  3
ACAD_ROUNDTRIP_2008_TABLESTYLE_CELLSTYLEMAP
360
2F3D
  0
CELLSTYLEMAP
  5
2F3D
102
{ACAD_REACTORS
330
2F3C
102
}
330
2F3C
100
AcDbCellStyleMap
 90
        3
300
CELLSTYLE
  1
TABLEFORMAT_BEGIN
 90
        5
170
     1
 91
        0
 92
    32768
 62
   257
 93
        1
300
CONTENTFORMAT
  1
CONTENTFORMAT_BEGIN
 90
        0
 91
        0
 92
        4
 93
        0
300

 40
0.0
140
1.0
 94
        5
 62
     0
340
2E49
144
0.25
309
CONTENTFORMAT_END
171
     1
301
MARGIN
  1
CELLMARGIN_BEGIN
 40
0.06
 40
0.06
 40
0.06
 40
0.06
 40
0.06
 40
0.06
309
CELLMARGIN_END
 94
        6
 95
        1
302
GRIDFORMAT
  1
GRIDFORMAT_BEGIN
 90
        0
 91
        1
 62
     0
 92
       -2
340
2E4B
 93
        0
 40
0.045
309
GRIDFORMAT_END
 95
        2
302
GRIDFORMAT
  1
GRIDFORMAT_BEGIN
 90
        0
 91
        1
 62
     0
 92
       -2
340
2E4B
 93
        0
 40
0.045
309
GRIDFORMAT_END
 95
        4
302
GRIDFORMAT
  1
GRIDFORMAT_BEGIN
 90
        0
 91
        1
 62
     0
 92
       -2
340
2E4B
 93
        0
 40
0.045
309
GRIDFORMAT_END
 95
        8
302
GRIDFORMAT
  1
GRIDFORMAT_BEGIN
 90
        0
 91
        1
 62
     0
 92
       -2
340
2E4B
 93
        0
 40
0.045
309
GRIDFORMAT_END
 95
       16
302
GRIDFORMAT
  1
GRIDFORMAT_BEGIN
 90
        0
 91
        1
 62
     0
 92
       -2
340
2E4B
 93
        0
 40
0.045
309
GRIDFORMAT_END
 95
       32
302
GRIDFORMAT
  1
GRIDFORMAT_BEGIN
 90
        0
 91
        1
 62
     0
 92
       -2
340
2E4B
 93
        0
 40
0.045
309
GRIDFORMAT_END
309
TABLEFORMAT_END
  1
CELLSTYLE_BEGIN
 90
        1
 91
        1
300
_TITLE
309
CELLSTYLE_END
300
CELLSTYLE
  1
TABLEFORMAT_BEGIN
 90
        5
170
     1
 91
        0
 92
        0
 62
   257
 93
        1
300
CONTENTFORMAT
  1
CONTENTFORMAT_BEGIN
 90
        0
 91
        0
 92
        4
 93
        0
300

 40
0.0
140
1.0
 94
        5
 62
     0
340
2E49
144
0.18
309
CONTENTFORMAT_END
171
     1
301
MARGIN
  1
CELLMARGIN_BEGIN
 40
0.06
 40
0.06
 40
0.06
 40
0.06
 40
0.06
 40
0.06
309
CELLMARGIN_END
 94
        6
 95
        1
302
GRIDFORMAT
  1
GRIDFORMAT_BEGIN
 90
        0
 91
        1
 62
     0
 92
       -2
340
2E4B
 93
        0
 40
0.045
309
GRIDFORMAT_END
 95
        2
302
GRIDFORMAT
  1
GRIDFORMAT_BEGIN
 90
        0
 91
        1
 62
     0
 92
       -2
340
2E4B
 93
        0
 40
0.045
309
GRIDFORMAT_END
 95
        4
302
GRIDFORMAT
  1
GRIDFORMAT_BEGIN
 90
        0
 91
        1
 62
     0
 92
       -2
340
2E4B
 93
        0
 40
0.045
309
GRIDFORMAT_END
 95
        8
302
GRIDFORMAT
  1
GRIDFORMAT_BEGIN
 90
        0
 91
        1
 62
     0
 92
       -2
340
2E4B
 93
        0
 40
0.045
309
GRIDFORMAT_END
 95
       16
302
GRIDFORMAT
  1
GRIDFORMAT_BEGIN
 90
        0
 91
        1
 62
     0
 92
       -2
340
2E4B
 93
        0
 40
0.045
309
GRIDFORMAT_END
 95
       32
302
GRIDFORMAT
  1
GRIDFORMAT_BEGIN
 90
        0
 91
        1
 62
     0
 92
       -2
340
2E4B
 93
        0
 40
0.045
309
GRIDFORMAT_END
309
TABLEFORMAT_END
  1
CELLSTYLE_BEGIN
 90
        2
 91
        1
300
_HEADER
309
CELLSTYLE_END
300
CELLSTYLE
  1
TABLEFORMAT_BEGIN
 90
        5
170
     1
 91
        0
 92
        0
 62
   257
 93
        1
300
CONTENTFORMAT
  1
CONTENTFORMAT_BEGIN
 90
        0
 91
        0
 92
        4
 93
        0
300

 40
0.0
140
1.0
 94
        2
 62
     0
340
2E49
144
0.18
309
CONTENTFORMAT_END
171
     1
301
MARGIN
  1
CELLMARGIN_BEGIN
 40
0.06
 40
0.06
 40
0.06
 40
0.06
 40
0.06
 40
0.06
309
CELLMARGIN_END
 94
        6
 95
        1
302
GRIDFORMAT
  1
GRIDFORMAT_BEGIN
 90
        0
 91
        1
 62
     0
 92
       -2
340
2E4B
 93
        0
 40
0.045
309
GRIDFORMAT_END
 95
        2
302
GRIDFORMAT
  1
GRIDFORMAT_BEGIN
 90
        0
 91
        1
 62
     0
 92
       -2
340
2E4B
 93
        0
 40
0.045
309
GRIDFORMAT_END
 95
        4
302
GRIDFORMAT
  1
GRIDFORMAT_BEGIN
 90
        0
 91
        1
 62
     0
 92
       -2
340
2E4B
 93
        0
 40
0.045
309
GRIDFORMAT_END
 95
        8
302
GRIDFORMAT
  1
GRIDFORMAT_BEGIN
 90
        0
 91
        1
 62
     0
 92
       -2
340
2E4B
 93
        0
 40
0.045
309
GRIDFORMAT_END
 95
       16
302
GRIDFORMAT
  1
GRIDFORMAT_BEGIN
 90
        0
 91
        1
 62
     0
 92
       -2
340
2E4B
 93
        0
 40
0.045
309
GRIDFORMAT_END
 95
       32
302
GRIDFORMAT
  1
GRIDFORMAT_BEGIN
 90
        0
 91
        1
 62
     0
 92
       -2
340
2E4B
 93
        0
 40
0.045
309
GRIDFORMAT_END
309
TABLEFORMAT_END
  1
CELLSTYLE_BEGIN
 90
        3
 91
        2
300
_DATA
309
CELLSTYLE_END
  0
ENDSEC
  0
EOF
